font.ufo
<glyph name="exclam" format="1">
  <advance width="227"/>
  <unicode hex="0021"/>
  <outline>
    <contour>
      <point x="126" y="229" type="line"/>
      <point x="131" y="722" type="line"/>
      <point x="98" y="722" type="line"/>
      <point x="102" y="229" type="line"/>
    </contour>
    <contour>
      <point x="134" y="13" type="curve"/>
      <point x="134" y="24"/>
      <point x="126" y="31"/>
      <point x="113" y="31" type="curve"/>
      <point x="102" y="31"/>
      <point x="96" y="24"/>
      <point x="96" y="13" type="curve"/>
      <point x="113" y="13"/>
      <point x="117" y="13"/>
      <point x="134" y="13" type="curve"/>
      <point x="134" y="1"/>
      <point x="126" y="-6"/>
      <point x="113" y="-6" type="curve"/>
      <point x="102" y="-6"/>
      <point x="96" y="1"/>
      <point x="96" y="13" type="curve"/>
      <point x="113" y="13"/>
      <point x="117" y="13"/>
    </contour>
  </outline>
</glyph>
<glyph name="quotedbl" format="1">
  <advance width="442"/>
  <unicode hex="0022"/>
  <outline>
    <contour>
      <point x="125" y="646" type="line"/>
      <point x="128" y="834" type="line"/>
      <point x="97" y="834" type="line"/>
      <point x="100" y="646" type="line"/>
    </contour>
    <contour>
      <point x="344" y="646" type="line"/>
      <point x="347" y="834" type="line"/>
      <point x="316" y="834" type="line"/>
      <point x="319" y="646" type="line"/>
    </contour>
  </outline>
</glyph>
<glyph name="numbersign" format="1">
  <advance width="826"/>
  <unicode hex="0023"/>
  <outline>
    <contour>
      <point x="50" y="247" type="line"/>
      <point x="674" y="247" type="line"/>
      <point x="680" y="270" type="line"/>
      <point x="58" y="270" type="line"/>
    </contour>
    <contour>
      <point x="143" y="491" type="line"/>
      <point x="768" y="491" type="line"/>
      <point x="775" y="513" type="line"/>
      <point x="151" y="513" type="line"/>
    </contour>
    <contour>
      <point x="482" y="39" type="line"/>
      <point x="759" y="722" type="line"/>
      <point x="734" y="722" type="line"/>
      <point x="455" y="39" type="line"/>
    </contour>
    <contour>
      <point x="124" y="46" type="line"/>
      <point x="397" y="722" type="line"/>
      <point x="371" y="722" type="line"/>
      <point x="100" y="46" type="line"/>
    </contour>
  </outline>
</glyph>
<glyph name="dollar" format="1">
  <advance width="663"/>
  <unicode hex="0024"/>
  <outline>
    <contour>
      <point x="86" y="99" type="curve"/>
      <point x="86" y="219"/>
      <point x="86" y="99"/>
      <point x="86" y="219" type="curve"/>
      <point x="63" y="219"/>
      <point x="86" y="219"/>
      <point x="63" y="219" type="curve"/>
      <point x="63" y="99"/>
      <point x="63" y="219"/>
      <point x="63" y="99" type="curve"/>
      <point x="86" y="99"/>
      <point x="63" y="99"/>
    </contour>
    <contour>
      <point x="559" y="631" type="curve"/>
      <point x="559" y="511"/>
      <point x="559" y="631"/>
      <point x="559" y="511" type="curve"/>
      <point x="582" y="511"/>
      <point x="559" y="511"/>
      <point x="582" y="511" type="curve"/>
      <point x="582" y="631"/>
      <point x="582" y="511"/>
      <point x="582" y="631" type="curve"/>
      <point x="559" y="631"/>
      <point x="582" y="631"/>
    </contour>
    <contour>
      <point x="325" y="-43" type="curve"/>
      <point x="325" y="-9"/>
      <point x="325" y="25"/>
      <point x="325" y="59" type="curve"/>
      <point x="300" y="59"/>
      <point x="325" y="59"/>
      <point x="300" y="59" type="curve"/>
      <point x="300" y="25"/>
      <point x="300" y="-9"/>
      <point x="300" y="-43" type="curve"/>
      <point x="325" y="-43"/>
      <point x="300" y="-43"/>
    </contour>
    <contour>
      <point x="341" y="671" type="curve"/>
      <point x="341" y="705"/>
      <point x="341" y="739"/>
      <point x="341" y="773" type="curve"/>
      <point x="316" y="773"/>
      <point x="341" y="773"/>
      <point x="316" y="773" type="curve"/>
      <point x="316" y="739"/>
      <point x="316" y="705"/>
      <point x="316" y="671" type="curve"/>
      <point x="341" y="671"/>
      <point x="316" y="671"/>
    </contour>
    <contour>
      <point x="63" y="99" type="curve"/>
      <point x="133" y="71"/>
      <point x="217" y="48"/>
      <point x="311" y="48" type="curve"/>
      <point x="466" y="48"/>
      <point x="601" y="77"/>
      <point x="601" y="198" type="curve"/>
      <point x="601" y="316"/>
      <point x="468" y="341"/>
      <point x="339" y="385" type="curve"/>
      <point x="224" y="424"/>
      <point x="121" y="446"/>
      <point x="121" y="543" type="curve"/>
      <point x="121" y="631"/>
      <point x="218" y="661"/>
      <point x="333" y="661" type="curve"/>
      <point x="424" y="661"/>
      <point x="488" y="646"/>
      <point x="568" y="612" type="curve"/>
      <point x="582" y="631"/>
      <point x="568" y="612"/>
      <point x="582" y="631" type="curve"/>
      <point x="497" y="666"/>
      <point x="429" y="683"/>
      <point x="335" y="683" type="curve"/>
      <point x="203" y="683"/>
      <point x="96" y="648"/>
      <point x="96" y="543" type="curve"/>
      <point x="96" y="432"/>
      <point x="202" y="406"/>
      <point x="324" y="365" type="curve"/>
      <point x="446" y="326"/>
      <point x="576" y="301"/>
      <point x="576" y="197" type="curve"/>
      <point x="576" y="97"/>
      <point x="454" y="70"/>
      <point x="313" y="70" type="curve"/>
      <point x="224" y="70"/>
      <point x="144" y="94"/>
      <point x="77" y="119" type="curve"/>
      <point x="63" y="99"/>
      <point x="77" y="119"/>
    </contour>
  </outline>
</glyph>
<glyph name="percent" format="1">
  <advance width="1334"/>
  <unicode hex="0025"/>
  <outline>
    <contour>
      <point x="434" y="-92" type="line"/>
      <point x="982" y="756" type="line"/>
      <point x="954" y="756" type="line"/>
      <point x="406" y="-92" type="line"/>
    </contour>
    <contour>
      <point x="67" y="552" type="curve"/>
      <point x="67" y="667"/>
      <point x="138" y="738"/>
      <point x="253" y="738" type="curve"/>
      <point x="369" y="739"/>
      <point x="440" y="668"/>
      <point x="440" y="553" type="curve"/>
      <point x="440" y="438"/>
      <point x="371" y="366"/>
      <point x="256" y="366" type="curve"/>
      <point x="139" y="366"/>
      <point x="67" y="436"/>
      <point x="67" y="552" type="curve"/>
      <point x="58" y="552"/>
      <point x="52" y="552"/>
      <point x="43" y="552" type="curve"/>
      <point x="43" y="422"/>
      <point x="124" y="344"/>
      <point x="254" y="344" type="curve"/>
      <point x="385" y="344"/>
      <point x="465" y="423"/>
      <point x="465" y="554" type="curve"/>
      <point x="465" y="682"/>
      <point x="385" y="760"/>
      <point x="255" y="760" type="curve"/>
      <point x="124" y="760"/>
      <point x="43" y="681"/>
      <point x="43" y="552" type="curve"/>
      <point x="52" y="552"/>
      <point x="58" y="552"/>
    </contour>
    <contour>
      <point x="893" y="109" type="curve"/>
      <point x="893" y="224"/>
      <point x="965" y="294"/>
      <point x="1080" y="294" type="curve"/>
      <point x="1196" y="295"/>
      <point x="1265" y="225"/>
      <point x="1265" y="110" type="curve"/>
      <point x="1265" y="-5"/>
      <point x="1198" y="-77"/>
      <point x="1082" y="-77" type="curve"/>
      <point x="965" y="-77"/>
      <point x="893" y="-7"/>
      <point x="893" y="109" type="curve"/>
      <point x="884" y="109"/>
      <point x="878" y="109"/>
      <point x="869" y="109" type="curve"/>
      <point x="869" y="-20"/>
      <point x="950" y="-99"/>
      <point x="1081" y="-99" type="curve"/>
      <point x="1212" y="-99"/>
      <point x="1291" y="-19"/>
      <point x="1291" y="111" type="curve"/>
      <point x="1291" y="239"/>
      <point x="1211" y="317"/>
      <point x="1081" y="317" type="curve"/>
      <point x="950" y="317"/>
      <point x="869" y="238"/>
      <point x="869" y="109" type="curve"/>
      <point x="878" y="109"/>
      <point x="884" y="109"/>
    </contour>
  </outline>
</glyph>
<glyph name="parenleft" format="1">
  <advance width="406"/>
  <unicode hex="0028"/>
  <outline>
    <contour>
      <point x="390" y="-235" type="curve"/>
      <point x="193" y="-83"/>
      <point x="87" y="76"/>
      <point x="87" y="326" type="curve"/>
      <point x="87" y="575"/>
      <point x="194" y="732"/>
      <point x="388" y="888" type="curve"/>
      <point x="373" y="903"/>
      <point x="388" y="888"/>
      <point x="373" y="903" type="curve"/>
      <point x="170" y="746"/>
      <point x="61" y="583"/>
      <point x="61" y="326" type="curve"/>
      <point x="61" y="69"/>
      <point x="171" y="-93"/>
      <point x="375" y="-251" type="curve"/>
      <point x="390" y="-235"/>
      <point x="375" y="-251"/>
    </contour>
  </outline>
</glyph>
<glyph name="parenright" format="1">
  <advance width="421"/>
  <unicode hex="0029"/>
  <outline>
    <contour>
      <point x="30" y="-267" type="curve"/>
      <point x="238" y="-101"/>
      <point x="361" y="60"/>
      <point x="361" y="327" type="curve"/>
      <point x="361" y="588"/>
      <point x="245" y="748"/>
      <point x="35" y="903" type="curve"/>
      <point x="20" y="887"/>
      <point x="35" y="903"/>
      <point x="20" y="887" type="curve"/>
      <point x="221" y="733"/>
      <point x="333" y="579"/>
      <point x="333" y="326" type="curve"/>
      <point x="333" y="68"/>
      <point x="211" y="-86"/>
      <point x="14" y="-252" type="curve"/>
      <point x="30" y="-267"/>
      <point x="14" y="-252"/>
    </contour>
  </outline>
</glyph>
<glyph name="asterisk" format="1">
  <advance width="757"/>
  <unicode hex="002A"/>
  <outline>
    <contour>
      <point x="386" y="640" type="line"/>
      <point x="389" y="828" type="line"/>
      <point x="358" y="828" type="line"/>
      <point x="361" y="640" type="line"/>
    </contour>
    <contour>
      <point x="488" y="558" type="line"/>
      <point x="669" y="614" type="line"/>
      <point x="658" y="643" type="line"/>
      <point x="481" y="582" type="line"/>
    </contour>
    <contour>
      <point x="443" y="437" type="line"/>
      <point x="552" y="283" type="line"/>
      <point x="577" y="302" type="line"/>
      <point x="464" y="452" type="line"/>
    </contour>
    <contour>
      <point x="312" y="442" type="line"/>
      <point x="199" y="292" type="line"/>
      <point x="224" y="273" type="line"/>
      <point x="332" y="427" type="line"/>
    </contour>
    <contour>
      <point x="277" y="567" type="line"/>
      <point x="100" y="628" type="line"/>
      <point x="90" y="599" type="line"/>
      <point x="270" y="543" type="line"/>
    </contour>
  </outline>
</glyph>
<glyph name="plus" format="1">
  <advance width="728"/>
  <unicode hex="002B"/>
  <outline>
    <contour>
      <point x="59" y="297" type="curve"/>
      <point x="669" y="297" type="line"/>
      <point x="669" y="322"/>
      <point x="669" y="297"/>
      <point x="669" y="322" type="curve"/>
      <point x="59" y="322" type="line"/>
      <point x="59" y="297"/>
      <point x="59" y="322"/>
    </contour>
    <contour>
      <point x="372" y="18" type="curve"/>
      <point x="372" y="588" type="line"/>
      <point x="346" y="588"/>
      <point x="372" y="588"/>
      <point x="346" y="588" type="curve"/>
      <point x="346" y="18" type="line"/>
      <point x="372" y="18"/>
      <point x="346" y="18"/>
    </contour>
  </outline>
</glyph>
<glyph name="hyphen" format="1">
  <advance width="555"/>
  <unicode hex="002D"/>
  <outline>
    <contour>
      <point x="91" y="260" type="curve"/>
      <point x="215" y="260"/>
      <point x="340" y="260"/>
      <point x="465" y="260" type="curve"/>
      <point x="465" y="285"/>
      <point x="465" y="260"/>
      <point x="465" y="285" type="curve"/>
      <point x="340" y="285"/>
      <point x="215" y="285"/>
      <point x="91" y="285" type="curve"/>
      <point x="91" y="260"/>
      <point x="91" y="285"/>
    </contour>
  </outline>
</glyph>
<glyph name="period" format="1">
  <advance width="214"/>
  <unicode hex="002E"/>
  <outline>
    <contour>
      <point x="126" y="13" type="curve"/>
      <point x="126" y="24"/>
      <point x="118" y="31"/>
      <point x="107" y="31" type="curve"/>
      <point x="95" y="31"/>
      <point x="88" y="24"/>
      <point x="88" y="13" type="curve"/>
      <point x="106" y="13"/>
      <point x="109" y="13"/>
      <point x="126" y="13" type="curve"/>
      <point x="126" y="1"/>
      <point x="118" y="-6"/>
      <point x="107" y="-6" type="curve"/>
      <point x="95" y="-6"/>
      <point x="88" y="1"/>
      <point x="88" y="13" type="curve"/>
      <point x="106" y="13"/>
      <point x="109" y="13"/>
    </contour>
  </outline>
</glyph>
<glyph name="slash" format="1">
  <advance width="652"/>
  <unicode hex="002F"/>
  <outline>
    <contour>
      <point x="65" y="-66" type="curve"/>
      <point x="248" y="236"/>
      <point x="430" y="540"/>
      <point x="612" y="842" type="curve"/>
      <point x="587" y="842"/>
      <point x="612" y="842"/>
      <point x="587" y="842" type="curve"/>
      <point x="405" y="540"/>
      <point x="223" y="236"/>
      <point x="40" y="-66" type="curve"/>
      <point x="65" y="-66"/>
      <point x="40" y="-66"/>
    </contour>
  </outline>
</glyph>
<glyph name="two" format="1">
  <advance width="702"/>
  <unicode hex="0032"/>
  <outline>
    <contour>
      <point x="626" y="23" type="curve"/>
      <point x="626" y="143"/>
      <point x="626" y="23"/>
      <point x="626" y="143" type="curve"/>
      <point x="604" y="143"/>
      <point x="626" y="143"/>
      <point x="604" y="143" type="curve"/>
      <point x="604" y="23"/>
      <point x="604" y="143"/>
      <point x="604" y="23" type="curve"/>
      <point x="626" y="23"/>
      <point x="604" y="23"/>
    </contour>
    <contour>
      <point x="53" y="0" type="curve"/>
      <point x="251" y="0"/>
      <point x="429" y="0"/>
      <point x="626" y="0" type="curve"/>
      <point x="626" y="23"/>
      <point x="626" y="0"/>
      <point x="626" y="23" type="curve"/>
      <point x="424" y="23"/>
      <point x="252" y="23"/>
      <point x="53" y="23" type="curve"/>
      <point x="53" y="0"/>
      <point x="53" y="23"/>
    </contour>
    <contour>
      <point x="101" y="562" type="curve"/>
      <point x="164" y="653"/>
      <point x="236" y="701"/>
      <point x="345" y="701" type="curve"/>
      <point x="472" y="701"/>
      <point x="562" y="648"/>
      <point x="562" y="526" type="curve"/>
      <point x="562" y="392"/>
      <point x="462" y="316"/>
      <point x="346" y="238" type="curve"/>
      <point x="248" y="166"/>
      <point x="150" y="94"/>
      <point x="53" y="23" type="curve"/>
      <point x="64" y="0"/>
      <point x="53" y="23"/>
      <point x="64" y="0" type="curve"/>
      <point x="164" y="73"/>
      <point x="263" y="147"/>
      <point x="362" y="220" type="curve"/>
      <point x="484" y="302"/>
      <point x="587" y="376"/>
      <point x="587" y="527" type="curve"/>
      <point x="587" y="663"/>
      <point x="490" y="727"/>
      <point x="347" y="727" type="curve"/>
      <point x="228" y="727"/>
      <point x="142" y="673"/>
      <point x="81" y="576" type="curve"/>
      <point x="101" y="562"/>
      <point x="81" y="576"/>
    </contour>
  </outline>
</glyph>
<glyph name="three" format="1">
  <advance width="647"/>
  <unicode hex="0033"/>
  <outline>
    <contour>
      <point x="63" y="56" type="curve"/>
      <point x="143" y="16"/>
      <point x="208" y="-5"/>
      <point x="299" y="-5" type="curve"/>
      <point x="461" y="-5"/>
      <point x="582" y="42"/>
      <point x="582" y="195" type="curve"/>
      <point x="582" y="338"/>
      <point x="410" y="389"/>
      <point x="180" y="389" type="curve"/>
      <point x="180" y="371"/>
      <point x="180" y="388"/>
      <point x="180" y="370" type="curve"/>
      <point x="368" y="370"/>
      <point x="556" y="328"/>
      <point x="556" y="194" type="curve"/>
      <point x="556" y="57"/>
      <point x="431" y="23"/>
      <point x="300" y="23" type="curve"/>
      <point x="215" y="23"/>
      <point x="159" y="40"/>
      <point x="75" y="78" type="curve"/>
      <point x="63" y="56"/>
      <point x="75" y="78"/>
    </contour>
    <contour>
      <point x="87" y="624" type="curve"/>
      <point x="138" y="669"/>
      <point x="210" y="699"/>
      <point x="293" y="699" type="curve"/>
      <point x="419" y="699"/>
      <point x="514" y="665"/>
      <point x="514" y="556" type="curve"/>
      <point x="514" y="441"/>
      <point x="352" y="394"/>
      <point x="180" y="394" type="curve"/>
      <point x="180" y="376"/>
      <point x="180" y="393"/>
      <point x="180" y="375" type="curve"/>
      <point x="376" y="375"/>
      <point x="539" y="422"/>
      <point x="539" y="557" type="curve"/>
      <point x="539" y="681"/>
      <point x="434" y="727"/>
      <point x="295" y="727" type="curve"/>
      <point x="204" y="727"/>
      <point x="123" y="688"/>
      <point x="71" y="642" type="curve"/>
      <point x="87" y="624"/>
      <point x="71" y="642"/>
    </contour>
  </outline>
</glyph>
<glyph name="four" format="1">
  <advance width="777"/>
  <unicode hex="0034"/>
  <outline>
    <contour>
      <point x="468" y="23" type="line"/>
      <point x="305" y="23" type="line"/>
      <point x="305" y="0" type="line"/>
      <point x="468" y="0" type="line"/>
    </contour>
    <contour>
      <point x="468" y="0" type="line"/>
      <point x="631" y="0" type="line"/>
      <point x="631" y="23" type="line"/>
      <point x="468" y="23" type="line"/>
    </contour>
    <contour>
      <point x="49" y="267" type="line"/>
      <point x="475" y="706" type="line"/>
      <point x="457" y="722" type="line"/>
      <point x="34" y="289" type="line"/>
    </contour>
    <contour>
      <point x="723" y="289" type="line"/>
      <point x="34" y="289" type="line"/>
      <point x="34" y="264" type="line"/>
      <point x="723" y="264" type="line"/>
    </contour>
    <contour>
      <point x="483" y="1" type="line"/>
      <point x="483" y="722" type="line"/>
      <point x="457" y="722" type="line"/>
      <point x="457" y="1" type="line"/>
    </contour>
  </outline>
</glyph>
<glyph name="six" format="1">
  <advance width="693"/>
  <unicode hex="0036"/>
  <outline>
    <contour>
      <point x="86" y="230" type="curve"/>
      <point x="144" y="339"/>
      <point x="238" y="384"/>
      <point x="355" y="384" type="curve"/>
      <point x="492" y="384"/>
      <point x="589" y="330"/>
      <point x="589" y="202" type="curve"/>
      <point x="589" y="81"/>
      <point x="493" y="22"/>
      <point x="360" y="22" type="curve"/>
      <point x="201" y="22"/>
      <point x="90" y="95"/>
      <point x="90" y="242" type="curve"/>
      <point x="90" y="535"/>
      <point x="331" y="643"/>
      <point x="630" y="716" type="curve"/>
      <point x="624" y="737"/>
      <point x="630" y="716"/>
      <point x="624" y="737" type="curve"/>
      <point x="309" y="664"/>
      <point x="64" y="547"/>
      <point x="64" y="241" type="curve"/>
      <point x="64" y="78"/>
      <point x="186" y="-5"/>
      <point x="359" y="-5" type="curve"/>
      <point x="510" y="-5"/>
      <point x="616" y="64"/>
      <point x="616" y="203" type="curve"/>
      <point x="616" y="344"/>
      <point x="508" y="409"/>
      <point x="357" y="409" type="curve"/>
      <point x="222" y="409"/>
      <point x="122" y="354"/>
      <point x="68" y="241" type="curve"/>
      <point x="86" y="230"/>
      <point x="68" y="241"/>
    </contour>
  </outline>
</glyph>
<glyph name="seven" format="1">
  <advance width="682"/>
  <unicode hex="0037"/>
  <outline>
    <contour>
      <point x="77" y="581" type="line"/>
      <point x="77" y="701" type="line"/>
      <point x="54" y="701" type="line"/>
      <point x="54" y="581" type="line"/>
    </contour>
    <contour>
      <point x="54" y="699" type="line"/>
      <point x="662" y="699" type="line"/>
      <point x="662" y="722" type="line"/>
      <point x="54" y="722" type="line"/>
    </contour>
    <contour>
      <point x="647" y="722" type="line"/>
      <point x="106" y="0" type="line"/>
      <point x="137" y="0" type="line"/>
      <point x="662" y="699" type="line"/>
    </contour>
  </outline>
</glyph>
<glyph name="nine" format="1">
  <advance width="694"/>
  <unicode hex="0039"/>
  <outline>
    <contour>
      <point x="610" y="492" type="curve"/>
      <point x="550" y="383"/>
      <point x="467" y="337"/>
      <point x="341" y="337" type="curve"/>
      <point x="204" y="337"/>
      <point x="104" y="393"/>
      <point x="104" y="520" type="curve"/>
      <point x="104" y="643"/>
      <point x="202" y="701"/>
      <point x="334" y="701" type="curve"/>
      <point x="493" y="701"/>
      <point x="605" y="627"/>
      <point x="605" y="480" type="curve"/>
      <point x="605" y="187"/>
      <point x="371" y="55"/>
      <point x="65" y="9" type="curve"/>
      <point x="70" y="-15"/>
      <point x="65" y="9"/>
      <point x="70" y="-15" type="curve"/>
      <point x="391" y="30"/>
      <point x="629" y="175"/>
      <point x="629" y="481" type="curve"/>
      <point x="629" y="644"/>
      <point x="510" y="727"/>
      <point x="335" y="727" type="curve"/>
      <point x="185" y="727"/>
      <point x="79" y="659"/>
      <point x="79" y="519" type="curve"/>
      <point x="79" y="378"/>
      <point x="187" y="313"/>
      <point x="339" y="313" type="curve"/>
      <point x="473" y="313"/>
      <point x="574" y="366"/>
      <point x="623" y="485" type="curve"/>
      <point x="610" y="492"/>
      <point x="623" y="485"/>
    </contour>
  </outline>
</glyph>
<glyph name="colon" format="1">
  <advance width="221"/>
  <unicode hex="003A"/>
  <outline>
    <contour>
      <point x="129" y="426" type="curve"/>
      <point x="129" y="438"/>
      <point x="121" y="445"/>
      <point x="110" y="445" type="curve"/>
      <point x="98" y="445"/>
      <point x="91" y="438"/>
      <point x="91" y="426" type="curve"/>
      <point x="109" y="426"/>
      <point x="112" y="426"/>
      <point x="129" y="426" type="curve"/>
      <point x="129" y="415"/>
      <point x="121" y="408"/>
      <point x="110" y="408" type="curve"/>
      <point x="98" y="408"/>
      <point x="91" y="415"/>
      <point x="91" y="426" type="curve"/>
      <point x="109" y="426"/>
      <point x="112" y="426"/>
    </contour>
    <contour>
      <point x="129" y="13" type="curve"/>
      <point x="129" y="24"/>
      <point x="121" y="31"/>
      <point x="110" y="31" type="curve"/>
      <point x="98" y="31"/>
      <point x="91" y="24"/>
      <point x="91" y="13" type="curve"/>
      <point x="109" y="13"/>
      <point x="112" y="13"/>
      <point x="129" y="13" type="curve"/>
      <point x="129" y="1"/>
      <point x="121" y="-6"/>
      <point x="110" y="-6" type="curve"/>
      <point x="98" y="-6"/>
      <point x="91" y="1"/>
      <point x="91" y="13" type="curve"/>
      <point x="109" y="13"/>
      <point x="112" y="13"/>
    </contour>
  </outline>
</glyph>
<glyph name="semicolon" format="1">
  <advance width="268"/>
  <unicode hex="003B"/>
  <outline>
    <contour>
      <point x="97" y="-75" type="line"/>
      <point x="129" y="-49"/>
      <point x="157" y="-15"/>
      <point x="157" y="40" type="curve"/>
      <point x="157" y="61"/>
      <point x="153" y="80"/>
      <point x="133" y="80" type="curve"/>
      <point x="120" y="80"/>
      <point x="113" y="74"/>
      <point x="113" y="61" type="curve"/>
      <point x="113" y="51"/>
      <point x="117" y="45"/>
      <point x="129" y="40" type="curve"/>
      <point x="128" y="13"/>
      <point x="115" y="-29"/>
      <point x="82" y="-55" type="curve"/>
    </contour>
    <contour>
      <point x="151" y="427" type="curve"/>
      <point x="151" y="439"/>
      <point x="143" y="446"/>
      <point x="130" y="446" type="curve"/>
      <point x="119" y="446"/>
      <point x="112" y="439"/>
      <point x="112" y="427" type="curve"/>
      <point x="129" y="427"/>
      <point x="133" y="427"/>
      <point x="151" y="427" type="curve"/>
      <point x="151" y="416"/>
      <point x="143" y="409"/>
      <point x="130" y="409" type="curve"/>
      <point x="119" y="409"/>
      <point x="112" y="416"/>
      <point x="112" y="427" type="curve"/>
      <point x="129" y="427"/>
      <point x="133" y="427"/>
    </contour>
  </outline>
</glyph>
<glyph name="less" format="1">
  <advance width="899"/>
  <unicode hex="003C"/>
  <outline>
    <contour>
      <point x="825" y="583" type="curve"/>
      <point x="564" y="493"/>
      <point x="304" y="403"/>
      <point x="43" y="313" type="curve"/>
      <point x="43" y="287"/>
      <point x="43" y="313"/>
      <point x="43" y="287" type="curve"/>
      <point x="304" y="377"/>
      <point x="564" y="467"/>
      <point x="825" y="557" type="curve"/>
      <point x="825" y="583"/>
      <point x="825" y="557"/>
    </contour>
    <contour>
      <point x="839" y="49" type="curve"/>
      <point x="573" y="137"/>
      <point x="308" y="225"/>
      <point x="43" y="313" type="curve"/>
      <point x="43" y="287"/>
      <point x="43" y="313"/>
      <point x="43" y="287" type="curve"/>
      <point x="308" y="199"/>
      <point x="573" y="111"/>
      <point x="839" y="23" type="curve"/>
      <point x="839" y="49"/>
      <point x="839" y="23"/>
    </contour>
  </outline>
</glyph>
<glyph name="equal" format="1">
  <advance width="992"/>
  <unicode hex="003D"/>
  <outline>
    <contour>
      <point x="92" y="206" type="curve"/>
      <point x="361" y="206"/>
      <point x="630" y="206"/>
      <point x="900" y="206" type="curve"/>
      <point x="900" y="230"/>
      <point x="900" y="206"/>
      <point x="900" y="230" type="curve"/>
      <point x="630" y="230"/>
      <point x="361" y="230"/>
      <point x="92" y="230" type="curve"/>
      <point x="92" y="206"/>
      <point x="92" y="230"/>
    </contour>
    <contour>
      <point x="92" y="428" type="curve"/>
      <point x="361" y="428"/>
      <point x="630" y="428"/>
      <point x="900" y="428" type="curve"/>
      <point x="900" y="452"/>
      <point x="900" y="428"/>
      <point x="900" y="452" type="curve"/>
      <point x="630" y="452"/>
      <point x="361" y="452"/>
      <point x="92" y="452" type="curve"/>
      <point x="92" y="428"/>
      <point x="92" y="452"/>
    </contour>
  </outline>
</glyph>
<glyph name="greater" format="1">
  <advance width="898"/>
  <unicode hex="003E"/>
  <outline>
    <contour>
      <point x="72" y="23" type="curve"/>
      <point x="333" y="113"/>
      <point x="595" y="203"/>
      <point x="855" y="293" type="curve"/>
      <point x="855" y="319"/>
      <point x="855" y="293"/>
      <point x="855" y="319" type="curve"/>
      <point x="595" y="229"/>
      <point x="333" y="139"/>
      <point x="72" y="49" type="curve"/>
      <point x="72" y="23"/>
      <point x="72" y="49"/>
    </contour>
    <contour>
      <point x="60" y="557" type="curve"/>
      <point x="324" y="469"/>
      <point x="590" y="381"/>
      <point x="855" y="293" type="curve"/>
      <point x="855" y="319"/>
      <point x="855" y="293"/>
      <point x="855" y="319" type="curve"/>
      <point x="590" y="407"/>
      <point x="324" y="495"/>
      <point x="60" y="583" type="curve"/>
      <point x="60" y="557"/>
      <point x="60" y="583"/>
    </contour>
  </outline>
</glyph>
<glyph name="question" format="1">
  <advance width="565"/>
  <unicode hex="003F"/>
  <outline>
    <contour>
      <point x="223" y="335" type="curve"/>
      <point x="223" y="298"/>
      <point x="223" y="259"/>
      <point x="223" y="222" type="curve"/>
      <point x="249" y="222"/>
      <point x="223" y="222"/>
      <point x="249" y="222" type="curve"/>
      <point x="249" y="259"/>
      <point x="249" y="298"/>
      <point x="249" y="335" type="curve"/>
      <point x="223" y="335"/>
      <point x="249" y="335"/>
    </contour>
    <contour>
      <point x="81" y="628" type="line"/>
      <point x="123" y="661"/>
      <point x="183" y="687"/>
      <point x="252" y="687" type="curve"/>
      <point x="376" y="687"/>
      <point x="474" y="635"/>
      <point x="474" y="519" type="curve"/>
      <point x="474" y="391"/>
      <point x="364" y="335"/>
      <point x="224" y="335" type="curve"/>
      <point x="224" y="325"/>
      <point x="224" y="321"/>
      <point x="224" y="311" type="curve"/>
      <point x="378" y="311"/>
      <point x="498" y="378"/>
      <point x="498" y="519" type="curve"/>
      <point x="498" y="648"/>
      <point x="392" y="710"/>
      <point x="255" y="710" type="curve"/>
      <point x="179" y="710"/>
      <point x="114" y="683"/>
      <point x="67" y="647" type="curve"/>
    </contour>
    <contour>
      <point x="251" y="11" type="curve"/>
      <point x="251" y="21"/>
      <point x="246" y="26"/>
      <point x="237" y="26" type="curve"/>
      <point x="227" y="26"/>
      <point x="222" y="20"/>
      <point x="222" y="11" type="curve"/>
      <point x="251" y="11"/>
      <point x="222" y="11"/>
      <point x="251" y="11" type="curve"/>
      <point x="251" y="2"/>
      <point x="246" y="-3"/>
      <point x="237" y="-3" type="curve"/>
      <point x="227" y="-3"/>
      <point x="222" y="3"/>
      <point x="222" y="11" type="curve"/>
      <point x="251" y="11"/>
      <point x="222" y="11"/>
    </contour>
  </outline>
</glyph>
<glyph name="at" format="1">
  <advance width="991"/>
  <unicode hex="0040"/>
  <outline>
    <contour>
      <point x="717" y="-76" type="curve"/>
      <point x="643" y="-109"/>
      <point x="591" y="-113"/>
      <point x="511" y="-113" type="curve"/>
      <point x="261" y="-113"/>
      <point x="87" y="-14"/>
      <point x="87" y="216" type="curve"/>
      <point x="87" y="442"/>
      <point x="263" y="541"/>
      <point x="509" y="541" type="curve"/>
      <point x="741" y="541"/>
      <point x="902" y="437"/>
      <point x="902" y="222" type="curve"/>
      <point x="902" y="135"/>
      <point x="870" y="71"/>
      <point x="792" y="71" type="curve"/>
      <point x="713" y="71"/>
      <point x="678" y="134"/>
      <point x="678" y="221" type="curve"/>
      <point x="678" y="332"/>
      <point x="605" y="394"/>
      <point x="491" y="394" type="curve"/>
      <point x="369" y="394"/>
      <point x="290" y="336"/>
      <point x="290" y="222" type="curve"/>
      <point x="290" y="104"/>
      <point x="366" y="38"/>
      <point x="486" y="38" type="curve"/>
      <point x="594" y="38"/>
      <point x="653" y="104"/>
      <point x="673" y="211" type="curve"/>
      <point x="657" y="216"/>
      <point x="673" y="211"/>
      <point x="657" y="216" type="curve"/>
      <point x="630" y="121"/>
      <point x="584" y="61"/>
      <point x="491" y="61" type="curve"/>
      <point x="381" y="61"/>
      <point x="314" y="118"/>
      <point x="314" y="223" type="curve"/>
      <point x="314" y="323"/>
      <point x="385" y="371"/>
      <point x="488" y="371" type="curve"/>
      <point x="590" y="371"/>
      <point x="655" y="319"/>
      <point x="655" y="220" type="curve"/>
      <point x="655" y="121"/>
      <point x="697" y="50"/>
      <point x="790" y="50" type="curve"/>
      <point x="886" y="50"/>
      <point x="926" y="122"/>
      <point x="926" y="223" type="curve"/>
      <point x="926" y="455"/>
      <point x="758" y="565"/>
      <point x="511" y="565" type="curve"/>
      <point x="247" y="565"/>
      <point x="63" y="459"/>
      <point x="63" y="215" type="curve"/>
      <point x="63" y="-28"/>
      <point x="246" y="-136"/>
      <point x="509" y="-136" type="curve"/>
      <point x="595" y="-136"/>
      <point x="651" y="-129"/>
      <point x="729" y="-97" type="curve"/>
      <point x="717" y="-76"/>
      <point x="729" y="-97"/>
    </contour>
  </outline>
</glyph>
<glyph name="C" format="1">
  <advance width="841"/>
  <unicode hex="0043"/>
  <outline>
    <contour>
      <point x="475" y="825" type="move" name="top"/>
    </contour>
    <contour>
      <point x="449" y="9" type="move" name="bottom"/>
    </contour>
    <contour>
      <point x="746" y="655" type="curve"/>
      <point x="746" y="535"/>
      <point x="746" y="655"/>
      <point x="746" y="535" type="curve"/>
      <point x="769" y="535"/>
      <point x="746" y="535"/>
      <point x="769" y="535" type="curve"/>
      <point x="769" y="655"/>
      <point x="769" y="535"/>
      <point x="769" y="655" type="curve"/>
      <point x="746" y="655"/>
      <point x="769" y="655"/>
    </contour>
    <contour>
      <point x="769" y="655" type="curve"/>
      <point x="681" y="697"/>
      <point x="587" y="727"/>
      <point x="481" y="727" type="curve"/>
      <point x="230" y="727"/>
      <point x="70" y="590"/>
      <point x="70" y="344" type="curve"/>
      <point x="70" y="117"/>
      <point x="220" y="-5"/>
      <point x="454" y="-5" type="curve"/>
      <point x="591" y="-5"/>
      <point x="681" y="26"/>
      <point x="792" y="96" type="curve"/>
      <point x="777" y="114"/>
      <point x="792" y="96"/>
      <point x="777" y="114" type="curve"/>
      <point x="672" y="45"/>
      <point x="583" y="20"/>
      <point x="455" y="20" type="curve"/>
      <point x="237" y="20"/>
      <point x="95" y="135"/>
      <point x="95" y="345" type="curve"/>
      <point x="95" y="573"/>
      <point x="246" y="703"/>
      <point x="480" y="703" type="curve"/>
      <point x="580" y="703"/>
      <point x="672" y="678"/>
      <point x="755" y="637" type="curve"/>
      <point x="769" y="655"/>
      <point x="755" y="637"/>
    </contour>
  </outline>
</glyph>
<glyph name="G" format="1">
  <advance width="937"/>
  <unicode hex="0047"/>
  <outline>
    <contour>
      <point x="489" y="825" type="move" name="top"/>
    </contour>
    <contour>
      <point x="512" y="-4" type="move" name="bottom"/>
    </contour>
    <contour>
      <point x="819" y="642" type="curve"/>
      <point x="819" y="522"/>
      <point x="819" y="643"/>
      <point x="819" y="523" type="curve"/>
      <point x="842" y="523"/>
      <point x="819" y="523"/>
      <point x="842" y="523" type="curve"/>
      <point x="842" y="643"/>
      <point x="842" y="522"/>
      <point x="842" y="642" type="curve"/>
      <point x="819" y="642"/>
      <point x="842" y="642"/>
    </contour>
    <contour>
      <point x="854" y="320" type="curve"/>
      <point x="759" y="320"/>
      <point x="665" y="320"/>
      <point x="571" y="320" type="curve"/>
      <point x="571" y="297"/>
      <point x="571" y="320"/>
      <point x="571" y="297" type="curve"/>
      <point x="665" y="297"/>
      <point x="759" y="297"/>
      <point x="854" y="297" type="curve"/>
      <point x="854" y="320"/>
      <point x="854" y="297"/>
    </contour>
    <contour>
      <point x="863" y="77" type="curve"/>
      <point x="863" y="158"/>
      <point x="863" y="238"/>
      <point x="863" y="320" type="curve"/>
      <point x="839" y="320"/>
      <point x="863" y="320"/>
      <point x="839" y="320" type="curve"/>
      <point x="839" y="238"/>
      <point x="839" y="158"/>
      <point x="839" y="77" type="curve"/>
      <point x="863" y="77"/>
      <point x="839" y="77"/>
    </contour>
    <contour>
      <point x="842" y="642" type="curve"/>
      <point x="724" y="702"/>
      <point x="620" y="727"/>
      <point x="487" y="727" type="curve"/>
      <point x="235" y="727"/>
      <point x="68" y="607"/>
      <point x="68" y="365" type="curve"/>
      <point x="68" y="116"/>
      <point x="242" y="-5"/>
      <point x="501" y="-5" type="curve"/>
      <point x="644" y="-5"/>
      <point x="735" y="20"/>
      <point x="863" y="77" type="curve"/>
      <point x="850" y="94"/>
      <point x="863" y="77"/>
      <point x="850" y="94" type="curve"/>
      <point x="730" y="41"/>
      <point x="636" y="21"/>
      <point x="502" y="21" type="curve"/>
      <point x="258" y="21"/>
      <point x="93" y="134"/>
      <point x="93" y="367" type="curve"/>
      <point x="93" y="590"/>
      <point x="253" y="703"/>
      <point x="488" y="703" type="curve"/>
      <point x="615" y="703"/>
      <point x="715" y="679"/>
      <point x="829" y="623" type="curve"/>
      <point x="842" y="642"/>
      <point x="829" y="623"/>
    </contour>
  </outline>
</glyph>
<glyph name="I" format="1">
  <advance width="409"/>
  <unicode hex="0049"/>
  <outline>
    <contour>
      <point x="204" y="825" type="move" name="top"/>
    </contour>
    <contour>
      <point x="216" y="0" type="move" name="bottom"/>
    </contour>
    <contour>
      <point x="205" y="722" type="curve"/>
      <point x="149" y="722"/>
      <point x="97" y="722"/>
      <point x="42" y="722" type="curve"/>
      <point x="42" y="699"/>
      <point x="42" y="722"/>
      <point x="42" y="699" type="curve"/>
      <point x="207" y="699"/>
      <point x="40" y="699"/>
      <point x="205" y="699" type="curve"/>
      <point x="205" y="722"/>
      <point x="205" y="699"/>
    </contour>
    <contour>
      <point x="205" y="699" type="curve"/>
      <point x="371" y="699"/>
      <point x="203" y="699"/>
      <point x="369" y="699" type="curve"/>
      <point x="369" y="722"/>
      <point x="369" y="699"/>
      <point x="369" y="722" type="curve"/>
      <point x="313" y="722"/>
      <point x="260" y="722"/>
      <point x="205" y="722" type="curve"/>
      <point x="205" y="699"/>
      <point x="205" y="722"/>
    </contour>
    <contour>
      <point x="205" y="0" type="curve"/>
      <point x="260" y="0"/>
      <point x="313" y="0"/>
      <point x="369" y="0" type="curve"/>
      <point x="369" y="23"/>
      <point x="369" y="0"/>
      <point x="369" y="23" type="curve"/>
      <point x="203" y="23"/>
      <point x="371" y="23"/>
      <point x="205" y="23" type="curve"/>
      <point x="205" y="0"/>
      <point x="205" y="23"/>
    </contour>
    <contour>
      <point x="205" y="23" type="curve"/>
      <point x="40" y="23"/>
      <point x="207" y="23"/>
      <point x="42" y="23" type="curve"/>
      <point x="42" y="0"/>
      <point x="42" y="23"/>
      <point x="42" y="0" type="curve"/>
      <point x="97" y="0"/>
      <point x="149" y="0"/>
      <point x="205" y="0" type="curve"/>
      <point x="205" y="23"/>
      <point x="205" y="0"/>
    </contour>
    <contour>
      <point x="216" y="0" type="curve"/>
      <point x="216" y="241"/>
      <point x="216" y="481"/>
      <point x="216" y="722" type="curve"/>
      <point x="190" y="722"/>
      <point x="216" y="722"/>
      <point x="190" y="722" type="curve"/>
      <point x="190" y="481"/>
      <point x="190" y="241"/>
      <point x="190" y="0" type="curve"/>
      <point x="216" y="0"/>
      <point x="190" y="0"/>
    </contour>
  </outline>
</glyph>
<glyph name="J" format="1">
  <advance width="579"/>
  <unicode hex="004A"/>
  <outline>
    <contour>
      <point x="406" y="722" type="curve"/>
      <point x="354" y="722"/>
      <point x="303" y="722"/>
      <point x="252" y="722" type="curve"/>
      <point x="252" y="699"/>
      <point x="252" y="722"/>
      <point x="252" y="699" type="curve"/>
      <point x="408" y="699"/>
      <point x="249" y="699"/>
      <point x="406" y="699" type="curve"/>
      <point x="406" y="722"/>
      <point x="406" y="699"/>
    </contour>
    <contour>
      <point x="406" y="699" type="curve"/>
      <point x="556" y="699"/>
      <point x="404" y="699"/>
      <point x="554" y="699" type="curve"/>
      <point x="554" y="722"/>
      <point x="554" y="699"/>
      <point x="554" y="722" type="curve"/>
      <point x="503" y="722"/>
      <point x="456" y="722"/>
      <point x="406" y="722" type="curve"/>
      <point x="406" y="699"/>
      <point x="406" y="722"/>
    </contour>
    <contour>
      <point x="33" y="43" type="curve"/>
      <point x="70" y="22"/>
      <point x="121" y="-1"/>
      <point x="183" y="-1" type="curve"/>
      <point x="329" y="-1"/>
      <point x="417" y="76"/>
      <point x="417" y="219" type="curve"/>
      <point x="417" y="388"/>
      <point x="417" y="552"/>
      <point x="417" y="722" type="curve"/>
      <point x="393" y="722"/>
      <point x="416" y="722"/>
      <point x="392" y="722" type="curve"/>
      <point x="392" y="552"/>
      <point x="392" y="388"/>
      <point x="392" y="219" type="curve"/>
      <point x="392" y="93"/>
      <point x="312" y="23"/>
      <point x="183" y="23" type="curve"/>
      <point x="128" y="23"/>
      <point x="90" y="40"/>
      <point x="44" y="61" type="curve"/>
      <point x="34" y="44"/>
      <point x="43" y="59"/>
    </contour>
  </outline>
</glyph>
<glyph name="K" format="1">
  <advance width="882"/>
  <unicode hex="004B"/>
  <outline>
    <contour>
      <point x="500" y="-6" type="move" name="bottom"/>
    </contour>
    <contour>
      <point x="683" y="722" type="curve"/>
      <point x="628" y="722"/>
      <point x="576" y="722"/>
      <point x="521" y="722" type="curve"/>
      <point x="521" y="699"/>
      <point x="521" y="722"/>
      <point x="521" y="699" type="curve"/>
      <point x="686" y="699"/>
      <point x="518" y="699"/>
      <point x="683" y="699" type="curve"/>
      <point x="683" y="722"/>
      <point x="683" y="699"/>
    </contour>
    <contour>
      <point x="717" y="0" type="curve"/>
      <point x="770" y="0"/>
      <point x="818" y="0"/>
      <point x="871" y="0" type="curve"/>
      <point x="871" y="23"/>
      <point x="871" y="0"/>
      <point x="871" y="23" type="curve"/>
      <point x="714" y="23"/>
      <point x="874" y="23"/>
      <point x="717" y="23" type="curve"/>
      <point x="717" y="0"/>
      <point x="717" y="23"/>
    </contour>
    <contour>
      <point x="683" y="699" type="curve"/>
      <point x="841" y="699"/>
      <point x="680" y="699"/>
      <point x="837" y="699" type="curve"/>
      <point x="837" y="722"/>
      <point x="837" y="699"/>
      <point x="837" y="722" type="curve"/>
      <point x="784" y="722"/>
      <point x="736" y="722"/>
      <point x="683" y="722" type="curve"/>
      <point x="683" y="699"/>
      <point x="683" y="722"/>
    </contour>
    <contour>
      <point x="205" y="722" type="curve"/>
      <point x="150" y="722"/>
      <point x="98" y="722"/>
      <point x="42" y="722" type="curve"/>
      <point x="42" y="699"/>
      <point x="42" y="722"/>
      <point x="42" y="699" type="curve"/>
      <point x="207" y="699"/>
      <point x="40" y="699"/>
      <point x="205" y="699" type="curve"/>
      <point x="205" y="722"/>
      <point x="205" y="699"/>
    </contour>
    <contour>
      <point x="205" y="699" type="curve"/>
      <point x="371" y="699"/>
      <point x="202" y="699"/>
      <point x="368" y="699" type="curve"/>
      <point x="368" y="722"/>
      <point x="368" y="699"/>
      <point x="368" y="722" type="curve"/>
      <point x="313" y="722"/>
      <point x="261" y="722"/>
      <point x="205" y="722" type="curve"/>
      <point x="205" y="699"/>
      <point x="205" y="722"/>
    </contour>
    <contour>
      <point x="205" y="0" type="curve"/>
      <point x="261" y="0"/>
      <point x="202" y="0"/>
      <point x="368" y="0" type="curve"/>
      <point x="368" y="23"/>
      <point x="368" y="0"/>
      <point x="368" y="23" type="curve"/>
      <point x="202" y="23"/>
      <point x="371" y="23"/>
      <point x="205" y="23" type="curve"/>
      <point x="205" y="0"/>
      <point x="205" y="23"/>
    </contour>
    <contour>
      <point x="205" y="23" type="curve"/>
      <point x="40" y="23"/>
      <point x="207" y="23"/>
      <point x="42" y="23" type="curve"/>
      <point x="42" y="0"/>
      <point x="42" y="23"/>
      <point x="42" y="0" type="curve"/>
      <point x="98" y="0"/>
      <point x="150" y="0"/>
      <point x="205" y="0" type="curve"/>
      <point x="205" y="23"/>
      <point x="205" y="0"/>
    </contour>
    <contour>
      <point x="686" y="722" type="curve"/>
      <point x="205" y="380" type="line"/>
      <point x="244" y="380"/>
      <point x="208" y="380"/>
      <point x="248" y="380" type="curve"/>
      <point x="728" y="722" type="line"/>
      <point x="688" y="722"/>
      <point x="725" y="722"/>
    </contour>
    <contour>
      <point x="219" y="0" type="curve"/>
      <point x="219" y="722" type="line"/>
      <point x="192" y="722"/>
      <point x="219" y="722"/>
      <point x="192" y="722" type="curve"/>
      <point x="192" y="481"/>
      <point x="192" y="241"/>
      <point x="192" y="0" type="curve"/>
      <point x="219" y="0"/>
      <point x="192" y="0"/>
    </contour>
    <contour>
      <point x="761" y="1" type="curve"/>
      <point x="248" y="380" type="line"/>
      <point x="208" y="380"/>
      <point x="244" y="380"/>
      <point x="205" y="380" type="curve"/>
      <point x="716" y="0" type="line"/>
      <point x="758" y="0"/>
      <point x="718" y="1"/>
    </contour>
  </outline>
</glyph>
<glyph name="M" format="1">
  <advance width="1265"/>
  <unicode hex="004D"/>
  <outline>
    <contour>
      <point x="1075" y="0" type="curve"/>
      <point x="1131" y="0"/>
      <point x="1183" y="0"/>
      <point x="1238" y="0" type="curve"/>
      <point x="1238" y="23"/>
      <point x="1238" y="0"/>
      <point x="1238" y="23" type="curve"/>
      <point x="1073" y="23"/>
      <point x="1241" y="23"/>
      <point x="1075" y="23" type="curve"/>
      <point x="1075" y="0"/>
      <point x="1075" y="23"/>
    </contour>
    <contour>
      <point x="1075" y="23" type="curve"/>
      <point x="909" y="23"/>
      <point x="1078" y="23"/>
      <point x="912" y="23" type="curve"/>
      <point x="912" y="0"/>
      <point x="912" y="23"/>
      <point x="912" y="0" type="curve"/>
      <point x="968" y="0"/>
      <point x="1020" y="0"/>
      <point x="1075" y="0" type="curve"/>
      <point x="1075" y="23"/>
      <point x="1075" y="0"/>
    </contour>
    <contour>
      <point x="190" y="23" type="curve"/>
      <point x="25" y="23"/>
      <point x="192" y="23"/>
      <point x="27" y="23" type="curve"/>
      <point x="27" y="0"/>
      <point x="27" y="23"/>
      <point x="27" y="0" type="curve"/>
      <point x="82" y="0"/>
      <point x="135" y="0"/>
      <point x="190" y="0" type="curve"/>
      <point x="190" y="23"/>
      <point x="190" y="0"/>
    </contour>
    <contour>
      <point x="266" y="722" type="curve"/>
      <point x="211" y="722"/>
      <point x="158" y="722"/>
      <point x="103" y="722" type="curve"/>
      <point x="103" y="699"/>
      <point x="103" y="722"/>
      <point x="103" y="699" type="curve"/>
      <point x="268" y="699"/>
      <point x="101" y="699"/>
      <point x="266" y="699" type="curve"/>
      <point x="266" y="722"/>
      <point x="266" y="699"/>
    </contour>
    <contour>
      <point x="997" y="699" type="curve"/>
      <point x="1163" y="699"/>
      <point x="994" y="699"/>
      <point x="1161" y="699" type="curve"/>
      <point x="1161" y="722"/>
      <point x="1161" y="699"/>
      <point x="1161" y="722" type="curve"/>
      <point x="1105" y="722"/>
      <point x="1052" y="722"/>
      <point x="997" y="722" type="curve"/>
      <point x="997" y="699"/>
      <point x="997" y="722"/>
    </contour>
    <contour>
      <point x="190" y="0" type="curve"/>
      <point x="245" y="0"/>
      <point x="188" y="0"/>
      <point x="354" y="0" type="curve"/>
      <point x="354" y="23"/>
      <point x="354" y="0"/>
      <point x="354" y="23" type="curve"/>
      <point x="188" y="23"/>
      <point x="356" y="23"/>
      <point x="190" y="23" type="curve"/>
      <point x="190" y="0"/>
      <point x="190" y="23"/>
    </contour>
    <contour>
      <point x="1087" y="0" type="curve"/>
      <point x="1060" y="241"/>
      <point x="1033" y="481"/>
      <point x="1007" y="722" type="curve"/>
      <point x="984" y="722"/>
      <point x="1007" y="722"/>
      <point x="984" y="722" type="curve"/>
      <point x="1010" y="481"/>
      <point x="1036" y="241"/>
      <point x="1062" y="0" type="curve"/>
      <point x="1087" y="0"/>
      <point x="1062" y="0"/>
    </contour>
    <contour>
      <point x="202" y="0" type="curve"/>
      <point x="226" y="241"/>
      <point x="250" y="481"/>
      <point x="275" y="722" type="curve"/>
      <point x="252" y="722"/>
      <point x="275" y="722"/>
      <point x="252" y="722" type="curve"/>
      <point x="227" y="481"/>
      <point x="201" y="241"/>
      <point x="176" y="0" type="curve"/>
      <point x="202" y="0"/>
      <point x="176" y="0"/>
    </contour>
    <contour>
      <point x="641" y="0" type="curve"/>
      <point x="522" y="241"/>
      <point x="402" y="481"/>
      <point x="279" y="722" type="curve"/>
      <point x="256" y="722"/>
      <point x="277" y="722"/>
      <point x="254" y="722" type="curve"/>
      <point x="374" y="481"/>
      <point x="494" y="241"/>
      <point x="614" y="0" type="curve"/>
      <point x="639" y="0"/>
      <point x="616" y="0"/>
    </contour>
    <contour>
      <point x="651" y="0" type="curve"/>
      <point x="769" y="241"/>
      <point x="887" y="481"/>
      <point x="1005" y="722" type="curve"/>
      <point x="982" y="722"/>
      <point x="1003" y="722"/>
      <point x="980" y="722" type="curve"/>
      <point x="859" y="481"/>
      <point x="742" y="241"/>
      <point x="623" y="0" type="curve"/>
      <point x="649" y="0"/>
      <point x="625" y="0"/>
    </contour>
  </outline>
</glyph>
<glyph name="N" format="1">
  <advance width="1088"/>
  <unicode hex="004E"/>
  <outline>
    <contour>
      <point x="549" y="825" type="move" name="top"/>
    </contour>
    <contour>
      <point x="576" y="-3" type="move" name="bottom"/>
    </contour>
    <contour>
      <point x="207" y="722" type="curve"/>
      <point x="152" y="722"/>
      <point x="99" y="722"/>
      <point x="44" y="722" type="curve"/>
      <point x="44" y="699"/>
      <point x="44" y="722"/>
      <point x="44" y="699" type="curve"/>
      <point x="209" y="699"/>
      <point x="42" y="699"/>
      <point x="207" y="699" type="curve"/>
      <point x="207" y="722"/>
      <point x="207" y="699"/>
    </contour>
    <contour>
      <point x="901" y="699" type="curve"/>
      <point x="1066" y="699"/>
      <point x="898" y="699"/>
      <point x="1064" y="699" type="curve"/>
      <point x="1064" y="722"/>
      <point x="1064" y="699"/>
      <point x="1064" y="722" type="curve"/>
      <point x="1009" y="722"/>
      <point x="956" y="722"/>
      <point x="901" y="722" type="curve"/>
      <point x="901" y="699"/>
      <point x="901" y="722"/>
    </contour>
    <contour>
      <point x="901" y="722" type="curve"/>
      <point x="846" y="722"/>
      <point x="792" y="722"/>
      <point x="738" y="722" type="curve"/>
      <point x="738" y="699"/>
      <point x="738" y="722"/>
      <point x="738" y="699" type="curve"/>
      <point x="903" y="699"/>
      <point x="736" y="699"/>
      <point x="901" y="699" type="curve"/>
      <point x="901" y="722"/>
      <point x="901" y="699"/>
    </contour>
    <contour>
      <point x="206" y="23" type="curve"/>
      <point x="41" y="23"/>
      <point x="208" y="23"/>
      <point x="43" y="23" type="curve"/>
      <point x="42" y="0"/>
      <point x="43" y="23"/>
      <point x="42" y="0" type="curve"/>
      <point x="98" y="0"/>
      <point x="150" y="0"/>
      <point x="206" y="0" type="curve"/>
      <point x="206" y="23"/>
      <point x="206" y="0"/>
    </contour>
    <contour>
      <point x="206" y="0" type="curve"/>
      <point x="261" y="0"/>
      <point x="204" y="0"/>
      <point x="369" y="0" type="curve"/>
      <point x="369" y="23"/>
      <point x="369" y="0"/>
      <point x="369" y="23" type="curve"/>
      <point x="204" y="23"/>
      <point x="371" y="23"/>
      <point x="206" y="23" type="curve"/>
      <point x="206" y="0"/>
      <point x="206" y="23"/>
    </contour>
    <contour>
      <point x="912" y="0" type="curve"/>
      <point x="683" y="241"/>
      <point x="453" y="481"/>
      <point x="225" y="722" type="curve"/>
      <point x="193" y="722"/>
      <point x="221" y="722"/>
      <point x="189" y="722" type="curve"/>
      <point x="419" y="481"/>
      <point x="648" y="241"/>
      <point x="878" y="0" type="curve"/>
      <point x="909" y="0"/>
      <point x="881" y="0"/>
    </contour>
    <contour>
      <point x="886" y="722" type="curve"/>
      <point x="886" y="481"/>
      <point x="886" y="241"/>
      <point x="886" y="0" type="curve"/>
      <point x="913" y="0"/>
      <point x="886" y="0"/>
      <point x="913" y="0" type="curve"/>
      <point x="913" y="241"/>
      <point x="913" y="481"/>
      <point x="913" y="722" type="curve"/>
      <point x="886" y="722"/>
      <point x="913" y="722"/>
    </contour>
    <contour>
      <point x="219" y="0" type="curve"/>
      <point x="219" y="241"/>
      <point x="219" y="481"/>
      <point x="219" y="722" type="curve"/>
      <point x="192" y="722"/>
      <point x="219" y="722"/>
      <point x="192" y="722" type="curve"/>
      <point x="192" y="481"/>
      <point x="192" y="241"/>
      <point x="192" y="0" type="curve"/>
      <point x="219" y="0"/>
      <point x="192" y="0"/>
    </contour>
  </outline>
</glyph>
<glyph name="O" format="1">
  <advance width="908"/>
  <unicode hex="004F"/>
  <outline>
    <contour>
      <point x="452" y="825" type="move" name="top"/>
    </contour>
    <contour>
      <point x="95" y="360" type="curve"/>
      <point x="95" y="572"/>
      <point x="236" y="704"/>
      <point x="452" y="704" type="curve"/>
      <point x="669" y="704"/>
      <point x="811" y="574"/>
      <point x="811" y="363" type="curve"/>
      <point x="811" y="152"/>
      <point x="671" y="19"/>
      <point x="455" y="19" type="curve"/>
      <point x="238" y="19"/>
      <point x="95" y="148"/>
      <point x="95" y="360" type="curve"/>
      <point x="70" y="360"/>
      <point x="95" y="360"/>
      <point x="70" y="360" type="curve"/>
      <point x="70" y="132"/>
      <point x="223" y="-5"/>
      <point x="454" y="-5" type="curve"/>
      <point x="686" y="-5"/>
      <point x="838" y="134"/>
      <point x="838" y="363" type="curve"/>
      <point x="838" y="590"/>
      <point x="685" y="727"/>
      <point x="453" y="727" type="curve"/>
      <point x="221" y="727"/>
      <point x="70" y="588"/>
      <point x="70" y="360" type="curve"/>
      <point x="95" y="360"/>
      <point x="70" y="360"/>
    </contour>
  </outline>
</glyph>
<glyph name="P" format="1">
  <advance width="744"/>
  <unicode hex="0050"/>
  <outline>
    <contour>
      <point x="206" y="722" type="curve"/>
      <point x="151" y="722"/>
      <point x="98" y="722"/>
      <point x="43" y="722" type="curve"/>
      <point x="43" y="699"/>
      <point x="43" y="722"/>
      <point x="43" y="699" type="curve"/>
      <point x="208" y="699"/>
      <point x="41" y="699"/>
      <point x="206" y="699" type="curve"/>
      <point x="206" y="722"/>
      <point x="206" y="699"/>
    </contour>
    <contour>
      <point x="206" y="23" type="curve"/>
      <point x="41" y="23"/>
      <point x="208" y="23"/>
      <point x="43" y="23" type="curve"/>
      <point x="43" y="0"/>
      <point x="43" y="23"/>
      <point x="43" y="0" type="curve"/>
      <point x="98" y="0"/>
      <point x="151" y="0"/>
      <point x="206" y="0" type="curve"/>
      <point x="206" y="23"/>
      <point x="206" y="0"/>
    </contour>
    <contour>
      <point x="206" y="0" type="curve"/>
      <point x="260" y="0"/>
      <point x="204" y="0"/>
      <point x="368" y="0" type="curve"/>
      <point x="368" y="23"/>
      <point x="368" y="0"/>
      <point x="368" y="23" type="curve"/>
      <point x="204" y="23"/>
      <point x="370" y="23"/>
      <point x="206" y="23" type="curve"/>
      <point x="206" y="0"/>
      <point x="206" y="23"/>
    </contour>
    <contour>
      <point x="204" y="326" type="curve"/>
      <point x="271" y="299"/>
      <point x="332" y="280"/>
      <point x="406" y="280" type="curve"/>
      <point x="564" y="283"/>
      <point x="685" y="349"/>
      <point x="685" y="494" type="curve"/>
      <point x="685" y="651"/>
      <point x="548" y="722"/>
      <point x="374" y="722" type="curve"/>
      <point x="319" y="722"/>
      <point x="264" y="722"/>
      <point x="210" y="722" type="curve"/>
      <point x="210" y="699"/>
      <point x="210" y="722"/>
      <point x="210" y="699" type="curve"/>
      <point x="263" y="699"/>
      <point x="317" y="699"/>
      <point x="371" y="699" type="curve"/>
      <point x="532" y="699"/>
      <point x="659" y="638"/>
      <point x="659" y="493" type="curve"/>
      <point x="659" y="363"/>
      <point x="549" y="303"/>
      <point x="408" y="303" type="curve"/>
      <point x="333" y="303"/>
      <point x="280" y="319"/>
      <point x="213" y="346" type="curve"/>
      <point x="204" y="326"/>
      <point x="213" y="346"/>
    </contour>
    <contour>
      <point x="218" y="0" type="curve"/>
      <point x="218" y="241"/>
      <point x="218" y="481"/>
      <point x="218" y="722" type="curve"/>
      <point x="192" y="722"/>
      <point x="218" y="722"/>
      <point x="192" y="722" type="curve"/>
      <point x="192" y="481"/>
      <point x="192" y="241"/>
      <point x="192" y="0" type="curve"/>
      <point x="218" y="0"/>
      <point x="192" y="0"/>
    </contour>
  </outline>
</glyph>
<glyph name="Q" format="1">
  <advance width="977"/>
  <unicode hex="0051"/>
  <outline>
    <contour>
      <point x="455" y="4" type="curve"/>
      <point x="594" y="-192"/>
      <point x="747" y="-240"/>
      <point x="976" y="-240" type="curve"/>
      <point x="976" y="-216"/>
      <point x="976" y="-240"/>
      <point x="976" y="-216" type="curve"/>
      <point x="758" y="-216"/>
      <point x="612" y="-171"/>
      <point x="477" y="16" type="curve"/>
      <point x="455" y="4"/>
      <point x="477" y="16"/>
    </contour>
    <contour>
      <point x="96" y="360" type="curve"/>
      <point x="96" y="572"/>
      <point x="238" y="702"/>
      <point x="455" y="702" type="curve"/>
      <point x="672" y="702"/>
      <point x="814" y="574"/>
      <point x="814" y="363" type="curve"/>
      <point x="814" y="151"/>
      <point x="674" y="20"/>
      <point x="458" y="20" type="curve"/>
      <point x="239" y="20"/>
      <point x="96" y="148"/>
      <point x="96" y="360" type="curve"/>
      <point x="70" y="360"/>
      <point x="96" y="360"/>
      <point x="70" y="360" type="curve"/>
      <point x="70" y="132"/>
      <point x="224" y="-5"/>
      <point x="457" y="-5" type="curve"/>
      <point x="689" y="-5"/>
      <point x="841" y="135"/>
      <point x="841" y="364" type="curve"/>
      <point x="841" y="591"/>
      <point x="688" y="727"/>
      <point x="456" y="727" type="curve"/>
      <point x="224" y="727"/>
      <point x="70" y="588"/>
      <point x="70" y="360" type="curve"/>
      <point x="96" y="360"/>
      <point x="70" y="360"/>
    </contour>
  </outline>
</glyph>
<glyph name="S" format="1">
  <advance width="688"/>
  <unicode hex="0053"/>
  <outline>
    <contour>
      <point x="346" y="825" type="move" name="top"/>
    </contour>
    <contour>
      <point x="354" y="-6" type="move" name="bottom"/>
    </contour>
    <contour>
      <point x="560" y="663" type="curve"/>
      <point x="560" y="543"/>
      <point x="560" y="664"/>
      <point x="560" y="544" type="curve"/>
      <point x="583" y="544"/>
      <point x="560" y="544"/>
      <point x="583" y="544" type="curve"/>
      <point x="583" y="664"/>
      <point x="583" y="543"/>
      <point x="583" y="663" type="curve"/>
      <point x="560" y="663"/>
      <point x="583" y="663"/>
    </contour>
    <contour>
      <point x="97" y="58" type="curve"/>
      <point x="97" y="178"/>
      <point x="97" y="57"/>
      <point x="97" y="177" type="curve"/>
      <point x="74" y="177"/>
      <point x="97" y="177"/>
      <point x="74" y="177" type="curve"/>
      <point x="74" y="57"/>
      <point x="74" y="178"/>
      <point x="74" y="58" type="curve"/>
      <point x="97" y="58"/>
      <point x="74" y="58"/>
    </contour>
    <contour>
      <point x="74" y="58" type="curve"/>
      <point x="158" y="17"/>
      <point x="246" y="-5"/>
      <point x="340" y="-5" type="curve"/>
      <point x="497" y="-5"/>
      <point x="612" y="33"/>
      <point x="612" y="169" type="curve"/>
      <point x="612" y="301"/>
      <point x="490" y="333"/>
      <point x="361" y="383" type="curve"/>
      <point x="247" y="425"/>
      <point x="132" y="450"/>
      <point x="132" y="563" type="curve"/>
      <point x="132" y="663"/>
      <point x="229" y="705"/>
      <point x="343" y="705" type="curve"/>
      <point x="429" y="705"/>
      <point x="493" y="681"/>
      <point x="571" y="645" type="curve"/>
      <point x="582" y="662"/>
      <point x="572" y="646"/>
      <point x="583" y="663" type="curve"/>
      <point x="501" y="702"/>
      <point x="435" y="727"/>
      <point x="345" y="727" type="curve"/>
      <point x="214" y="727"/>
      <point x="107" y="677"/>
      <point x="107" y="562" type="curve"/>
      <point x="107" y="438"/>
      <point x="224" y="409"/>
      <point x="346" y="363" type="curve"/>
      <point x="468" y="318"/>
      <point x="587" y="287"/>
      <point x="587" y="169" type="curve"/>
      <point x="587" y="51"/>
      <point x="481" y="20"/>
      <point x="341" y="20" type="curve"/>
      <point x="251" y="20"/>
      <point x="168" y="42"/>
      <point x="88" y="79" type="curve"/>
      <point x="74" y="59"/>
      <point x="87" y="78"/>
    </contour>
  </outline>
</glyph>
<glyph name="T" format="1">
  <advance width="896"/>
  <unicode hex="0054"/>
  <outline>
    <contour>
      <point x="447" y="825" type="move" name="top"/>
    </contour>
    <contour>
      <point x="460" y="-8" type="move" name="bottom"/>
    </contour>
    <contour>
      <point x="51" y="710" type="curve"/>
      <point x="51" y="590"/>
      <point x="51" y="711"/>
      <point x="51" y="591" type="curve"/>
      <point x="74" y="591"/>
      <point x="51" y="591"/>
      <point x="74" y="591" type="curve"/>
      <point x="74" y="711"/>
      <point x="74" y="590"/>
      <point x="74" y="710" type="curve"/>
      <point x="51" y="710"/>
      <point x="74" y="710"/>
    </contour>
    <contour>
      <point x="824" y="710" type="curve"/>
      <point x="824" y="590"/>
      <point x="824" y="711"/>
      <point x="824" y="591" type="curve"/>
      <point x="847" y="591"/>
      <point x="824" y="591"/>
      <point x="847" y="591" type="curve"/>
      <point x="847" y="711"/>
      <point x="847" y="590"/>
      <point x="847" y="710" type="curve"/>
      <point x="824" y="710"/>
      <point x="847" y="710"/>
    </contour>
    <contour>
      <point x="448" y="0" type="curve"/>
      <point x="503" y="0"/>
      <point x="557" y="0"/>
      <point x="611" y="0" type="curve"/>
      <point x="611" y="23"/>
      <point x="611" y="0"/>
      <point x="611" y="23" type="curve"/>
      <point x="447" y="23"/>
      <point x="612" y="23"/>
      <point x="448" y="23" type="curve"/>
      <point x="448" y="0"/>
      <point x="448" y="23"/>
    </contour>
    <contour>
      <point x="448" y="23" type="curve"/>
      <point x="283" y="23"/>
      <point x="449" y="23"/>
      <point x="284" y="23" type="curve"/>
      <point x="284" y="0"/>
      <point x="284" y="23"/>
      <point x="284" y="0" type="curve"/>
      <point x="340" y="0"/>
      <point x="393" y="0"/>
      <point x="448" y="0" type="curve"/>
      <point x="448" y="23"/>
      <point x="448" y="0"/>
    </contour>
    <contour>
      <point x="462" y="0" type="curve"/>
      <point x="462" y="237"/>
      <point x="462" y="473"/>
      <point x="462" y="710" type="curve"/>
      <point x="437" y="710"/>
      <point x="462" y="710"/>
      <point x="437" y="710" type="curve"/>
      <point x="437" y="473"/>
      <point x="437" y="237"/>
      <point x="437" y="0" type="curve"/>
      <point x="462" y="0"/>
      <point x="437" y="0"/>
    </contour>
    <contour>
      <point x="51" y="697" type="curve"/>
      <point x="316" y="697"/>
      <point x="582" y="697"/>
      <point x="847" y="697" type="curve"/>
      <point x="847" y="722"/>
      <point x="847" y="697"/>
      <point x="847" y="722" type="curve"/>
      <point x="582" y="722"/>
      <point x="316" y="722"/>
      <point x="51" y="722" type="curve"/>
      <point x="51" y="697"/>
      <point x="51" y="722"/>
    </contour>
  </outline>
</glyph>
<glyph name="V" format="1">
  <advance width="1021"/>
  <unicode hex="0056"/>
  <outline>
    <contour>
      <point x="839" y="722" type="curve"/>
      <point x="783" y="722"/>
      <point x="727" y="722"/>
      <point x="671" y="722" type="curve"/>
      <point x="671" y="699"/>
      <point x="671" y="722"/>
      <point x="671" y="699" type="curve"/>
      <point x="840" y="699"/>
      <point x="670" y="699"/>
      <point x="839" y="699" type="curve"/>
      <point x="839" y="722"/>
      <point x="839" y="699"/>
    </contour>
    <contour>
      <point x="144" y="722" type="curve"/>
      <point x="89" y="722"/>
      <point x="35" y="722"/>
      <point x="-20" y="722" type="curve"/>
      <point x="-20" y="699"/>
      <point x="-20" y="722"/>
      <point x="-20" y="699" type="curve"/>
      <point x="145" y="699"/>
      <point x="-21" y="699"/>
      <point x="144" y="699" type="curve"/>
      <point x="144" y="722"/>
      <point x="144" y="699"/>
    </contour>
    <contour>
      <point x="840" y="699" type="curve"/>
      <point x="1003" y="699"/>
      <point x="839" y="699"/>
      <point x="1003" y="699" type="curve"/>
      <point x="1003" y="722"/>
      <point x="1003" y="699"/>
      <point x="1003" y="722" type="curve"/>
      <point x="948" y="722"/>
      <point x="895" y="722"/>
      <point x="840" y="722" type="curve"/>
      <point x="840" y="699"/>
      <point x="840" y="722"/>
    </contour>
    <contour>
      <point x="144" y="699" type="curve"/>
      <point x="314" y="699"/>
      <point x="143" y="699"/>
      <point x="313" y="699" type="curve"/>
      <point x="313" y="722"/>
      <point x="313" y="699"/>
      <point x="313" y="722" type="curve"/>
      <point x="256" y="722"/>
      <point x="201" y="722"/>
      <point x="144" y="722" type="curve"/>
      <point x="144" y="699"/>
      <point x="144" y="722"/>
    </contour>
    <contour>
      <point x="841" y="722" type="curve"/>
      <point x="722" y="481"/>
      <point x="603" y="241"/>
      <point x="484" y="0" type="curve"/>
      <point x="513" y="0"/>
      <point x="484" y="0"/>
      <point x="512" y="0" type="curve"/>
      <point x="631" y="241"/>
      <point x="750" y="481"/>
      <point x="869" y="722" type="curve"/>
      <point x="841" y="722"/>
      <point x="869" y="722"/>
    </contour>
    <contour>
      <point x="114" y="722" type="curve"/>
      <point x="235" y="481"/>
      <point x="356" y="241"/>
      <point x="477" y="0" type="curve"/>
      <point x="505" y="0"/>
      <point x="478" y="0"/>
      <point x="506" y="0" type="curve"/>
      <point x="386" y="241"/>
      <point x="265" y="481"/>
      <point x="145" y="722" type="curve"/>
      <point x="115" y="722"/>
      <point x="144" y="722"/>
    </contour>
  </outline>
</glyph>
<glyph name="W" format="1">
  <advance width="1277"/>
  <unicode hex="0057"/>
  <outline>
    <contour>
      <point x="155" y="699" type="curve"/>
      <point x="320" y="699"/>
      <point x="154" y="699"/>
      <point x="319" y="699" type="curve"/>
      <point x="319" y="722"/>
      <point x="319" y="699"/>
      <point x="319" y="722" type="curve"/>
      <point x="264" y="722"/>
      <point x="210" y="722"/>
      <point x="155" y="722" type="curve"/>
      <point x="155" y="699"/>
      <point x="155" y="722"/>
    </contour>
    <contour>
      <point x="155" y="722" type="curve"/>
      <point x="101" y="722"/>
      <point x="46" y="722"/>
      <point x="-8" y="722" type="curve"/>
      <point x="-8" y="699"/>
      <point x="-8" y="722"/>
      <point x="-8" y="699" type="curve"/>
      <point x="156" y="699"/>
      <point x="-9" y="699"/>
      <point x="155" y="699" type="curve"/>
      <point x="155" y="722"/>
      <point x="155" y="699"/>
    </contour>
    <contour>
      <point x="1102" y="722" type="curve"/>
      <point x="1046" y="722"/>
      <point x="993" y="722"/>
      <point x="938" y="722" type="curve"/>
      <point x="938" y="699"/>
      <point x="938" y="722"/>
      <point x="938" y="699" type="curve"/>
      <point x="1102" y="699"/>
      <point x="937" y="699"/>
      <point x="1102" y="699" type="curve"/>
      <point x="1102" y="722"/>
      <point x="1102" y="699"/>
    </contour>
    <contour>
      <point x="1102" y="699" type="curve"/>
      <point x="1265" y="699"/>
      <point x="1101" y="699"/>
      <point x="1264" y="699" type="curve"/>
      <point x="1264" y="722"/>
      <point x="1264" y="699"/>
      <point x="1264" y="722" type="curve"/>
      <point x="1210" y="722"/>
      <point x="1156" y="722"/>
      <point x="1102" y="722" type="curve"/>
      <point x="1102" y="699"/>
      <point x="1102" y="722"/>
    </contour>
    <contour>
      <point x="386" y="0" type="curve"/>
      <point x="472" y="241"/>
      <point x="557" y="481"/>
      <point x="643" y="722" type="curve"/>
      <point x="619" y="722"/>
      <point x="644" y="722"/>
      <point x="619" y="722" type="curve"/>
      <point x="534" y="481"/>
      <point x="447" y="241"/>
      <point x="362" y="0" type="curve"/>
      <point x="381" y="0"/>
      <point x="367" y="0"/>
    </contour>
    <contour>
      <point x="628" y="722" type="curve"/>
      <point x="705" y="481"/>
      <point x="783" y="241"/>
      <point x="860" y="0" type="curve"/>
      <point x="879" y="0"/>
      <point x="865" y="0"/>
      <point x="884" y="0" type="curve"/>
      <point x="808" y="241"/>
      <point x="730" y="481"/>
      <point x="653" y="722" type="curve"/>
      <point x="628" y="722"/>
      <point x="653" y="722"/>
    </contour>
    <contour>
      <point x="126" y="722" type="curve"/>
      <point x="203" y="481"/>
      <point x="281" y="241"/>
      <point x="360" y="0" type="curve"/>
      <point x="379" y="0"/>
      <point x="365" y="0"/>
      <point x="383" y="0" type="curve"/>
      <point x="307" y="240"/>
      <point x="229" y="482"/>
      <point x="153" y="722" type="curve"/>
      <point x="126" y="722"/>
      <point x="153" y="722"/>
    </contour>
    <contour>
      <point x="1104" y="722" type="curve"/>
      <point x="1023" y="481"/>
      <point x="942" y="241"/>
      <point x="863" y="0" type="curve"/>
      <point x="883" y="0"/>
      <point x="868" y="0"/>
      <point x="887" y="0" type="curve"/>
      <point x="968" y="241"/>
      <point x="1049" y="481"/>
      <point x="1130" y="722" type="curve"/>
      <point x="1104" y="722"/>
      <point x="1130" y="722"/>
    </contour>
  </outline>
</glyph>
<glyph name="X" format="1">
  <advance width="948"/>
  <unicode hex="0058"/>
  <outline>
    <contour>
      <point x="161" y="0" type="curve"/>
      <point x="217" y="0"/>
      <point x="160" y="0"/>
      <point x="326" y="0" type="curve"/>
      <point x="326" y="23"/>
      <point x="326" y="0"/>
      <point x="326" y="23" type="curve"/>
      <point x="160" y="23"/>
      <point x="327" y="23"/>
      <point x="161" y="23" type="curve"/>
      <point x="161" y="0"/>
      <point x="161" y="23"/>
    </contour>
    <contour>
      <point x="161" y="23" type="curve"/>
      <point x="-3" y="23"/>
      <point x="162" y="23"/>
      <point x="-2" y="23" type="curve"/>
      <point x="-2" y="0"/>
      <point x="-2" y="23"/>
      <point x="-2" y="0" type="curve"/>
      <point x="53" y="0"/>
      <point x="107" y="0"/>
      <point x="161" y="0" type="curve"/>
      <point x="161" y="23"/>
      <point x="161" y="0"/>
    </contour>
    <contour>
      <point x="784" y="0" type="curve"/>
      <point x="838" y="0"/>
      <point x="893" y="0"/>
      <point x="947" y="0" type="curve"/>
      <point x="947" y="23"/>
      <point x="947" y="0"/>
      <point x="947" y="23" type="curve"/>
      <point x="783" y="23"/>
      <point x="948" y="23"/>
      <point x="784" y="23" type="curve"/>
      <point x="784" y="0"/>
      <point x="784" y="23"/>
    </contour>
    <contour>
      <point x="784" y="23" type="curve"/>
      <point x="620" y="23"/>
      <point x="785" y="23"/>
      <point x="621" y="23" type="curve"/>
      <point x="621" y="0"/>
      <point x="621" y="23"/>
      <point x="621" y="0" type="curve"/>
      <point x="675" y="0"/>
      <point x="729" y="0"/>
      <point x="784" y="0" type="curve"/>
      <point x="784" y="23"/>
      <point x="784" y="0"/>
    </contour>
    <contour>
      <point x="751" y="699" type="curve"/>
      <point x="915" y="699"/>
      <point x="750" y="699"/>
      <point x="914" y="699" type="curve"/>
      <point x="914" y="722"/>
      <point x="914" y="699"/>
      <point x="914" y="722" type="curve"/>
      <point x="859" y="722"/>
      <point x="805" y="722"/>
      <point x="751" y="722" type="curve"/>
      <point x="751" y="699"/>
      <point x="751" y="722"/>
    </contour>
    <contour>
      <point x="751" y="722" type="curve"/>
      <point x="696" y="722"/>
      <point x="642" y="722"/>
      <point x="587" y="722" type="curve"/>
      <point x="587" y="699"/>
      <point x="587" y="722"/>
      <point x="587" y="699" type="curve"/>
      <point x="751" y="699"/>
      <point x="586" y="699"/>
      <point x="751" y="699" type="curve"/>
      <point x="751" y="722"/>
      <point x="751" y="699"/>
    </contour>
    <contour>
      <point x="200" y="722" type="curve"/>
      <point x="146" y="722"/>
      <point x="91" y="722"/>
      <point x="37" y="722" type="curve"/>
      <point x="37" y="699"/>
      <point x="37" y="722"/>
      <point x="37" y="699" type="curve"/>
      <point x="201" y="699"/>
      <point x="36" y="699"/>
      <point x="200" y="699" type="curve"/>
      <point x="200" y="722"/>
      <point x="200" y="699"/>
    </contour>
    <contour>
      <point x="200" y="699" type="curve"/>
      <point x="366" y="699"/>
      <point x="199" y="699"/>
      <point x="365" y="699" type="curve"/>
      <point x="365" y="722"/>
      <point x="365" y="699"/>
      <point x="365" y="722" type="curve"/>
      <point x="309" y="722"/>
      <point x="255" y="722"/>
      <point x="200" y="722" type="curve"/>
      <point x="200" y="699"/>
      <point x="200" y="722"/>
    </contour>
    <contour>
      <point x="762" y="722" type="curve"/>
      <point x="548" y="481"/>
      <point x="334" y="241"/>
      <point x="121" y="0" type="curve"/>
      <point x="155" y="0"/>
      <point x="121" y="0"/>
      <point x="155" y="0" type="curve"/>
      <point x="366" y="241"/>
      <point x="578" y="481"/>
      <point x="792" y="722" type="curve"/>
      <point x="762" y="722"/>
      <point x="792" y="722"/>
    </contour>
    <contour>
      <point x="163" y="722" type="curve"/>
      <point x="374" y="481"/>
      <point x="585" y="241"/>
      <point x="796" y="0" type="curve"/>
      <point x="827" y="0"/>
      <point x="796" y="0"/>
      <point x="827" y="0" type="curve"/>
      <point x="616" y="241"/>
      <point x="404" y="481"/>
      <point x="193" y="722" type="curve"/>
      <point x="163" y="722"/>
      <point x="193" y="722"/>
    </contour>
  </outline>
</glyph>
<glyph name="Y" format="1">
  <advance width="888"/>
  <unicode hex="0059"/>
  <outline>
    <contour>
      <point x="424" y="825" type="move" name="top"/>
    </contour>
    <contour>
      <point x="423" y="23" type="curve"/>
      <point x="259" y="23"/>
      <point x="424" y="23"/>
      <point x="260" y="23" type="curve"/>
      <point x="260" y="0"/>
      <point x="260" y="23"/>
      <point x="260" y="0" type="curve"/>
      <point x="314" y="0"/>
      <point x="368" y="0"/>
      <point x="423" y="0" type="curve"/>
      <point x="423" y="23"/>
      <point x="423" y="0"/>
    </contour>
    <contour>
      <point x="423" y="0" type="curve"/>
      <point x="477" y="0"/>
      <point x="531" y="0"/>
      <point x="586" y="0" type="curve"/>
      <point x="586" y="23"/>
      <point x="586" y="0"/>
      <point x="586" y="23" type="curve"/>
      <point x="422" y="23"/>
      <point x="587" y="23"/>
      <point x="423" y="23" type="curve"/>
      <point x="423" y="0"/>
      <point x="423" y="23"/>
    </contour>
    <contour>
      <point x="707" y="722" type="curve"/>
      <point x="652" y="722"/>
      <point x="599" y="722"/>
      <point x="544" y="722" type="curve"/>
      <point x="544" y="699"/>
      <point x="544" y="722"/>
      <point x="544" y="699" type="curve"/>
      <point x="708" y="699"/>
      <point x="543" y="699"/>
      <point x="707" y="699" type="curve"/>
      <point x="707" y="722"/>
      <point x="707" y="699"/>
    </contour>
    <contour>
      <point x="154" y="722" type="curve"/>
      <point x="99" y="722"/>
      <point x="45" y="722"/>
      <point x="-9" y="722" type="curve"/>
      <point x="-9" y="699"/>
      <point x="-9" y="722"/>
      <point x="-9" y="699" type="curve"/>
      <point x="155" y="699"/>
      <point x="-10" y="699"/>
      <point x="154" y="699" type="curve"/>
      <point x="154" y="722"/>
      <point x="154" y="699"/>
    </contour>
    <contour>
      <point x="154" y="699" type="curve"/>
      <point x="319" y="699"/>
      <point x="153" y="699"/>
      <point x="318" y="699" type="curve"/>
      <point x="318" y="722"/>
      <point x="318" y="699"/>
      <point x="318" y="722" type="curve"/>
      <point x="262" y="722"/>
      <point x="209" y="722"/>
      <point x="154" y="722" type="curve"/>
      <point x="154" y="699"/>
      <point x="154" y="722"/>
    </contour>
    <contour>
      <point x="707" y="699" type="curve"/>
      <point x="872" y="699"/>
      <point x="707" y="699"/>
      <point x="871" y="699" type="curve"/>
      <point x="871" y="722"/>
      <point x="871" y="699"/>
      <point x="871" y="722" type="curve"/>
      <point x="815" y="722"/>
      <point x="762" y="722"/>
      <point x="707" y="722" type="curve"/>
      <point x="707" y="699"/>
      <point x="707" y="722"/>
    </contour>
    <contour>
      <point x="107" y="722" type="curve"/>
      <point x="207" y="594"/>
      <point x="308" y="465"/>
      <point x="409" y="337" type="curve"/>
      <point x="436" y="337"/>
      <point x="409" y="341"/>
      <point x="436" y="341" type="curve"/>
      <point x="336" y="468"/>
      <point x="236" y="595"/>
      <point x="137" y="722" type="curve"/>
      <point x="107" y="722"/>
      <point x="137" y="722"/>
    </contour>
    <contour>
      <point x="725" y="722" type="curve"/>
      <point x="619" y="595"/>
      <point x="515" y="468"/>
      <point x="410" y="341" type="curve"/>
      <point x="436" y="341"/>
      <point x="410" y="337"/>
      <point x="436" y="337" type="curve"/>
      <point x="542" y="465"/>
      <point x="648" y="594"/>
      <point x="755" y="722" type="curve"/>
      <point x="725" y="722"/>
      <point x="755" y="722"/>
    </contour>
    <contour>
      <point x="436" y="0" type="curve"/>
      <point x="436" y="115"/>
      <point x="436" y="231"/>
      <point x="436" y="346" type="curve"/>
      <point x="409" y="346"/>
      <point x="436" y="346"/>
      <point x="409" y="346" type="curve"/>
      <point x="409" y="231"/>
      <point x="409" y="115"/>
      <point x="409" y="0" type="curve"/>
      <point x="436" y="0"/>
      <point x="409" y="0"/>
    </contour>
  </outline>
</glyph>
<glyph name="bracketleft" format="1">
  <advance width="327"/>
  <unicode hex="005B"/>
  <outline>
    <contour>
      <point x="286" y="771" type="curve"/>
      <point x="220" y="771"/>
      <point x="155" y="771"/>
      <point x="89" y="771" type="curve"/>
      <point x="87" y="771"/>
      <point x="88" y="771"/>
      <point x="85" y="771" type="curve"/>
      <point x="85" y="769"/>
      <point x="85" y="767"/>
      <point x="85" y="764" type="curve"/>
      <point x="85" y="470"/>
      <point x="85" y="175"/>
      <point x="85" y="-119" type="curve"/>
      <point x="85" y="-121"/>
      <point x="85" y="-123"/>
      <point x="85" y="-124" type="curve"/>
      <point x="86" y="-124"/>
      <point x="86" y="-124"/>
      <point x="88" y="-124" type="curve"/>
      <point x="154" y="-124"/>
      <point x="219" y="-124"/>
      <point x="286" y="-124" type="curve"/>
      <point x="286" y="-99"/>
      <point x="286" y="-124"/>
      <point x="286" y="-99" type="curve"/>
      <point x="219" y="-99"/>
      <point x="154" y="-99"/>
      <point x="88" y="-99" type="curve"/>
      <point x="111" y="-99"/>
      <point x="88" y="-99"/>
      <point x="111" y="-99" type="curve"/>
      <point x="111" y="-119"/>
      <point x="111" y="-99"/>
      <point x="111" y="-119" type="curve"/>
      <point x="111" y="175"/>
      <point x="111" y="470"/>
      <point x="111" y="764" type="curve"/>
      <point x="111" y="746"/>
      <point x="111" y="764"/>
      <point x="111" y="746" type="curve"/>
      <point x="89" y="746"/>
      <point x="111" y="746"/>
      <point x="89" y="746" type="curve"/>
      <point x="155" y="746"/>
      <point x="220" y="746"/>
      <point x="286" y="746" type="curve"/>
      <point x="286" y="771"/>
      <point x="286" y="746"/>
    </contour>
  </outline>
</glyph>
<glyph name="backslash" format="1">
  <advance width="615"/>
  <unicode hex="005C"/>
  <outline>
    <contour>
      <point x="572" y="-68" type="curve"/>
      <point x="405" y="236"/>
      <point x="237" y="540"/>
      <point x="69" y="844" type="curve"/>
      <point x="43" y="844"/>
      <point x="69" y="844"/>
      <point x="43" y="844" type="curve"/>
      <point x="210" y="540"/>
      <point x="379" y="236"/>
      <point x="546" y="-68" type="curve"/>
      <point x="572" y="-68"/>
      <point x="546" y="-68"/>
    </contour>
  </outline>
</glyph>
<glyph name="bracketright" format="1">
  <advance width="326"/>
  <unicode hex="005D"/>
  <outline>
    <contour>
      <point x="41" y="746" type="curve"/>
      <point x="107" y="746"/>
      <point x="171" y="746"/>
      <point x="237" y="746" type="curve"/>
      <point x="234" y="749"/>
      <point x="230" y="752"/>
      <point x="227" y="755" type="curve"/>
      <point x="223" y="758"/>
      <point x="219" y="761"/>
      <point x="215" y="764" type="curve"/>
      <point x="215" y="470"/>
      <point x="215" y="175"/>
      <point x="215" y="-119" type="curve"/>
      <point x="220" y="-116"/>
      <point x="224" y="-112"/>
      <point x="228" y="-108" type="curve"/>
      <point x="232" y="-106"/>
      <point x="235" y="-102"/>
      <point x="239" y="-99" type="curve"/>
      <point x="172" y="-99"/>
      <point x="107" y="-99"/>
      <point x="41" y="-99" type="curve"/>
      <point x="41" y="-124"/>
      <point x="41" y="-99"/>
      <point x="41" y="-124" type="curve"/>
      <point x="107" y="-124"/>
      <point x="172" y="-124"/>
      <point x="239" y="-124" type="curve"/>
      <point x="241" y="-124"/>
      <point x="239" y="-124"/>
      <point x="241" y="-124" type="curve"/>
      <point x="241" y="-119"/>
      <point x="241" y="-124"/>
      <point x="241" y="-119" type="curve"/>
      <point x="241" y="175"/>
      <point x="241" y="470"/>
      <point x="241" y="764" type="curve"/>
      <point x="241" y="771"/>
      <point x="241" y="764"/>
      <point x="241" y="771" type="curve"/>
      <point x="237" y="771"/>
      <point x="241" y="771"/>
      <point x="237" y="771" type="curve"/>
      <point x="171" y="771"/>
      <point x="107" y="771"/>
      <point x="41" y="771" type="curve"/>
      <point x="41" y="746"/>
      <point x="41" y="771"/>
    </contour>
  </outline>
</glyph>
<glyph name="asciicircum" format="1">
  <advance width="630"/>
  <unicode hex="005E"/>
  <outline>
    <contour>
      <point x="104" y="466" type="curve"/>
      <point x="178" y="581"/>
      <point x="253" y="695"/>
      <point x="327" y="809" type="curve"/>
      <point x="303" y="809"/>
      <point x="325" y="809"/>
      <point x="301" y="809" type="curve"/>
      <point x="227" y="695"/>
      <point x="152" y="581"/>
      <point x="78" y="466" type="curve"/>
      <point x="102" y="466"/>
      <point x="79" y="466"/>
    </contour>
    <contour>
      <point x="555" y="466" type="curve"/>
      <point x="481" y="577"/>
      <point x="402" y="699"/>
      <point x="329" y="809" type="curve"/>
      <point x="305" y="809"/>
      <point x="327" y="809"/>
      <point x="303" y="809" type="curve"/>
      <point x="376" y="699"/>
      <point x="456" y="577"/>
      <point x="529" y="466" type="curve"/>
      <point x="553" y="466"/>
      <point x="531" y="466"/>
    </contour>
  </outline>
</glyph>
<glyph name="underscore" format="1">
  <advance width="876"/>
  <unicode hex="005F"/>
  <outline>
    <contour>
      <point x="-1" y="-210" type="curve"/>
      <point x="291" y="-210"/>
      <point x="584" y="-210"/>
      <point x="875" y="-210" type="curve"/>
      <point x="875" y="-188"/>
      <point x="875" y="-210"/>
      <point x="875" y="-188" type="curve"/>
      <point x="584" y="-188"/>
      <point x="291" y="-188"/>
      <point x="-1" y="-188" type="curve"/>
      <point x="-1" y="-210"/>
      <point x="-1" y="-188"/>
    </contour>
  </outline>
</glyph>
<glyph name="grave" format="1">
  <advance width="474"/>
  <unicode hex="0060"/>
  <outline>
    <contour>
      <point x="258" y="590" type="move" name="_top"/>
    </contour>
    <contour>
      <point x="276" y="590" type="line"/>
      <point x="101" y="756" type="line"/>
      <point x="60" y="756" type="line"/>
      <point x="245" y="590" type="line"/>
    </contour>
  </outline>
</glyph>
<glyph name="b" format="1">
  <advance width="789"/>
  <unicode hex="0062"/>
  <outline>
    <contour>
      <point x="170" y="800" type="curve"/>
      <point x="116" y="800"/>
      <point x="62" y="800"/>
      <point x="7" y="800" type="curve"/>
      <point x="7" y="778"/>
      <point x="7" y="799"/>
      <point x="7" y="777" type="curve"/>
      <point x="170" y="777"/>
      <point x="7" y="777"/>
      <point x="170" y="777" type="curve"/>
      <point x="170" y="799"/>
      <point x="170" y="778"/>
    </contour>
    <contour>
      <point x="175" y="407" type="curve"/>
      <point x="231" y="461"/>
      <point x="329" y="515"/>
      <point x="441" y="515" type="curve"/>
      <point x="593" y="515"/>
      <point x="695" y="417"/>
      <point x="695" y="264" type="curve"/>
      <point x="695" y="115"/>
      <point x="591" y="16"/>
      <point x="440" y="18" type="curve"/>
      <point x="337" y="18"/>
      <point x="258" y="46"/>
      <point x="178" y="114" type="curve"/>
      <point x="161" y="101"/>
      <point x="178" y="113"/>
      <point x="161" y="99" type="curve"/>
      <point x="246" y="24"/>
      <point x="330" y="-5"/>
      <point x="441" y="-5" type="curve"/>
      <point x="608" y="-5"/>
      <point x="721" y="100"/>
      <point x="721" y="265" type="curve"/>
      <point x="721" y="430"/>
      <point x="609" y="538"/>
      <point x="444" y="538" type="curve"/>
      <point x="325" y="538"/>
      <point x="222" y="483"/>
      <point x="162" y="425" type="curve"/>
      <point x="174" y="408"/>
      <point x="162" y="423"/>
    </contour>
    <contour>
      <point x="181" y="0" type="curve"/>
      <point x="181" y="267"/>
      <point x="181" y="533"/>
      <point x="181" y="800" type="curve"/>
      <point x="157" y="800"/>
      <point x="180" y="800"/>
      <point x="156" y="800" type="curve"/>
      <point x="156" y="533"/>
      <point x="156" y="267"/>
      <point x="156" y="0" type="curve"/>
      <point x="180" y="0"/>
      <point x="157" y="0"/>
    </contour>
    <contour>
      <point x="170" y="23" type="curve"/>
      <point x="7" y="23"/>
      <point x="170" y="23"/>
      <point x="7" y="23" type="curve"/>
      <point x="7" y="1"/>
      <point x="7" y="22"/>
      <point x="7" y="0" type="curve"/>
      <point x="62" y="0"/>
      <point x="116" y="0"/>
      <point x="170" y="0" type="curve"/>
      <point x="170" y="22"/>
      <point x="170" y="1"/>
    </contour>
  </outline>
</glyph>
<glyph name="f" format="1">
  <advance width="598"/>
  <unicode hex="0066"/>
  <outline>
    <contour>
      <point x="567" y="773" type="curve"/>
      <point x="567" y="653"/>
      <point x="567" y="774"/>
      <point x="567" y="654" type="curve"/>
      <point x="590" y="654"/>
      <point x="567" y="654"/>
      <point x="590" y="654" type="curve"/>
      <point x="590" y="774"/>
      <point x="590" y="653"/>
      <point x="590" y="773" type="curve"/>
      <point x="567" y="773"/>
      <point x="590" y="773"/>
    </contour>
    <contour>
      <point x="278" y="0" type="curve"/>
      <point x="332" y="0"/>
      <point x="387" y="0"/>
      <point x="441" y="0" type="curve"/>
      <point x="441" y="23"/>
      <point x="441" y="0"/>
      <point x="441" y="23" type="curve"/>
      <point x="276" y="23"/>
      <point x="442" y="23"/>
      <point x="278" y="23" type="curve"/>
      <point x="278" y="0"/>
      <point x="278" y="23"/>
    </contour>
    <contour>
      <point x="278" y="23" type="curve"/>
      <point x="113" y="23"/>
      <point x="279" y="23"/>
      <point x="115" y="23" type="curve"/>
      <point x="115" y="0"/>
      <point x="115" y="23"/>
      <point x="115" y="0" type="curve"/>
      <point x="169" y="0"/>
      <point x="223" y="0"/>
      <point x="278" y="0" type="curve"/>
      <point x="278" y="23"/>
      <point x="278" y="0"/>
    </contour>
    <contour>
      <point x="40" y="510" type="curve"/>
      <point x="569" y="510" type="line"/>
      <point x="569" y="533"/>
      <point x="569" y="510"/>
      <point x="569" y="533" type="curve"/>
      <point x="40" y="533" type="line"/>
      <point x="40" y="510"/>
      <point x="40" y="533"/>
    </contour>
    <contour>
      <point x="290" y="0" type="curve"/>
      <point x="290" y="640" type="line"/>
      <point x="290" y="732"/>
      <point x="357" y="782"/>
      <point x="454" y="782" type="curve"/>
      <point x="497" y="782"/>
      <point x="540" y="769"/>
      <point x="579" y="755" type="curve"/>
      <point x="590" y="773"/>
      <point x="579" y="755"/>
      <point x="590" y="773" type="curve"/>
      <point x="547" y="789"/>
      <point x="500" y="805"/>
      <point x="454" y="805" type="curve"/>
      <point x="342" y="805"/>
      <point x="265" y="748"/>
      <point x="265" y="640" type="curve"/>
      <point x="265" y="0" type="line"/>
      <point x="290" y="0"/>
      <point x="265" y="0"/>
    </contour>
  </outline>
</glyph>
<glyph name="h" format="1">
  <advance width="815"/>
  <unicode hex="0068"/>
  <outline>
    <contour>
      <point x="647" y="0" type="curve"/>
      <point x="702" y="0"/>
      <point x="756" y="0"/>
      <point x="811" y="0" type="curve"/>
      <point x="811" y="23"/>
      <point x="811" y="0"/>
      <point x="811" y="23" type="curve"/>
      <point x="646" y="23"/>
      <point x="811" y="23"/>
      <point x="647" y="23" type="curve"/>
      <point x="647" y="0"/>
      <point x="647" y="23"/>
    </contour>
    <contour>
      <point x="170" y="0" type="curve"/>
      <point x="221" y="0"/>
      <point x="170" y="0"/>
      <point x="320" y="0" type="curve"/>
      <point x="320" y="23"/>
      <point x="320" y="0"/>
      <point x="320" y="23" type="curve"/>
      <point x="170" y="23"/>
      <point x="321" y="23"/>
      <point x="170" y="23" type="curve"/>
      <point x="170" y="0"/>
      <point x="170" y="23"/>
    </contour>
    <contour>
      <point x="170" y="800" type="curve"/>
      <point x="116" y="800"/>
      <point x="61" y="800"/>
      <point x="7" y="800" type="curve"/>
      <point x="7" y="777"/>
      <point x="7" y="800"/>
      <point x="7" y="777" type="curve"/>
      <point x="171" y="777"/>
      <point x="6" y="777"/>
      <point x="170" y="777" type="curve"/>
      <point x="170" y="800"/>
      <point x="170" y="777"/>
    </contour>
    <contour>
      <point x="170" y="23" type="curve"/>
      <point x="6" y="23"/>
      <point x="171" y="23"/>
      <point x="7" y="23" type="curve"/>
      <point x="7" y="0"/>
      <point x="7" y="23"/>
      <point x="7" y="0" type="curve"/>
      <point x="61" y="0"/>
      <point x="116" y="0"/>
      <point x="170" y="0" type="curve"/>
      <point x="170" y="23"/>
      <point x="170" y="0"/>
    </contour>
    <contour>
      <point x="177" y="353" type="curve"/>
      <point x="224" y="454"/>
      <point x="330" y="515"/>
      <point x="441" y="515" type="curve"/>
      <point x="562" y="515"/>
      <point x="635" y="458"/>
      <point x="635" y="341" type="curve"/>
      <point x="635" y="228"/>
      <point x="635" y="114"/>
      <point x="635" y="0" type="curve"/>
      <point x="661" y="0"/>
      <point x="635" y="0"/>
      <point x="661" y="0" type="curve"/>
      <point x="661" y="115"/>
      <point x="661" y="229"/>
      <point x="661" y="344" type="curve"/>
      <point x="661" y="475"/>
      <point x="578" y="538"/>
      <point x="444" y="538" type="curve"/>
      <point x="323" y="538"/>
      <point x="208" y="478"/>
      <point x="165" y="366" type="curve"/>
      <point x="178" y="353"/>
      <point x="165" y="365"/>
    </contour>
    <contour>
      <point x="183" y="0" type="curve"/>
      <point x="183" y="267"/>
      <point x="183" y="533"/>
      <point x="183" y="800" type="curve"/>
      <point x="157" y="800"/>
      <point x="183" y="800"/>
      <point x="157" y="800" type="curve"/>
      <point x="157" y="533"/>
      <point x="157" y="267"/>
      <point x="157" y="0" type="curve"/>
      <point x="183" y="0"/>
      <point x="157" y="0"/>
    </contour>
  </outline>
</glyph>
<glyph name="k" format="1">
  <advance width="737"/>
  <unicode hex="006B"/>
  <outline>
    <contour>
      <point x="431" y="-5" type="move" name="bottom"/>
    </contour>
    <contour>
      <point x="170" y="23" type="curve"/>
      <point x="6" y="23"/>
      <point x="171" y="23"/>
      <point x="7" y="23" type="curve"/>
      <point x="7" y="0"/>
      <point x="7" y="23"/>
      <point x="7" y="0" type="curve"/>
      <point x="61" y="0"/>
      <point x="115" y="0"/>
      <point x="170" y="0" type="curve"/>
      <point x="170" y="23"/>
      <point x="170" y="0"/>
    </contour>
    <contour>
      <point x="558" y="0" type="curve"/>
      <point x="612" y="0"/>
      <point x="667" y="0"/>
      <point x="721" y="0" type="curve"/>
      <point x="721" y="23"/>
      <point x="721" y="0"/>
      <point x="721" y="23" type="curve"/>
      <point x="558" y="23"/>
      <point x="721" y="23"/>
      <point x="558" y="23" type="curve"/>
      <point x="558" y="0"/>
      <point x="558" y="23"/>
    </contour>
    <contour>
      <point x="525" y="510" type="curve"/>
      <point x="672" y="510"/>
      <point x="524" y="510"/>
      <point x="670" y="510" type="curve"/>
      <point x="670" y="533"/>
      <point x="670" y="510"/>
      <point x="670" y="533" type="curve"/>
      <point x="622" y="533"/>
      <point x="573" y="533"/>
      <point x="525" y="533" type="curve"/>
      <point x="525" y="510"/>
      <point x="525" y="533"/>
    </contour>
    <contour>
      <point x="170" y="0" type="curve"/>
      <point x="220" y="0"/>
      <point x="170" y="0"/>
      <point x="317" y="0" type="curve"/>
      <point x="317" y="23"/>
      <point x="317" y="0"/>
      <point x="317" y="23" type="curve"/>
      <point x="170" y="23"/>
      <point x="318" y="23"/>
      <point x="170" y="23" type="curve"/>
      <point x="170" y="0"/>
      <point x="170" y="23"/>
    </contour>
    <contour>
      <point x="526" y="533" type="curve"/>
      <point x="475" y="533"/>
      <point x="425" y="533"/>
      <point x="373" y="533" type="curve"/>
      <point x="373" y="510"/>
      <point x="373" y="533"/>
      <point x="373" y="510" type="curve"/>
      <point x="527" y="510"/>
      <point x="372" y="510"/>
      <point x="526" y="510" type="curve"/>
      <point x="526" y="533"/>
      <point x="526" y="510"/>
    </contour>
    <contour>
      <point x="173" y="800" type="curve"/>
      <point x="118" y="800"/>
      <point x="64" y="800"/>
      <point x="9" y="800" type="curve"/>
      <point x="9" y="777"/>
      <point x="9" y="800"/>
      <point x="9" y="777" type="curve"/>
      <point x="174" y="777"/>
      <point x="8" y="777"/>
      <point x="173" y="777" type="curve"/>
      <point x="173" y="800"/>
      <point x="173" y="777"/>
    </contour>
    <contour>
      <point x="184" y="0" type="curve"/>
      <point x="184" y="800" type="line"/>
      <point x="158" y="800"/>
      <point x="184" y="800"/>
      <point x="158" y="800" type="curve"/>
      <point x="158" y="533"/>
      <point x="158" y="267"/>
      <point x="158" y="0" type="curve"/>
      <point x="184" y="0"/>
      <point x="158" y="0"/>
    </contour>
    <contour>
      <point x="528" y="533" type="curve"/>
      <point x="172" y="275" type="line"/>
      <point x="216" y="275"/>
      <point x="172" y="275"/>
      <point x="216" y="275" type="curve"/>
      <point x="570" y="533" type="line"/>
      <point x="527" y="533"/>
      <point x="572" y="533"/>
    </contour>
    <contour>
      <point x="604" y="1" type="curve"/>
      <point x="216" y="275" type="line"/>
      <point x="172" y="275"/>
      <point x="216" y="275"/>
      <point x="172" y="275" type="curve"/>
      <point x="558" y="0" type="line"/>
      <point x="606" y="0"/>
      <point x="556" y="1"/>
    </contour>
  </outline>
</glyph>
<glyph name="l" format="1">
  <advance width="346"/>
  <unicode hex="006C"/>
  <outline>
    <contour>
      <point x="172" y="913" type="move" name="top"/>
    </contour>
    <contour>
      <point x="183" y="-4" type="move" name="bottom"/>
    </contour>
    <contour>
      <point x="172" y="23" type="curve"/>
      <point x="8" y="23"/>
      <point x="172" y="23"/>
      <point x="8" y="23" type="curve"/>
      <point x="8" y="0"/>
      <point x="8" y="23"/>
      <point x="8" y="0" type="curve"/>
      <point x="63" y="0"/>
      <point x="118" y="0"/>
      <point x="172" y="0" type="curve"/>
      <point x="172" y="23"/>
      <point x="172" y="0"/>
    </contour>
    <contour>
      <point x="175" y="800" type="curve"/>
      <point x="121" y="800"/>
      <point x="65" y="800"/>
      <point x="11" y="800" type="curve"/>
      <point x="11" y="777"/>
      <point x="11" y="800"/>
      <point x="11" y="777" type="curve"/>
      <point x="175" y="777"/>
      <point x="11" y="777"/>
      <point x="175" y="777" type="curve"/>
      <point x="175" y="800"/>
      <point x="175" y="777"/>
    </contour>
    <contour>
      <point x="172" y="0" type="curve"/>
      <point x="228" y="0"/>
      <point x="283" y="0"/>
      <point x="339" y="0" type="curve"/>
      <point x="339" y="23"/>
      <point x="339" y="0"/>
      <point x="339" y="23" type="curve"/>
      <point x="172" y="23"/>
      <point x="339" y="23"/>
      <point x="172" y="23" type="curve"/>
      <point x="172" y="0"/>
      <point x="172" y="23"/>
    </contour>
    <contour>
      <point x="184" y="0" type="curve"/>
      <point x="184" y="267"/>
      <point x="184" y="533"/>
      <point x="184" y="800" type="curve"/>
      <point x="159" y="800"/>
      <point x="184" y="800"/>
      <point x="159" y="800" type="curve"/>
      <point x="159" y="533"/>
      <point x="159" y="267"/>
      <point x="159" y="0" type="curve"/>
      <point x="184" y="0"/>
      <point x="159" y="0"/>
    </contour>
  </outline>
</glyph>
<glyph name="q" format="1">
  <advance width="782"/>
  <unicode hex="0071"/>
  <outline>
    <contour>
      <point x="624" y="510" type="curve"/>
      <point x="774" y="510"/>
      <point x="625" y="510"/>
      <point x="774" y="510" type="curve"/>
      <point x="774" y="532"/>
      <point x="774" y="511"/>
      <point x="774" y="533" type="curve"/>
      <point x="725" y="533"/>
      <point x="675" y="533"/>
      <point x="624" y="533" type="curve"/>
      <point x="624" y="511"/>
      <point x="624" y="532"/>
    </contour>
    <contour>
      <point x="624" y="-278" type="curve"/>
      <point x="461" y="-277"/>
      <point x="624" y="-278"/>
      <point x="461" y="-277" type="curve"/>
      <point x="461" y="-299"/>
      <point x="461" y="-278"/>
      <point x="461" y="-300" type="curve"/>
      <point x="516" y="-300"/>
      <point x="570" y="-300"/>
      <point x="624" y="-300" type="curve"/>
      <point x="624" y="-279"/>
      <point x="624" y="-299"/>
    </contour>
    <contour>
      <point x="624" y="-300" type="curve"/>
      <point x="675" y="-300"/>
      <point x="725" y="-300"/>
      <point x="774" y="-300" type="curve"/>
      <point x="774" y="-278"/>
      <point x="774" y="-299"/>
      <point x="774" y="-277" type="curve"/>
      <point x="625" y="-278"/>
      <point x="774" y="-277"/>
      <point x="624" y="-278" type="curve"/>
      <point x="624" y="-299"/>
      <point x="624" y="-279"/>
    </contour>
    <contour>
      <point x="631" y="442" type="curve"/>
      <point x="554" y="503"/>
      <point x="449" y="538"/>
      <point x="349" y="538" type="curve"/>
      <point x="177" y="538"/>
      <point x="65" y="433"/>
      <point x="65" y="264" type="curve"/>
      <point x="65" y="95"/>
      <point x="181" y="-5"/>
      <point x="353" y="-5" type="curve"/>
      <point x="459" y="-5"/>
      <point x="561" y="43"/>
      <point x="630" y="121" type="curve"/>
      <point x="614" y="136"/>
      <point x="633" y="127"/>
      <point x="618" y="141" type="curve"/>
      <point x="549" y="63"/>
      <point x="454" y="18"/>
      <point x="353" y="18" type="curve"/>
      <point x="198" y="18"/>
      <point x="91" y="111"/>
      <point x="91" y="265" type="curve"/>
      <point x="91" y="419"/>
      <point x="194" y="515"/>
      <point x="350" y="515" type="curve"/>
      <point x="445" y="515"/>
      <point x="544" y="480"/>
      <point x="620" y="425" type="curve"/>
      <point x="633" y="440"/>
      <point x="617" y="427"/>
    </contour>
    <contour>
      <point x="636" y="-300" type="curve"/>
      <point x="636" y="-22"/>
      <point x="636" y="255"/>
      <point x="636" y="533" type="curve"/>
      <point x="610" y="533"/>
      <point x="635" y="533"/>
      <point x="610" y="533" type="curve"/>
      <point x="610" y="255"/>
      <point x="610" y="-22"/>
      <point x="610" y="-300" type="curve"/>
      <point x="635" y="-300"/>
      <point x="610" y="-300"/>
    </contour>
  </outline>
</glyph>
<glyph name="t" format="1">
  <advance width="544"/>
  <unicode hex="0074"/>
  <outline>
    <contour>
      <point x="376" y="-8" type="move" name="bottom"/>
    </contour>
    <contour>
      <point x="21" y="510" type="curve"/>
      <point x="523" y="510" type="line"/>
      <point x="523" y="533"/>
      <point x="523" y="510"/>
      <point x="523" y="533" type="curve"/>
      <point x="21" y="533" type="line"/>
      <point x="21" y="510"/>
      <point x="21" y="533"/>
    </contour>
    <contour>
      <point x="494" y="49" type="curve"/>
      <point x="448" y="30"/>
      <point x="415" y="18"/>
      <point x="367" y="18" type="curve"/>
      <point x="280" y="18"/>
      <point x="232" y="57"/>
      <point x="232" y="145" type="curve"/>
      <point x="232" y="673" type="line"/>
      <point x="210" y="660"/>
      <point x="228" y="670"/>
      <point x="206" y="657" type="curve"/>
      <point x="206" y="143" type="line"/>
      <point x="206" y="43"/>
      <point x="264" y="-5"/>
      <point x="365" y="-5" type="curve"/>
      <point x="417" y="-5"/>
      <point x="453" y="9"/>
      <point x="503" y="28" type="curve"/>
      <point x="494" y="49"/>
      <point x="503" y="28"/>
    </contour>
  </outline>
</glyph>
<glyph name="w" format="1">
  <advance width="1273"/>
  <unicode hex="0077"/>
  <outline>
    <contour>
      <point x="1108" y="510" type="curve"/>
      <point x="1272" y="510"/>
      <point x="1107" y="510"/>
      <point x="1271" y="510" type="curve"/>
      <point x="1271" y="533"/>
      <point x="1271" y="510"/>
      <point x="1271" y="533" type="curve"/>
      <point x="1216" y="533"/>
      <point x="1162" y="533"/>
      <point x="1108" y="533" type="curve"/>
      <point x="1108" y="510"/>
      <point x="1108" y="533"/>
    </contour>
    <contour>
      <point x="1108" y="533" type="curve"/>
      <point x="1053" y="533"/>
      <point x="1001" y="533"/>
      <point x="946" y="533" type="curve"/>
      <point x="946" y="510"/>
      <point x="946" y="533"/>
      <point x="946" y="510" type="curve"/>
      <point x="1110" y="510"/>
      <point x="944" y="510"/>
      <point x="1108" y="510" type="curve"/>
      <point x="1108" y="533"/>
      <point x="1108" y="510"/>
    </contour>
    <contour>
      <point x="164" y="533" type="curve"/>
      <point x="110" y="533"/>
      <point x="55" y="533"/>
      <point x="1" y="533" type="curve"/>
      <point x="1" y="510"/>
      <point x="1" y="533"/>
      <point x="1" y="510" type="curve"/>
      <point x="165" y="510"/>
      <point x="0" y="510"/>
      <point x="164" y="510" type="curve"/>
      <point x="164" y="533"/>
      <point x="164" y="510"/>
    </contour>
    <contour>
      <point x="164" y="510" type="curve"/>
      <point x="328" y="510"/>
      <point x="163" y="510"/>
      <point x="327" y="510" type="curve"/>
      <point x="327" y="533"/>
      <point x="327" y="510"/>
      <point x="327" y="533" type="curve"/>
      <point x="272" y="533"/>
      <point x="219" y="533"/>
      <point x="164" y="533" type="curve"/>
      <point x="164" y="510"/>
      <point x="164" y="533"/>
    </contour>
    <contour>
      <point x="393" y="0" type="curve"/>
      <point x="481" y="178"/>
      <point x="568" y="355"/>
      <point x="654" y="533" type="curve"/>
      <point x="627" y="533"/>
      <point x="654" y="533"/>
      <point x="627" y="533" type="curve"/>
      <point x="542" y="355"/>
      <point x="455" y="178"/>
      <point x="369" y="0" type="curve"/>
      <point x="393" y="0"/>
      <point x="369" y="0"/>
    </contour>
    <contour>
      <point x="1112" y="533" type="curve"/>
      <point x="1031" y="355"/>
      <point x="951" y="178"/>
      <point x="871" y="0" type="curve"/>
      <point x="895" y="0"/>
      <point x="871" y="0"/>
      <point x="895" y="0" type="curve"/>
      <point x="976" y="178"/>
      <point x="1057" y="355"/>
      <point x="1139" y="533" type="curve"/>
      <point x="1112" y="533"/>
      <point x="1139" y="533"/>
    </contour>
    <contour>
      <point x="635" y="533" type="curve"/>
      <point x="713" y="355"/>
      <point x="791" y="178"/>
      <point x="869" y="0" type="curve"/>
      <point x="893" y="0"/>
      <point x="869" y="0"/>
      <point x="893" y="0" type="curve"/>
      <point x="816" y="178"/>
      <point x="738" y="355"/>
      <point x="661" y="533" type="curve"/>
      <point x="635" y="533"/>
      <point x="661" y="533"/>
    </contour>
    <contour>
      <point x="134" y="533" type="curve"/>
      <point x="212" y="355"/>
      <point x="290" y="178"/>
      <point x="368" y="0" type="curve"/>
      <point x="392" y="0"/>
      <point x="368" y="0"/>
      <point x="392" y="0" type="curve"/>
      <point x="315" y="178"/>
      <point x="238" y="355"/>
      <point x="161" y="533" type="curve"/>
      <point x="134" y="533"/>
      <point x="161" y="533"/>
    </contour>
  </outline>
</glyph>
<glyph name="y" format="1">
  <advance width="941"/>
  <unicode hex="0079"/>
  <outline>
    <contour>
      <point x="459" y="669" type="move" name="top"/>
    </contour>
    <contour>
      <point x="280" y="-277" type="curve"/>
      <point x="120" y="-277"/>
      <point x="281" y="-277"/>
      <point x="121" y="-277" type="curve"/>
      <point x="121" y="-300"/>
      <point x="121" y="-277"/>
      <point x="121" y="-300" type="curve"/>
      <point x="175" y="-300"/>
      <point x="227" y="-300"/>
      <point x="280" y="-300" type="curve"/>
      <point x="280" y="-277"/>
      <point x="280" y="-300"/>
    </contour>
    <contour>
      <point x="168" y="533" type="curve"/>
      <point x="114" y="533"/>
      <point x="60" y="533"/>
      <point x="5" y="533" type="curve"/>
      <point x="5" y="510"/>
      <point x="5" y="533"/>
      <point x="5" y="510" type="curve"/>
      <point x="169" y="510"/>
      <point x="4" y="510"/>
      <point x="168" y="510" type="curve"/>
      <point x="168" y="533"/>
      <point x="168" y="510"/>
    </contour>
    <contour>
      <point x="168" y="510" type="curve"/>
      <point x="332" y="510"/>
      <point x="167" y="510"/>
      <point x="331" y="510" type="curve"/>
      <point x="331" y="533"/>
      <point x="331" y="510"/>
      <point x="331" y="533" type="curve"/>
      <point x="277" y="533"/>
      <point x="223" y="533"/>
      <point x="168" y="533" type="curve"/>
      <point x="168" y="510"/>
      <point x="168" y="533"/>
    </contour>
    <contour>
      <point x="772" y="533" type="curve"/>
      <point x="718" y="533"/>
      <point x="664" y="533"/>
      <point x="610" y="533" type="curve"/>
      <point x="610" y="510"/>
      <point x="610" y="533"/>
      <point x="610" y="510" type="curve"/>
      <point x="773" y="510"/>
      <point x="609" y="510"/>
      <point x="772" y="510" type="curve"/>
      <point x="772" y="533"/>
      <point x="772" y="510"/>
    </contour>
    <contour>
      <point x="772" y="510" type="curve"/>
      <point x="936" y="510"/>
      <point x="771" y="510"/>
      <point x="935" y="510" type="curve"/>
      <point x="935" y="533"/>
      <point x="935" y="510"/>
      <point x="935" y="533" type="curve"/>
      <point x="881" y="533"/>
      <point x="826" y="533"/>
      <point x="772" y="533" type="curve"/>
      <point x="772" y="510"/>
      <point x="772" y="533"/>
    </contour>
    <contour>
      <point x="470" y="9" type="curve"/>
      <point x="376" y="164"/>
      <point x="262" y="377"/>
      <point x="167" y="533" type="curve"/>
      <point x="138" y="533"/>
      <point x="167" y="533"/>
      <point x="138" y="533" type="curve"/>
      <point x="235" y="376"/>
      <point x="349" y="159"/>
      <point x="446" y="4" type="curve"/>
      <point x="470" y="4"/>
      <point x="446" y="9"/>
    </contour>
    <contour>
      <point x="282" y="-300" type="curve"/>
      <point x="445" y="-52"/>
      <point x="638" y="285"/>
      <point x="802" y="533" type="curve"/>
      <point x="773" y="533"/>
      <point x="802" y="533"/>
      <point x="773" y="533" type="curve"/>
      <point x="610" y="285"/>
      <point x="417" y="-52"/>
      <point x="254" y="-300" type="curve"/>
      <point x="282" y="-300"/>
      <point x="254" y="-300"/>
    </contour>
  </outline>
</glyph>
<glyph name="braceleft" format="1">
  <advance width="387"/>
  <unicode hex="007B"/>
  <outline>
    <contour>
      <point x="338" y="-101" type="curve"/>
      <point x="254" y="-101"/>
      <point x="200" y="-55"/>
      <point x="200" y="26" type="curve"/>
      <point x="200" y="85"/>
      <point x="200" y="144"/>
      <point x="200" y="203" type="curve"/>
      <point x="200" y="296"/>
      <point x="136" y="351"/>
      <point x="41" y="351" type="curve"/>
      <point x="41" y="328"/>
      <point x="41" y="351"/>
      <point x="41" y="328" type="curve"/>
      <point x="122" y="328"/>
      <point x="177" y="285"/>
      <point x="177" y="205" type="curve"/>
      <point x="177" y="146"/>
      <point x="177" y="86"/>
      <point x="177" y="27" type="curve"/>
      <point x="177" y="-68"/>
      <point x="241" y="-123"/>
      <point x="338" y="-123" type="curve"/>
      <point x="338" y="-101"/>
      <point x="338" y="-123"/>
    </contour>
    <contour>
      <point x="338" y="800" type="curve"/>
      <point x="240" y="800"/>
      <point x="176" y="746"/>
      <point x="176" y="650" type="curve"/>
      <point x="176" y="590"/>
      <point x="176" y="530"/>
      <point x="176" y="470" type="curve"/>
      <point x="176" y="391"/>
      <point x="122" y="351"/>
      <point x="41" y="351" type="curve"/>
      <point x="41" y="328"/>
      <point x="41" y="351"/>
      <point x="41" y="328" type="curve"/>
      <point x="135" y="328"/>
      <point x="200" y="380"/>
      <point x="200" y="473" type="curve"/>
      <point x="200" y="532"/>
      <point x="200" y="591"/>
      <point x="200" y="650" type="curve"/>
      <point x="200" y="731"/>
      <point x="253" y="778"/>
      <point x="338" y="778" type="curve"/>
      <point x="338" y="800"/>
      <point x="338" y="778"/>
    </contour>
  </outline>
</glyph>
<glyph name="bar" format="1">
  <advance width="195"/>
  <unicode hex="007C"/>
  <outline>
    <contour>
      <point x="110" y="-300" type="curve"/>
      <point x="110" y="67"/>
      <point x="110" y="433"/>
      <point x="110" y="800" type="curve"/>
      <point x="86" y="800"/>
      <point x="110" y="800"/>
      <point x="86" y="800" type="curve"/>
      <point x="86" y="433"/>
      <point x="86" y="67"/>
      <point x="86" y="-300" type="curve"/>
      <point x="110" y="-300"/>
      <point x="86" y="-300"/>
    </contour>
  </outline>
</glyph>
<glyph name="braceright" format="1">
  <advance width="387"/>
  <unicode hex="007D"/>
  <outline>
    <contour>
      <point x="49" y="-124" type="curve"/>
      <point x="146" y="-124"/>
      <point x="209" y="-69"/>
      <point x="209" y="27" type="curve"/>
      <point x="209" y="86"/>
      <point x="209" y="146"/>
      <point x="209" y="205" type="curve"/>
      <point x="209" y="284"/>
      <point x="265" y="327"/>
      <point x="346" y="327" type="curve"/>
      <point x="346" y="350"/>
      <point x="346" y="327"/>
      <point x="346" y="350" type="curve"/>
      <point x="251" y="350"/>
      <point x="186" y="295"/>
      <point x="186" y="203" type="curve"/>
      <point x="186" y="144"/>
      <point x="186" y="85"/>
      <point x="186" y="26" type="curve"/>
      <point x="186" y="-55"/>
      <point x="133" y="-102"/>
      <point x="49" y="-102" type="curve"/>
      <point x="49" y="-124"/>
      <point x="49" y="-102"/>
    </contour>
    <contour>
      <point x="49" y="777" type="curve"/>
      <point x="133" y="777"/>
      <point x="185" y="731"/>
      <point x="185" y="650" type="curve"/>
      <point x="185" y="591"/>
      <point x="185" y="532"/>
      <point x="185" y="473" type="curve"/>
      <point x="185" y="379"/>
      <point x="251" y="327"/>
      <point x="346" y="327" type="curve"/>
      <point x="346" y="350"/>
      <point x="346" y="327"/>
      <point x="346" y="350" type="curve"/>
      <point x="264" y="350"/>
      <point x="209" y="391"/>
      <point x="209" y="470" type="curve"/>
      <point x="209" y="530"/>
      <point x="209" y="590"/>
      <point x="209" y="650" type="curve"/>
      <point x="209" y="745"/>
      <point x="145" y="799"/>
      <point x="49" y="799" type="curve"/>
      <point x="49" y="777"/>
      <point x="49" y="799"/>
    </contour>
  </outline>
</glyph>
<glyph name="exclamdown" format="1">
  <advance width="227"/>
  <unicode hex="00A1"/>
  <outline>
    <contour>
      <point x="100" y="316" type="line"/>
      <point x="96" y="-177" type="line"/>
      <point x="129" y="-177" type="line"/>
      <point x="125" y="316" type="line"/>
    </contour>
    <contour>
      <point x="93" y="532" type="curve"/>
      <point x="93" y="521"/>
      <point x="101" y="514"/>
      <point x="112" y="514" type="curve"/>
      <point x="124" y="514"/>
      <point x="131" y="521"/>
      <point x="131" y="532" type="curve"/>
      <point x="113" y="532"/>
      <point x="110" y="532"/>
      <point x="93" y="532" type="curve"/>
      <point x="93" y="544"/>
      <point x="101" y="551"/>
      <point x="112" y="551" type="curve"/>
      <point x="124" y="551"/>
      <point x="131" y="544"/>
      <point x="131" y="532" type="curve"/>
      <point x="113" y="532"/>
      <point x="110" y="532"/>
    </contour>
  </outline>
</glyph>
<glyph name="cent" format="1">
  <advance width="767"/>
  <unicode hex="00A2"/>
  <outline>
    <contour>
      <point x="410" y="-53" type="curve"/>
      <point x="410" y="-13"/>
      <point x="410" y="27"/>
      <point x="410" y="67" type="curve"/>
      <point x="386" y="67"/>
      <point x="410" y="67"/>
      <point x="386" y="67" type="curve"/>
      <point x="386" y="27"/>
      <point x="386" y="-13"/>
      <point x="386" y="-53" type="curve"/>
      <point x="410" y="-53"/>
      <point x="386" y="-53"/>
    </contour>
    <contour>
      <point x="412" y="778" type="curve"/>
      <point x="412" y="742"/>
      <point x="412" y="706"/>
      <point x="412" y="670" type="curve"/>
      <point x="436" y="670"/>
      <point x="412" y="670"/>
      <point x="436" y="670" type="curve"/>
      <point x="436" y="706"/>
      <point x="436" y="742"/>
      <point x="436" y="778" type="curve"/>
      <point x="412" y="778"/>
      <point x="436" y="778"/>
    </contour>
    <contour>
      <point x="703" y="608" type="curve"/>
      <point x="611" y="660"/>
      <point x="536" y="679"/>
      <point x="430" y="679" type="curve"/>
      <point x="214" y="679"/>
      <point x="63" y="571"/>
      <point x="63" y="366" type="curve"/>
      <point x="63" y="171"/>
      <point x="194" y="54"/>
      <point x="395" y="54" type="curve"/>
      <point x="515" y="54"/>
      <point x="599" y="83"/>
      <point x="701" y="146" type="curve"/>
      <point x="684" y="164"/>
      <point x="701" y="146"/>
      <point x="684" y="164" type="curve"/>
      <point x="590" y="102"/>
      <point x="510" y="77"/>
      <point x="398" y="77" type="curve"/>
      <point x="210" y="77"/>
      <point x="87" y="185"/>
      <point x="87" y="367" type="curve"/>
      <point x="87" y="557"/>
      <point x="228" y="656"/>
      <point x="427" y="656" type="curve"/>
      <point x="529" y="656"/>
      <point x="601" y="639"/>
      <point x="689" y="589" type="curve"/>
      <point x="703" y="608"/>
      <point x="689" y="589"/>
    </contour>
    <contour>
      <point x="680" y="608" type="curve"/>
      <point x="680" y="488"/>
      <point x="680" y="608"/>
      <point x="680" y="488" type="curve"/>
      <point x="703" y="488"/>
      <point x="680" y="488"/>
      <point x="703" y="488" type="curve"/>
      <point x="703" y="608"/>
      <point x="703" y="488"/>
      <point x="703" y="608" type="curve"/>
      <point x="680" y="608"/>
      <point x="703" y="608"/>
    </contour>
  </outline>
</glyph>
<glyph name="sterling" format="1">
  <advance width="637"/>
  <unicode hex="00A3"/>
  <outline>
    <contour>
      <point x="566" y="23" type="curve"/>
      <point x="392" y="23"/>
      <point x="220" y="23"/>
      <point x="48" y="23" type="curve"/>
      <point x="48" y="1"/>
      <point x="48" y="23"/>
      <point x="48" y="1" type="curve"/>
      <point x="220" y="1"/>
      <point x="392" y="1"/>
      <point x="566" y="1" type="curve"/>
      <point x="566" y="23"/>
      <point x="566" y="1"/>
    </contour>
    <contour>
      <point x="505" y="388" type="curve"/>
      <point x="368" y="388"/>
      <point x="230" y="388"/>
      <point x="93" y="388" type="curve"/>
      <point x="93" y="366"/>
      <point x="93" y="388"/>
      <point x="93" y="366" type="curve"/>
      <point x="230" y="366"/>
      <point x="368" y="366"/>
      <point x="505" y="366" type="curve"/>
      <point x="505" y="388"/>
      <point x="505" y="366"/>
    </contour>
    <contour>
      <point x="577" y="674" type="curve"/>
      <point x="519" y="707"/>
      <point x="473" y="722"/>
      <point x="406" y="722" type="curve"/>
      <point x="241" y="722"/>
      <point x="166" y="566"/>
      <point x="216" y="375" type="curve"/>
      <point x="265" y="185"/>
      <point x="205" y="23"/>
      <point x="48" y="23" type="curve"/>
      <point x="48" y="1"/>
      <point x="48" y="23"/>
      <point x="48" y="1" type="curve"/>
      <point x="228" y="1"/>
      <point x="293" y="175"/>
      <point x="241" y="379" type="curve"/>
      <point x="196" y="554"/>
      <point x="265" y="701"/>
      <point x="405" y="701" type="curve"/>
      <point x="468" y="701"/>
      <point x="511" y="689"/>
      <point x="565" y="656" type="curve"/>
      <point x="577" y="674"/>
      <point x="565" y="656"/>
    </contour>
  </outline>
</glyph>
<glyph name="yen" format="1">
  <advance width="1039"/>
  <unicode hex="00A5"/>
  <outline>
    <contour>
      <point x="802" y="372" type="curve"/>
      <point x="711" y="372"/>
      <point x="621" y="372"/>
      <point x="530" y="372" type="curve"/>
      <point x="530" y="348"/>
      <point x="530" y="372"/>
      <point x="530" y="348" type="curve"/>
      <point x="621" y="348"/>
      <point x="711" y="348"/>
      <point x="802" y="348" type="curve"/>
      <point x="802" y="372"/>
      <point x="802" y="348"/>
    </contour>
    <contour>
      <point x="493" y="372" type="curve"/>
      <point x="405" y="372"/>
      <point x="315" y="372"/>
      <point x="227" y="372" type="curve"/>
      <point x="227" y="348"/>
      <point x="227" y="372"/>
      <point x="227" y="348" type="curve"/>
      <point x="315" y="348"/>
      <point x="405" y="348"/>
      <point x="493" y="348" type="curve"/>
      <point x="493" y="372"/>
      <point x="493" y="348"/>
    </contour>
    <contour>
      <point x="802" y="252" type="curve"/>
      <point x="610" y="252"/>
      <point x="418" y="252"/>
      <point x="227" y="252" type="curve"/>
      <point x="227" y="228"/>
      <point x="227" y="252"/>
      <point x="227" y="228" type="curve"/>
      <point x="418" y="228"/>
      <point x="610" y="228"/>
      <point x="802" y="228" type="curve"/>
      <point x="802" y="252"/>
      <point x="802" y="228"/>
    </contour>
    <contour>
      <point x="512" y="23" type="curve"/>
      <point x="320" y="23"/>
      <point x="513" y="23"/>
      <point x="321" y="23" type="curve"/>
      <point x="321" y="1"/>
      <point x="321" y="23"/>
      <point x="321" y="1" type="curve"/>
      <point x="385" y="1"/>
      <point x="448" y="1"/>
      <point x="512" y="1" type="curve"/>
      <point x="512" y="23"/>
      <point x="512" y="1"/>
    </contour>
    <contour>
      <point x="512" y="0" type="curve"/>
      <point x="575" y="0"/>
      <point x="639" y="0"/>
      <point x="702" y="0" type="curve"/>
      <point x="702" y="23"/>
      <point x="702" y="0"/>
      <point x="702" y="23" type="curve"/>
      <point x="511" y="22"/>
      <point x="703" y="23"/>
      <point x="512" y="22" type="curve"/>
      <point x="512" y="0"/>
      <point x="512" y="22"/>
    </contour>
    <contour>
      <point x="814" y="722" type="curve"/>
      <point x="750" y="722"/>
      <point x="687" y="722"/>
      <point x="625" y="722" type="curve"/>
      <point x="625" y="700"/>
      <point x="625" y="722"/>
      <point x="625" y="700" type="curve"/>
      <point x="815" y="700"/>
      <point x="624" y="700"/>
      <point x="814" y="700" type="curve"/>
      <point x="814" y="722"/>
      <point x="814" y="700"/>
    </contour>
    <contour>
      <point x="226" y="722" type="curve"/>
      <point x="163" y="722"/>
      <point x="99" y="722"/>
      <point x="36" y="722" type="curve"/>
      <point x="36" y="700"/>
      <point x="36" y="722"/>
      <point x="36" y="700" type="curve"/>
      <point x="227" y="700"/>
      <point x="35" y="700"/>
      <point x="226" y="700" type="curve"/>
      <point x="226" y="722"/>
      <point x="226" y="700"/>
    </contour>
    <contour>
      <point x="226" y="700" type="curve"/>
      <point x="416" y="700"/>
      <point x="225" y="700"/>
      <point x="415" y="700" type="curve"/>
      <point x="415" y="722"/>
      <point x="415" y="700"/>
      <point x="415" y="722" type="curve"/>
      <point x="352" y="722"/>
      <point x="289" y="722"/>
      <point x="226" y="722" type="curve"/>
      <point x="226" y="700"/>
      <point x="226" y="722"/>
    </contour>
    <contour>
      <point x="814" y="700" type="curve"/>
      <point x="1005" y="700"/>
      <point x="813" y="700"/>
      <point x="1005" y="700" type="curve"/>
      <point x="1005" y="722"/>
      <point x="1005" y="700"/>
      <point x="1005" y="722" type="curve"/>
      <point x="940" y="722"/>
      <point x="878" y="722"/>
      <point x="814" y="722" type="curve"/>
      <point x="814" y="700"/>
      <point x="814" y="722"/>
    </contour>
    <contour>
      <point x="197" y="722" type="curve"/>
      <point x="298" y="593"/>
      <point x="398" y="464"/>
      <point x="499" y="335" type="curve"/>
      <point x="524" y="335"/>
      <point x="499" y="335"/>
      <point x="524" y="335" type="curve"/>
      <point x="424" y="464"/>
      <point x="323" y="593"/>
      <point x="223" y="722" type="curve"/>
      <point x="197" y="722"/>
      <point x="223" y="722"/>
    </contour>
    <contour>
      <point x="816" y="721" type="curve"/>
      <point x="710" y="592"/>
      <point x="604" y="464"/>
      <point x="499" y="335" type="curve"/>
      <point x="524" y="335"/>
      <point x="499" y="335"/>
      <point x="524" y="335" type="curve"/>
      <point x="630" y="464"/>
      <point x="736" y="593"/>
      <point x="843" y="721" type="curve"/>
      <point x="816" y="721"/>
      <point x="843" y="721"/>
    </contour>
    <contour>
      <point x="524" y="0" type="curve"/>
      <point x="524" y="112"/>
      <point x="524" y="224"/>
      <point x="524" y="336" type="curve"/>
      <point x="499" y="336"/>
      <point x="524" y="336"/>
      <point x="499" y="336" type="curve"/>
      <point x="499" y="224"/>
      <point x="499" y="112"/>
      <point x="499" y="0" type="curve"/>
      <point x="524" y="0"/>
      <point x="499" y="0"/>
    </contour>
  </outline>
</glyph>
<glyph name="brokenbar" format="1">
  <advance width="218"/>
  <unicode hex="00A6"/>
  <outline>
    <contour>
      <point x="122" y="-300" type="curve"/>
      <point x="122" y="-176"/>
      <point x="122" y="-52"/>
      <point x="122" y="72" type="curve"/>
      <point x="98" y="72"/>
      <point x="122" y="72"/>
      <point x="98" y="72" type="curve"/>
      <point x="98" y="-52"/>
      <point x="98" y="-176"/>
      <point x="98" y="-300" type="curve"/>
      <point x="122" y="-300"/>
      <point x="98" y="-300"/>
    </contour>
    <contour>
      <point x="122" y="428" type="curve"/>
      <point x="122" y="552"/>
      <point x="122" y="676"/>
      <point x="122" y="800" type="curve"/>
      <point x="98" y="800"/>
      <point x="122" y="800"/>
      <point x="98" y="800" type="curve"/>
      <point x="98" y="676"/>
      <point x="98" y="552"/>
      <point x="98" y="428" type="curve"/>
      <point x="122" y="428"/>
      <point x="98" y="428"/>
    </contour>
  </outline>
</glyph>
<glyph name="dieresis" format="1">
  <advance width="408"/>
  <unicode hex="00A8"/>
  <outline>
    <contour>
      <point x="154" y="650" type="move" name="_top"/>
    </contour>
    <contour>
      <point x="94" y="668" type="curve"/>
      <point x="94" y="680"/>
      <point x="87" y="687"/>
      <point x="74" y="687" type="curve"/>
      <point x="63" y="687"/>
      <point x="56" y="679"/>
      <point x="56" y="668" type="curve"/>
      <point x="73" y="668"/>
      <point x="77" y="668"/>
      <point x="94" y="668" type="curve"/>
      <point x="94" y="657"/>
      <point x="87" y="650"/>
      <point x="74" y="650" type="curve"/>
      <point x="63" y="650"/>
      <point x="56" y="657"/>
      <point x="56" y="668" type="curve"/>
      <point x="73" y="668"/>
      <point x="77" y="668"/>
    </contour>
    <contour>
      <point x="250" y="668" type="curve"/>
      <point x="250" y="680"/>
      <point x="242" y="687"/>
      <point x="229" y="687" type="curve"/>
      <point x="218" y="687"/>
      <point x="211" y="679"/>
      <point x="211" y="668" type="curve"/>
      <point x="228" y="668"/>
      <point x="232" y="668"/>
      <point x="250" y="668" type="curve"/>
      <point x="250" y="657"/>
      <point x="242" y="650"/>
      <point x="229" y="650" type="curve"/>
      <point x="218" y="650"/>
      <point x="211" y="657"/>
      <point x="211" y="668" type="curve"/>
      <point x="228" y="668"/>
      <point x="232" y="668"/>
    </contour>
  </outline>
</glyph>
<glyph name="copyright" format="1">
  <advance width="936"/>
  <unicode hex="00A9"/>
  <outline>
    <contour>
      <point x="92" y="319" type="curve"/>
      <point x="92" y="518"/>
      <point x="260" y="624"/>
      <point x="472" y="624" type="curve"/>
      <point x="680" y="624"/>
      <point x="844" y="515"/>
      <point x="844" y="318" type="curve"/>
      <point x="844" y="126"/>
      <point x="684" y="18"/>
      <point x="480" y="18" type="curve"/>
      <point x="266" y="18"/>
      <point x="92" y="119"/>
      <point x="92" y="319" type="curve"/>
      <point x="68" y="319"/>
      <point x="92" y="319"/>
      <point x="68" y="319" type="curve"/>
      <point x="68" y="108"/>
      <point x="250" y="-4"/>
      <point x="479" y="-4" type="curve"/>
      <point x="698" y="-4"/>
      <point x="868" y="113"/>
      <point x="868" y="319" type="curve"/>
      <point x="868" y="528"/>
      <point x="694" y="645"/>
      <point x="472" y="645" type="curve"/>
      <point x="247" y="645"/>
      <point x="68" y="531"/>
      <point x="68" y="319" type="curve"/>
      <point x="92" y="319"/>
      <point x="68" y="319"/>
    </contour>
    <contour>
      <point x="600" y="452" type="curve"/>
      <point x="600" y="429"/>
      <point x="600" y="405"/>
      <point x="600" y="381" type="curve"/>
      <point x="622" y="381"/>
      <point x="600" y="381"/>
      <point x="622" y="381" type="curve"/>
      <point x="622" y="409"/>
      <point x="622" y="436"/>
      <point x="622" y="464" type="curve"/>
      <point x="600" y="452"/>
      <point x="622" y="464"/>
    </contour>
    <contour>
      <point x="623" y="464" type="curve"/>
      <point x="574" y="488"/>
      <point x="534" y="496"/>
      <point x="480" y="496" type="curve"/>
      <point x="358" y="496"/>
      <point x="272" y="434"/>
      <point x="272" y="319" type="curve"/>
      <point x="272" y="209"/>
      <point x="350" y="146"/>
      <point x="464" y="146" type="curve"/>
      <point x="532" y="146"/>
      <point x="581" y="156"/>
      <point x="640" y="193" type="curve"/>
      <point x="624" y="210"/>
      <point x="640" y="193"/>
      <point x="624" y="210" type="curve"/>
      <point x="572" y="177"/>
      <point x="527" y="167"/>
      <point x="465" y="167" type="curve"/>
      <point x="365" y="167"/>
      <point x="297" y="222"/>
      <point x="297" y="320" type="curve"/>
      <point x="297" y="421"/>
      <point x="371" y="474"/>
      <point x="479" y="474" type="curve"/>
      <point x="529" y="474"/>
      <point x="561" y="467"/>
      <point x="601" y="453" type="curve"/>
      <point x="623" y="464"/>
      <point x="601" y="453"/>
    </contour>
  </outline>
</glyph>
<glyph name="ordfeminine" format="1">
  <advance width="544"/>
  <unicode hex="00AA"/>
  <outline>
    <contour>
      <point x="96" y="714" type="curve"/>
      <point x="96" y="687"/>
      <point x="96" y="670"/>
      <point x="96" y="643" type="curve"/>
      <point x="105" y="643"/>
      <point x="110" y="643"/>
      <point x="118" y="643" type="curve"/>
      <point x="118" y="670"/>
      <point x="118" y="687"/>
      <point x="118" y="714" type="curve"/>
      <point x="110" y="714"/>
      <point x="105" y="714"/>
    </contour>
    <contour>
      <point x="392" y="426" type="curve"/>
      <point x="392" y="520"/>
      <point x="392" y="586"/>
      <point x="392" y="680" type="curve"/>
      <point x="392" y="749"/>
      <point x="324" y="765"/>
      <point x="245" y="765" type="curve"/>
      <point x="186" y="765"/>
      <point x="130" y="743"/>
      <point x="96" y="714" type="curve"/>
      <point x="99" y="707"/>
      <point x="101" y="703"/>
      <point x="104" y="696" type="curve"/>
      <point x="137" y="720"/>
      <point x="187" y="743"/>
      <point x="242" y="743" type="curve"/>
      <point x="309" y="743"/>
      <point x="367" y="731"/>
      <point x="367" y="673" type="curve"/>
      <point x="367" y="582"/>
      <point x="367" y="517"/>
      <point x="367" y="426" type="curve"/>
      <point x="377" y="426"/>
      <point x="382" y="426"/>
    </contour>
    <contour>
      <point x="381" y="426" type="curve"/>
      <point x="411" y="426"/>
      <point x="432" y="426"/>
      <point x="462" y="426" type="curve"/>
      <point x="462" y="435"/>
      <point x="462" y="440"/>
      <point x="462" y="449" type="curve"/>
      <point x="432" y="449"/>
      <point x="412" y="449"/>
      <point x="381" y="449" type="curve"/>
      <point x="381" y="440"/>
      <point x="381" y="435"/>
    </contour>
    <contour>
      <point x="378" y="630" type="curve"/>
      <point x="314" y="623"/>
      <point x="270" y="623"/>
      <point x="206" y="616" type="curve"/>
      <point x="136" y="609"/>
      <point x="83" y="579"/>
      <point x="83" y="514" type="curve"/>
      <point x="83" y="447"/>
      <point x="140" y="419"/>
      <point x="213" y="419" type="curve"/>
      <point x="290" y="419"/>
      <point x="346" y="463"/>
      <point x="385" y="520" type="curve"/>
      <point x="381" y="524"/>
      <point x="377" y="528"/>
      <point x="373" y="532" type="curve"/>
      <point x="338" y="482"/>
      <point x="287" y="442"/>
      <point x="218" y="442" type="curve"/>
      <point x="157" y="442"/>
      <point x="108" y="460"/>
      <point x="108" y="516" type="curve"/>
      <point x="108" y="568"/>
      <point x="149" y="590"/>
      <point x="205" y="596" type="curve"/>
      <point x="269" y="603"/>
      <point x="315" y="604"/>
      <point x="379" y="611" type="curve"/>
      <point x="379" y="618"/>
      <point x="378" y="623"/>
    </contour>
  </outline>
</glyph>
<glyph name="guillemotleft" format="1">
  <advance width="755"/>
  <unicode hex="00AB"/>
  <outline>
    <contour>
      <point x="364" y="398" type="curve"/>
      <point x="364" y="398"/>
      <point x="79" y="289"/>
      <point x="79" y="289" type="curve"/>
      <point x="79" y="265"/>
      <point x="79" y="289"/>
      <point x="79" y="265" type="curve"/>
      <point x="79" y="265"/>
      <point x="364" y="373"/>
      <point x="364" y="374" type="curve"/>
      <point x="364" y="398"/>
      <point x="364" y="374"/>
    </contour>
    <contour>
      <point x="364" y="179" type="curve"/>
      <point x="364" y="180"/>
      <point x="79" y="288"/>
      <point x="79" y="289" type="curve"/>
      <point x="79" y="265"/>
      <point x="79" y="289"/>
      <point x="79" y="265" type="curve"/>
      <point x="79" y="264"/>
      <point x="364" y="156"/>
      <point x="364" y="155" type="curve"/>
      <point x="364" y="179"/>
      <point x="364" y="155"/>
    </contour>
    <contour>
      <point x="656" y="398" type="curve"/>
      <point x="655" y="398"/>
      <point x="370" y="289"/>
      <point x="370" y="289" type="curve"/>
      <point x="370" y="265"/>
      <point x="370" y="289"/>
      <point x="370" y="265" type="curve"/>
      <point x="370" y="265"/>
      <point x="655" y="373"/>
      <point x="656" y="374" type="curve"/>
      <point x="656" y="398"/>
      <point x="656" y="374"/>
    </contour>
    <contour>
      <point x="657" y="179" type="curve"/>
      <point x="656" y="180"/>
      <point x="370" y="288"/>
      <point x="370" y="289" type="curve"/>
      <point x="370" y="265"/>
      <point x="370" y="289"/>
      <point x="370" y="265" type="curve"/>
      <point x="370" y="264"/>
      <point x="656" y="156"/>
      <point x="657" y="155" type="curve"/>
      <point x="657" y="179"/>
      <point x="657" y="155"/>
    </contour>
  </outline>
</glyph>
<glyph name="logicalnot" format="1">
  <advance width="813"/>
  <unicode hex="00AC"/>
  <outline>
    <contour>
      <point x="115" y="297" type="curve"/>
      <point x="721" y="297" type="line"/>
      <point x="721" y="322"/>
      <point x="721" y="297"/>
      <point x="721" y="322" type="curve"/>
      <point x="115" y="322" type="line"/>
      <point x="115" y="297"/>
      <point x="115" y="322"/>
    </contour>
    <contour>
      <point x="721" y="153" type="curve"/>
      <point x="721" y="322" type="line"/>
      <point x="695" y="322"/>
      <point x="721" y="322"/>
      <point x="696" y="322" type="curve"/>
      <point x="696" y="153" type="line"/>
      <point x="721" y="153"/>
      <point x="695" y="153"/>
    </contour>
  </outline>
</glyph>
<glyph name="registered" format="1">
  <advance width="936"/>
  <unicode hex="00AE"/>
  <outline>
    <contour>
      <point x="92" y="319" type="curve"/>
      <point x="92" y="518"/>
      <point x="260" y="624"/>
      <point x="472" y="624" type="curve"/>
      <point x="680" y="624"/>
      <point x="844" y="515"/>
      <point x="844" y="318" type="curve"/>
      <point x="844" y="126"/>
      <point x="684" y="18"/>
      <point x="480" y="18" type="curve"/>
      <point x="266" y="18"/>
      <point x="92" y="119"/>
      <point x="92" y="319" type="curve"/>
      <point x="69" y="319"/>
      <point x="91" y="319"/>
      <point x="68" y="319" type="curve"/>
      <point x="68" y="108"/>
      <point x="250" y="-4"/>
      <point x="479" y="-4" type="curve"/>
      <point x="699" y="-4"/>
      <point x="868" y="113"/>
      <point x="868" y="319" type="curve"/>
      <point x="868" y="528"/>
      <point x="695" y="645"/>
      <point x="472" y="645" type="curve"/>
      <point x="247" y="645"/>
      <point x="68" y="531"/>
      <point x="68" y="319" type="curve"/>
      <point x="91" y="319"/>
      <point x="69" y="319"/>
    </contour>
    <contour>
      <point x="599" y="149" type="curve"/>
      <point x="626" y="149"/>
      <point x="653" y="149"/>
      <point x="680" y="149" type="curve"/>
      <point x="680" y="170"/>
      <point x="680" y="149"/>
      <point x="680" y="170" type="curve"/>
      <point x="659" y="170"/>
      <point x="638" y="170"/>
      <point x="617" y="170" type="curve"/>
      <point x="599" y="149"/>
      <point x="617" y="170"/>
    </contour>
    <contour>
      <point x="387" y="491" type="curve"/>
      <point x="352" y="491"/>
      <point x="319" y="491"/>
      <point x="283" y="491" type="curve"/>
      <point x="283" y="469"/>
      <point x="283" y="491"/>
      <point x="283" y="469" type="curve"/>
      <point x="310" y="469"/>
      <point x="336" y="469"/>
      <point x="363" y="469" type="curve"/>
      <point x="387" y="491"/>
      <point x="363" y="469"/>
    </contour>
    <contour>
      <point x="387" y="171" type="curve"/>
      <point x="352" y="171"/>
      <point x="319" y="171"/>
      <point x="283" y="171" type="curve"/>
      <point x="283" y="149"/>
      <point x="283" y="171"/>
      <point x="283" y="149" type="curve"/>
      <point x="310" y="149"/>
      <point x="336" y="149"/>
      <point x="363" y="149" type="curve"/>
      <point x="387" y="171"/>
      <point x="363" y="149"/>
    </contour>
    <contour>
      <point x="362" y="149" type="curve"/>
      <point x="392" y="149"/>
      <point x="423" y="149"/>
      <point x="454" y="149" type="curve"/>
      <point x="454" y="170"/>
      <point x="454" y="149"/>
      <point x="454" y="170" type="curve"/>
      <point x="432" y="170"/>
      <point x="409" y="170"/>
      <point x="386" y="170" type="curve"/>
      <point x="362" y="149"/>
      <point x="386" y="170"/>
    </contour>
    <contour>
      <point x="487" y="309" type="curve"/>
      <point x="525" y="256"/>
      <point x="562" y="202"/>
      <point x="599" y="149" type="curve"/>
      <point x="617" y="170"/>
      <point x="599" y="149"/>
      <point x="617" y="170" type="curve"/>
      <point x="516" y="309" type="line"/>
      <point x="487" y="309"/>
      <point x="516" y="309"/>
    </contour>
    <contour>
      <point x="387" y="171" type="curve"/>
      <point x="387" y="277"/>
      <point x="387" y="384"/>
      <point x="387" y="491" type="curve"/>
      <point x="363" y="469"/>
      <point x="387" y="491"/>
      <point x="363" y="469" type="curve"/>
      <point x="363" y="363"/>
      <point x="363" y="256"/>
      <point x="363" y="149" type="curve"/>
      <point x="387" y="171"/>
      <point x="363" y="149"/>
    </contour>
    <contour>
      <point x="377" y="295" type="curve"/>
      <point x="403" y="295"/>
      <point x="431" y="295"/>
      <point x="458" y="295" type="curve"/>
      <point x="541" y="295"/>
      <point x="603" y="316"/>
      <point x="603" y="392" type="curve"/>
      <point x="603" y="462"/>
      <point x="545" y="491"/>
      <point x="467" y="491" type="curve"/>
      <point x="442" y="491"/>
      <point x="414" y="491"/>
      <point x="387" y="491" type="curve"/>
      <point x="363" y="469"/>
      <point x="387" y="491"/>
      <point x="363" y="469" type="curve"/>
      <point x="396" y="469"/>
      <point x="430" y="469"/>
      <point x="463" y="469" type="curve"/>
      <point x="528" y="469"/>
      <point x="579" y="449"/>
      <point x="579" y="390" type="curve"/>
      <point x="579" y="329"/>
      <point x="528" y="316"/>
      <point x="461" y="316" type="curve"/>
      <point x="433" y="316"/>
      <point x="404" y="316"/>
      <point x="377" y="316" type="curve"/>
      <point x="377" y="295"/>
      <point x="377" y="316"/>
    </contour>
  </outline>
</glyph>
<glyph name="macron" format="1">
  <advance width="423"/>
  <unicode hex="00AF"/>
  <outline>
    <contour>
      <point x="172" y="658" type="move" name="_top"/>
    </contour>
    <contour>
      <point x="312" y="680" type="curve"/>
      <point x="215" y="680"/>
      <point x="119" y="680"/>
      <point x="23" y="680" type="curve"/>
      <point x="23" y="658"/>
      <point x="23" y="680"/>
      <point x="23" y="658" type="curve"/>
      <point x="119" y="658"/>
      <point x="215" y="658"/>
      <point x="312" y="658" type="curve"/>
      <point x="312" y="680"/>
      <point x="312" y="658"/>
    </contour>
  </outline>
</glyph>
<glyph name="degree" format="1">
  <advance width="565"/>
  <unicode hex="00B0"/>
  <outline>
    <contour>
      <point x="489" y="432" type="curve"/>
      <point x="489" y="559"/>
      <point x="409" y="638"/>
      <point x="280" y="638" type="curve"/>
      <point x="153" y="638"/>
      <point x="75" y="559"/>
      <point x="75" y="434" type="curve"/>
      <point x="98" y="434"/>
      <point x="75" y="434"/>
      <point x="98" y="434" type="curve"/>
      <point x="98" y="545"/>
      <point x="166" y="617"/>
      <point x="278" y="617" type="curve"/>
      <point x="393" y="617"/>
      <point x="466" y="545"/>
      <point x="466" y="432" type="curve"/>
      <point x="466" y="315"/>
      <point x="397" y="240"/>
      <point x="281" y="240" type="curve"/>
      <point x="166" y="240"/>
      <point x="98" y="317"/>
      <point x="98" y="434" type="curve"/>
      <point x="75" y="434"/>
      <point x="98" y="434"/>
      <point x="75" y="434" type="curve"/>
      <point x="75" y="304"/>
      <point x="151" y="218"/>
      <point x="280" y="218" type="curve"/>
      <point x="410" y="218"/>
      <point x="489" y="302"/>
    </contour>
  </outline>
</glyph>
<glyph name="plusminus" format="1">
  <advance width="763"/>
  <unicode hex="00B1"/>
  <outline>
    <contour>
      <point x="77" y="18" type="line"/>
      <point x="687" y="18" type="line"/>
      <point x="687" y="43" type="line"/>
      <point x="77" y="43" type="line"/>
    </contour>
    <contour>
      <point x="77" y="297" type="curve"/>
      <point x="687" y="297" type="line"/>
      <point x="687" y="322"/>
      <point x="687" y="297"/>
      <point x="687" y="322" type="curve"/>
      <point x="77" y="322" type="line"/>
      <point x="77" y="297"/>
      <point x="77" y="322"/>
    </contour>
    <contour>
      <point x="390" y="18" type="curve"/>
      <point x="390" y="588" type="line"/>
      <point x="364" y="588"/>
      <point x="390" y="588"/>
      <point x="364" y="588" type="curve"/>
      <point x="364" y="18" type="line"/>
      <point x="390" y="18"/>
      <point x="364" y="18"/>
    </contour>
  </outline>
</glyph>
<glyph name="twosuperior" format="1">
  <advance width="577"/>
  <unicode hex="00B2"/>
  <outline>
    <contour>
      <point x="311" y="708" type="move" name="_top"/>
    </contour>
    <contour>
      <point x="275" y="294" type="move" name="_bottom"/>
    </contour>
    <contour>
      <point x="486" y="295" type="curve"/>
      <point x="486" y="329"/>
      <point x="486" y="360"/>
      <point x="486" y="394" type="curve"/>
      <point x="464" y="394"/>
      <point x="486" y="394"/>
      <point x="464" y="394" type="curve"/>
      <point x="464" y="367"/>
      <point x="464" y="343"/>
      <point x="464" y="317" type="curve"/>
      <point x="486" y="295"/>
      <point x="464" y="316"/>
    </contour>
    <contour>
      <point x="84" y="295" type="curve"/>
      <point x="224" y="295"/>
      <point x="355" y="295"/>
      <point x="486" y="295" type="curve"/>
      <point x="464" y="316"/>
      <point x="486" y="295"/>
      <point x="464" y="317" type="curve"/>
      <point x="338" y="317"/>
      <point x="211" y="317"/>
      <point x="84" y="317" type="curve"/>
      <point x="84" y="296"/>
      <point x="84" y="317"/>
    </contour>
    <contour>
      <point x="139" y="612" type="curve"/>
      <point x="179" y="663"/>
      <point x="227" y="687"/>
      <point x="297" y="687" type="curve"/>
      <point x="375" y="687"/>
      <point x="436" y="660"/>
      <point x="436" y="590" type="curve"/>
      <point x="436" y="529"/>
      <point x="386" y="506"/>
      <point x="336" y="470" type="curve"/>
      <point x="251" y="419"/>
      <point x="167" y="368"/>
      <point x="84" y="317" type="curve"/>
      <point x="94" y="296"/>
      <point x="84" y="317"/>
      <point x="94" y="296" type="curve"/>
      <point x="179" y="348"/>
      <point x="265" y="401"/>
      <point x="351" y="453" type="curve"/>
      <point x="407" y="494"/>
      <point x="460" y="522"/>
      <point x="460" y="591" type="curve"/>
      <point x="460" y="674"/>
      <point x="389" y="709"/>
      <point x="298" y="709" type="curve"/>
      <point x="220" y="709"/>
      <point x="162" y="686"/>
      <point x="121" y="625" type="curve"/>
      <point x="139" y="612"/>
      <point x="121" y="625"/>
    </contour>
  </outline>
</glyph>
<glyph name="threesuperior" format="1">
  <advance width="510"/>
  <unicode hex="00B3"/>
  <outline>
    <contour>
      <point x="254" y="708" type="move" name="_top"/>
    </contour>
    <contour>
      <point x="245" y="289" type="move" name="_bottom"/>
    </contour>
    <contour>
      <point x="111" y="642" type="curve"/>
      <point x="150" y="670"/>
      <point x="192" y="687"/>
      <point x="241" y="687" type="curve"/>
      <point x="320" y="687"/>
      <point x="383" y="671"/>
      <point x="383" y="602" type="curve"/>
      <point x="383" y="517"/>
      <point x="283" y="519"/>
      <point x="184" y="513" type="curve"/>
      <point x="184" y="494"/>
      <point x="184" y="513"/>
      <point x="184" y="494" type="curve"/>
      <point x="300" y="495"/>
      <point x="408" y="504"/>
      <point x="408" y="604" type="curve"/>
      <point x="408" y="685"/>
      <point x="335" y="708"/>
      <point x="244" y="708" type="curve"/>
      <point x="188" y="708"/>
      <point x="137" y="690"/>
      <point x="97" y="656" type="curve"/>
      <point x="111" y="642"/>
      <point x="97" y="656"/>
    </contour>
    <contour>
      <point x="89" y="323" type="curve"/>
      <point x="135" y="301"/>
      <point x="181" y="290"/>
      <point x="232" y="290" type="curve"/>
      <point x="340" y="287"/>
      <point x="431" y="309"/>
      <point x="428" y="402" type="curve"/>
      <point x="428" y="512"/>
      <point x="309" y="504"/>
      <point x="184" y="506" type="curve"/>
      <point x="184" y="491"/>
      <point x="184" y="506"/>
      <point x="184" y="491" type="curve"/>
      <point x="299" y="486"/>
      <point x="403" y="492"/>
      <point x="403" y="401" type="curve"/>
      <point x="403" y="322"/>
      <point x="328" y="309"/>
      <point x="234" y="311" type="curve"/>
      <point x="187" y="311"/>
      <point x="143" y="320"/>
      <point x="101" y="338" type="curve"/>
      <point x="89" y="323"/>
      <point x="101" y="338"/>
    </contour>
  </outline>
</glyph>
<glyph name="acute" format="1">
  <advance width="291"/>
  <unicode hex="00B4"/>
  <outline>
    <contour>
      <point x="21" y="591" type="move" name="_top"/>
    </contour>
    <contour>
      <point x="36" y="591" type="line"/>
      <point x="222" y="757" type="line"/>
      <point x="181" y="757" type="line"/>
      <point x="6" y="591" type="line"/>
    </contour>
  </outline>
</glyph>
<glyph name="periodcentered" format="1">
  <advance width="219"/>
  <unicode hex="00B7"/>
  <outline>
    <contour>
      <point x="128" y="440" type="curve"/>
      <point x="128" y="451"/>
      <point x="120" y="459"/>
      <point x="108" y="459" type="curve"/>
      <point x="97" y="459"/>
      <point x="90" y="451"/>
      <point x="90" y="440" type="curve"/>
      <point x="107" y="440"/>
      <point x="111" y="440"/>
      <point x="128" y="440" type="curve"/>
      <point x="128" y="429"/>
      <point x="120" y="421"/>
      <point x="108" y="421" type="curve"/>
      <point x="97" y="421"/>
      <point x="90" y="429"/>
      <point x="90" y="440" type="curve"/>
      <point x="107" y="440"/>
      <point x="111" y="440"/>
    </contour>
  </outline>
</glyph>
<glyph name="cedilla" format="1">
  <advance width="382"/>
  <unicode hex="00B8"/>
  <outline>
    <contour>
      <point x="166" y="4" type="move" name="_bottom"/>
    </contour>
    <contour>
      <point x="151" y="19" type="curve"/>
      <point x="132" y="-8"/>
      <point x="112" y="-35"/>
      <point x="93" y="-62" type="curve"/>
      <point x="110" y="-80"/>
      <point x="93" y="-62"/>
      <point x="110" y="-80" type="curve"/>
      <point x="129" y="-52"/>
      <point x="150" y="-24"/>
      <point x="169" y="4" type="curve"/>
      <point x="151" y="19"/>
      <point x="169" y="4"/>
    </contour>
    <contour>
      <point x="110" y="-81" type="curve"/>
      <point x="130" y="-70"/>
      <point x="147" y="-68"/>
      <point x="170" y="-68" type="curve"/>
      <point x="212" y="-68"/>
      <point x="241" y="-86"/>
      <point x="241" y="-124" type="curve"/>
      <point x="241" y="-167"/>
      <point x="202" y="-179"/>
      <point x="153" y="-179" type="curve"/>
      <point x="120" y="-179"/>
      <point x="94" y="-177"/>
      <point x="63" y="-162" type="curve"/>
      <point x="53" y="-180"/>
      <point x="63" y="-162"/>
      <point x="53" y="-180" type="curve"/>
      <point x="87" y="-195"/>
      <point x="115" y="-201"/>
      <point x="152" y="-201" type="curve"/>
      <point x="216" y="-201"/>
      <point x="265" y="-182"/>
      <point x="265" y="-124" type="curve"/>
      <point x="265" y="-73"/>
      <point x="227" y="-46"/>
      <point x="172" y="-46" type="curve"/>
      <point x="142" y="-46"/>
      <point x="121" y="-52"/>
      <point x="94" y="-63" type="curve"/>
      <point x="110" y="-81"/>
      <point x="94" y="-63"/>
    </contour>
  </outline>
</glyph>
<glyph name="onesuperior" format="1">
  <advance width="449"/>
  <unicode hex="00B9"/>
  <outline>
    <contour>
      <point x="265" y="700" type="move" name="_top"/>
    </contour>
    <contour>
      <point x="263" y="296" type="move" name="_bottom"/>
    </contour>
    <contour>
      <point x="251" y="295" type="curve"/>
      <point x="294" y="295"/>
      <point x="334" y="295"/>
      <point x="377" y="295" type="curve"/>
      <point x="377" y="317"/>
      <point x="377" y="295"/>
      <point x="377" y="317" type="curve"/>
      <point x="342" y="317"/>
      <point x="310" y="317"/>
      <point x="276" y="317" type="curve"/>
      <point x="251" y="295"/>
      <point x="276" y="317"/>
    </contour>
    <contour>
      <point x="277" y="317" type="curve"/>
      <point x="231" y="317"/>
      <point x="189" y="317"/>
      <point x="144" y="317" type="curve"/>
      <point x="144" y="295"/>
      <point x="144" y="317"/>
      <point x="144" y="295" type="curve"/>
      <point x="181" y="295"/>
      <point x="215" y="295"/>
      <point x="251" y="295" type="curve"/>
      <point x="277" y="317"/>
      <point x="251" y="295"/>
    </contour>
    <contour>
      <point x="94" y="575" type="line"/>
      <point x="276" y="693" type="line"/>
      <point x="251" y="703" type="line"/>
      <point x="84" y="594" type="line"/>
    </contour>
    <contour>
      <point x="277" y="317" type="curve"/>
      <point x="277" y="703" type="line"/>
      <point x="251" y="703" type="line"/>
      <point x="251" y="295" type="line"/>
      <point x="277" y="317"/>
      <point x="251" y="295"/>
    </contour>
  </outline>
</glyph>
<glyph name="ordmasculine" format="1">
  <advance width="540"/>
  <unicode hex="00BA"/>
  <outline>
    <contour>
      <point x="106" y="600" type="curve"/>
      <point x="106" y="695"/>
      <point x="172" y="748"/>
      <point x="270" y="748" type="curve"/>
      <point x="368" y="748"/>
      <point x="433" y="693"/>
      <point x="433" y="598" type="curve"/>
      <point x="433" y="500"/>
      <point x="372" y="440"/>
      <point x="275" y="440" type="curve"/>
      <point x="173" y="440"/>
      <point x="106" y="499"/>
      <point x="106" y="600" type="curve"/>
      <point x="95" y="600"/>
      <point x="93" y="600"/>
      <point x="82" y="600" type="curve"/>
      <point x="82" y="485"/>
      <point x="157" y="417"/>
      <point x="274" y="417" type="curve"/>
      <point x="386" y="417"/>
      <point x="459" y="486"/>
      <point x="459" y="598" type="curve"/>
      <point x="459" y="707"/>
      <point x="383" y="769"/>
      <point x="271" y="769" type="curve"/>
      <point x="158" y="769"/>
      <point x="82" y="708"/>
      <point x="82" y="600" type="curve"/>
      <point x="93" y="600"/>
      <point x="95" y="600"/>
    </contour>
  </outline>
</glyph>
<glyph name="guillemotright" format="1">
  <advance width="755"/>
  <unicode hex="00BB"/>
  <outline>
    <contour>
      <point x="391" y="398" type="curve"/>
      <point x="392" y="398"/>
      <point x="676" y="289"/>
      <point x="677" y="289" type="curve"/>
      <point x="677" y="265"/>
      <point x="677" y="289"/>
      <point x="677" y="265" type="curve"/>
      <point x="676" y="265"/>
      <point x="392" y="373"/>
      <point x="391" y="374" type="curve"/>
      <point x="391" y="398"/>
      <point x="391" y="374"/>
    </contour>
    <contour>
      <point x="391" y="179" type="curve"/>
      <point x="392" y="180"/>
      <point x="676" y="288"/>
      <point x="677" y="289" type="curve"/>
      <point x="677" y="265"/>
      <point x="677" y="289"/>
      <point x="677" y="265" type="curve"/>
      <point x="676" y="264"/>
      <point x="392" y="156"/>
      <point x="391" y="155" type="curve"/>
      <point x="391" y="179"/>
      <point x="391" y="155"/>
    </contour>
    <contour>
      <point x="100" y="398" type="curve"/>
      <point x="101" y="398"/>
      <point x="385" y="289"/>
      <point x="386" y="289" type="curve"/>
      <point x="386" y="265"/>
      <point x="386" y="289"/>
      <point x="386" y="265" type="curve"/>
      <point x="385" y="265"/>
      <point x="101" y="373"/>
      <point x="100" y="374" type="curve"/>
      <point x="100" y="398"/>
      <point x="100" y="374"/>
    </contour>
    <contour>
      <point x="100" y="179" type="curve"/>
      <point x="101" y="180"/>
      <point x="385" y="288"/>
      <point x="386" y="289" type="curve"/>
      <point x="386" y="265"/>
      <point x="386" y="289"/>
      <point x="386" y="265" type="curve"/>
      <point x="385" y="264"/>
      <point x="101" y="156"/>
      <point x="100" y="155" type="curve"/>
      <point x="100" y="179"/>
      <point x="100" y="155"/>
    </contour>
  </outline>
</glyph>
<glyph name="onequarter" format="1">
  <advance width="1235"/>
  <unicode hex="00BC"/>
  <outline>
    <contour>
      <point x="394" y="-92" type="line"/>
      <point x="942" y="756" type="line"/>
      <point x="914" y="756" type="line"/>
      <point x="366" y="-92" type="line"/>
    </contour>
    <contour>
      <point x="215" y="352" type="curve"/>
      <point x="258" y="352"/>
      <point x="298" y="352"/>
      <point x="341" y="352" type="curve"/>
      <point x="341" y="374"/>
      <point x="341" y="352"/>
      <point x="341" y="374" type="curve"/>
      <point x="306" y="374"/>
      <point x="274" y="374"/>
      <point x="239" y="374" type="curve"/>
      <point x="215" y="352"/>
      <point x="239" y="374"/>
    </contour>
    <contour>
      <point x="240" y="374" type="curve"/>
      <point x="195" y="374"/>
      <point x="152" y="374"/>
      <point x="107" y="374" type="curve"/>
      <point x="107" y="352"/>
      <point x="107" y="374"/>
      <point x="107" y="352" type="curve"/>
      <point x="144" y="352"/>
      <point x="179" y="352"/>
      <point x="216" y="352" type="curve"/>
      <point x="240" y="374"/>
      <point x="216" y="352"/>
    </contour>
    <contour>
      <point x="58" y="632" type="line"/>
      <point x="240" y="750" type="line"/>
      <point x="216" y="759" type="line"/>
      <point x="47" y="650" type="line"/>
    </contour>
    <contour>
      <point x="240" y="374" type="curve"/>
      <point x="240" y="759" type="line"/>
      <point x="216" y="759" type="line"/>
      <point x="216" y="352" type="line"/>
      <point x="240" y="374"/>
      <point x="216" y="352"/>
    </contour>
    <contour>
      <point x="1211" y="35" type="line"/>
      <point x="756" y="35" type="line"/>
      <point x="756" y="14" type="line"/>
      <point x="1211" y="14" type="line"/>
    </contour>
    <contour>
      <point x="770" y="16" type="line"/>
      <point x="1081" y="320" type="line"/>
      <point x="1057" y="329" type="line"/>
      <point x="756" y="35" type="line"/>
    </contour>
    <contour>
      <point x="1081" y="-105" type="line"/>
      <point x="1081" y="329" type="line"/>
      <point x="1057" y="329" type="line"/>
      <point x="1057" y="-105" type="line"/>
    </contour>
    <contour>
      <point x="1069" y="-83" type="line"/>
      <point x="955" y="-83" type="line"/>
      <point x="955" y="-105" type="line"/>
      <point x="1069" y="-105" type="line"/>
    </contour>
    <contour>
      <point x="1069" y="-105" type="line"/>
      <point x="1175" y="-105" type="line"/>
      <point x="1175" y="-83" type="line"/>
      <point x="1069" y="-83" type="line"/>
    </contour>
  </outline>
</glyph>
<glyph name="onehalf" format="1">
  <advance width="1305"/>
  <unicode hex="00BD"/>
  <outline>
    <contour>
      <point x="392" y="-92" type="line"/>
      <point x="940" y="756" type="line"/>
      <point x="912" y="756" type="line"/>
      <point x="364" y="-92" type="line"/>
    </contour>
    <contour>
      <point x="212" y="352" type="curve"/>
      <point x="255" y="352"/>
      <point x="295" y="352"/>
      <point x="338" y="352" type="curve"/>
      <point x="338" y="374"/>
      <point x="338" y="352"/>
      <point x="338" y="374" type="curve"/>
      <point x="303" y="374"/>
      <point x="271" y="374"/>
      <point x="236" y="374" type="curve"/>
      <point x="212" y="352"/>
      <point x="236" y="374"/>
    </contour>
    <contour>
      <point x="237" y="374" type="curve"/>
      <point x="192" y="374"/>
      <point x="149" y="374"/>
      <point x="104" y="374" type="curve"/>
      <point x="104" y="352"/>
      <point x="104" y="374"/>
      <point x="104" y="352" type="curve"/>
      <point x="141" y="352"/>
      <point x="176" y="352"/>
      <point x="213" y="352" type="curve"/>
      <point x="237" y="374"/>
      <point x="213" y="352"/>
    </contour>
    <contour>
      <point x="55" y="632" type="line"/>
      <point x="237" y="750" type="line"/>
      <point x="213" y="759" type="line"/>
      <point x="44" y="650" type="line"/>
    </contour>
    <contour>
      <point x="237" y="374" type="curve"/>
      <point x="237" y="759" type="line"/>
      <point x="213" y="759" type="line"/>
      <point x="213" y="352" type="line"/>
      <point x="237" y="374"/>
      <point x="213" y="352"/>
    </contour>
    <contour>
      <point x="1260" y="-96" type="curve"/>
      <point x="1260" y="-63"/>
      <point x="1260" y="-32"/>
      <point x="1260" y="3" type="curve"/>
      <point x="1238" y="3"/>
      <point x="1260" y="3"/>
      <point x="1238" y="3" type="curve"/>
      <point x="1238" y="-25"/>
      <point x="1238" y="-49"/>
      <point x="1238" y="-74" type="curve"/>
      <point x="1260" y="-96"/>
      <point x="1238" y="-75"/>
    </contour>
    <contour>
      <point x="858" y="-96" type="curve"/>
      <point x="999" y="-96"/>
      <point x="1129" y="-96"/>
      <point x="1260" y="-96" type="curve"/>
      <point x="1238" y="-75"/>
      <point x="1260" y="-96"/>
      <point x="1238" y="-74" type="curve"/>
      <point x="1112" y="-74"/>
      <point x="985" y="-74"/>
      <point x="858" y="-74" type="curve"/>
      <point x="858" y="-96"/>
      <point x="858" y="-74"/>
    </contour>
    <contour>
      <point x="914" y="221" type="curve"/>
      <point x="954" y="272"/>
      <point x="1002" y="296"/>
      <point x="1071" y="296" type="curve"/>
      <point x="1150" y="296"/>
      <point x="1211" y="268"/>
      <point x="1211" y="199" type="curve"/>
      <point x="1211" y="137"/>
      <point x="1161" y="114"/>
      <point x="1110" y="79" type="curve"/>
      <point x="1025" y="28"/>
      <point x="941" y="-24"/>
      <point x="858" y="-74" type="curve"/>
      <point x="868" y="-96"/>
      <point x="858" y="-74"/>
      <point x="868" y="-96" type="curve"/>
      <point x="954" y="-43"/>
      <point x="1040" y="10"/>
      <point x="1126" y="62" type="curve"/>
      <point x="1182" y="102"/>
      <point x="1234" y="131"/>
      <point x="1234" y="200" type="curve"/>
      <point x="1234" y="282"/>
      <point x="1164" y="318"/>
      <point x="1073" y="318" type="curve"/>
      <point x="994" y="318"/>
      <point x="936" y="295"/>
      <point x="895" y="233" type="curve"/>
      <point x="914" y="221"/>
      <point x="895" y="233"/>
    </contour>
  </outline>
</glyph>
<glyph name="threequarters" format="1">
  <advance width="1225"/>
  <unicode hex="00BE"/>
  <outline>
    <contour>
      <point x="383" y="-92" type="line"/>
      <point x="931" y="756" type="line"/>
      <point x="903" y="756" type="line"/>
      <point x="355" y="-92" type="line"/>
    </contour>
    <contour>
      <point x="74" y="691" type="curve"/>
      <point x="112" y="720"/>
      <point x="155" y="737"/>
      <point x="203" y="737" type="curve"/>
      <point x="282" y="737"/>
      <point x="346" y="721"/>
      <point x="346" y="651" type="curve"/>
      <point x="346" y="567"/>
      <point x="245" y="569"/>
      <point x="146" y="563" type="curve"/>
      <point x="146" y="544"/>
      <point x="146" y="563"/>
      <point x="146" y="544" type="curve"/>
      <point x="264" y="545"/>
      <point x="371" y="553"/>
      <point x="371" y="653" type="curve"/>
      <point x="371" y="734"/>
      <point x="298" y="757"/>
      <point x="206" y="757" type="curve"/>
      <point x="151" y="757"/>
      <point x="99" y="739"/>
      <point x="59" y="705" type="curve"/>
      <point x="74" y="691"/>
      <point x="59" y="705"/>
    </contour>
    <contour>
      <point x="51" y="372" type="curve"/>
      <point x="97" y="349"/>
      <point x="143" y="339"/>
      <point x="194" y="339" type="curve"/>
      <point x="304" y="336"/>
      <point x="393" y="358"/>
      <point x="391" y="451" type="curve"/>
      <point x="391" y="562"/>
      <point x="272" y="554"/>
      <point x="146" y="556" type="curve"/>
      <point x="146" y="540"/>
      <point x="146" y="556"/>
      <point x="146" y="540" type="curve"/>
      <point x="261" y="535"/>
      <point x="366" y="541"/>
      <point x="366" y="450" type="curve"/>
      <point x="366" y="372"/>
      <point x="290" y="358"/>
      <point x="196" y="360" type="curve"/>
      <point x="149" y="360"/>
      <point x="106" y="369"/>
      <point x="63" y="388" type="curve"/>
      <point x="51" y="372"/>
      <point x="63" y="388"/>
    </contour>
    <contour>
      <point x="1200" y="35" type="line"/>
      <point x="745" y="35" type="line"/>
      <point x="745" y="14" type="line"/>
      <point x="1200" y="14" type="line"/>
    </contour>
    <contour>
      <point x="759" y="16" type="line"/>
      <point x="1070" y="320" type="line"/>
      <point x="1046" y="329" type="line"/>
      <point x="745" y="35" type="line"/>
    </contour>
    <contour>
      <point x="1071" y="-105" type="line"/>
      <point x="1071" y="329" type="line"/>
      <point x="1046" y="329" type="line"/>
      <point x="1046" y="-105" type="line"/>
    </contour>
    <contour>
      <point x="1058" y="-83" type="line"/>
      <point x="945" y="-83" type="line"/>
      <point x="945" y="-105" type="line"/>
      <point x="1058" y="-105" type="line"/>
    </contour>
    <contour>
      <point x="1058" y="-105" type="line"/>
      <point x="1164" y="-105" type="line"/>
      <point x="1164" y="-83" type="line"/>
      <point x="1058" y="-83" type="line"/>
    </contour>
  </outline>
</glyph>
<glyph name="questiondown" format="1">
  <advance width="565"/>
  <unicode hex="00BF"/>
  <outline>
    <contour>
      <point x="342" y="373" type="curve"/>
      <point x="342" y="410"/>
      <point x="342" y="449"/>
      <point x="342" y="486" type="curve"/>
      <point x="316" y="486"/>
      <point x="342" y="486"/>
      <point x="316" y="486" type="curve"/>
      <point x="316" y="449"/>
      <point x="316" y="410"/>
      <point x="316" y="373" type="curve"/>
      <point x="342" y="373"/>
      <point x="316" y="373"/>
    </contour>
    <contour>
      <point x="484" y="80" type="line"/>
      <point x="443" y="48"/>
      <point x="382" y="20"/>
      <point x="312" y="20" type="curve"/>
      <point x="189" y="20"/>
      <point x="92" y="73"/>
      <point x="92" y="189" type="curve"/>
      <point x="92" y="317"/>
      <point x="201" y="373"/>
      <point x="342" y="373" type="curve"/>
      <point x="342" y="384"/>
      <point x="342" y="388"/>
      <point x="342" y="397" type="curve"/>
      <point x="187" y="397"/>
      <point x="68" y="330"/>
      <point x="68" y="189" type="curve"/>
      <point x="68" y="60"/>
      <point x="173" y="-3"/>
      <point x="310" y="-3" type="curve"/>
      <point x="387" y="-3"/>
      <point x="451" y="25"/>
      <point x="499" y="62" type="curve"/>
    </contour>
    <contour>
      <point x="314" y="697" type="curve"/>
      <point x="314" y="687"/>
      <point x="319" y="682"/>
      <point x="328" y="682" type="curve"/>
      <point x="339" y="682"/>
      <point x="344" y="688"/>
      <point x="344" y="697" type="curve"/>
      <point x="314" y="697"/>
      <point x="344" y="697"/>
      <point x="314" y="697" type="curve"/>
      <point x="314" y="706"/>
      <point x="319" y="710"/>
      <point x="328" y="710" type="curve"/>
      <point x="339" y="710"/>
      <point x="344" y="705"/>
      <point x="344" y="697" type="curve"/>
      <point x="314" y="697"/>
      <point x="344" y="697"/>
    </contour>
  </outline>
</glyph>
<glyph name="AE" format="1">
  <advance width="1211"/>
  <unicode hex="00C6"/>
  <outline>
    <contour>
      <point x="142" y="23" type="curve"/>
      <point x="-21" y="23"/>
      <point x="143" y="23"/>
      <point x="-20" y="23" type="curve"/>
      <point x="-20" y="0"/>
      <point x="-20" y="23"/>
      <point x="-20" y="0" type="curve"/>
      <point x="34" y="0"/>
      <point x="88" y="0"/>
      <point x="142" y="0" type="curve"/>
      <point x="142" y="23"/>
      <point x="142" y="0"/>
    </contour>
    <contour>
      <point x="142" y="0" type="curve"/>
      <point x="198" y="0"/>
      <point x="141" y="0"/>
      <point x="309" y="0" type="curve"/>
      <point x="309" y="23"/>
      <point x="309" y="0"/>
      <point x="309" y="23" type="curve"/>
      <point x="141" y="23"/>
      <point x="310" y="23"/>
      <point x="142" y="23" type="curve"/>
      <point x="142" y="0"/>
      <point x="142" y="23"/>
    </contour>
    <contour>
      <point x="605" y="242" type="curve"/>
      <point x="453" y="242"/>
      <point x="432" y="242"/>
      <point x="281" y="242" type="curve"/>
      <point x="270" y="218"/>
      <point x="281" y="242"/>
      <point x="270" y="218" type="curve"/>
      <point x="427" y="218"/>
      <point x="455" y="218"/>
      <point x="612" y="218" type="curve"/>
      <point x="605" y="242"/>
      <point x="612" y="218"/>
    </contour>
    <contour>
      <point x="140" y="0" type="curve"/>
      <point x="625" y="722" type="line"/>
      <point x="602" y="722"/>
      <point x="619" y="722"/>
      <point x="596" y="722" type="curve"/>
      <point x="110" y="0" type="line"/>
      <point x="138" y="0"/>
      <point x="113" y="0"/>
    </contour>
    <contour>
      <point x="1160" y="11" type="curve"/>
      <point x="1160" y="131"/>
      <point x="1160" y="10"/>
      <point x="1160" y="130" type="curve"/>
      <point x="1137" y="130"/>
      <point x="1160" y="130"/>
      <point x="1137" y="130" type="curve"/>
      <point x="1137" y="10"/>
      <point x="1137" y="131"/>
      <point x="1137" y="11" type="curve"/>
      <point x="1160" y="11"/>
      <point x="1137" y="11"/>
    </contour>
    <contour>
      <point x="1094" y="711" type="curve"/>
      <point x="1094" y="591"/>
      <point x="1094" y="712"/>
      <point x="1094" y="592" type="curve"/>
      <point x="1117" y="592"/>
      <point x="1094" y="592"/>
      <point x="1117" y="592" type="curve"/>
      <point x="1117" y="712"/>
      <point x="1117" y="591"/>
      <point x="1117" y="711" type="curve"/>
      <point x="1094" y="711"/>
      <point x="1117" y="711"/>
    </contour>
    <contour>
      <point x="610" y="23" type="curve"/>
      <point x="445" y="23"/>
      <point x="612" y="23"/>
      <point x="447" y="23" type="curve"/>
      <point x="447" y="0"/>
      <point x="447" y="23"/>
      <point x="447" y="0" type="curve"/>
      <point x="502" y="0"/>
      <point x="555" y="0"/>
      <point x="610" y="0" type="curve"/>
      <point x="610" y="23"/>
      <point x="610" y="0"/>
    </contour>
    <contour>
      <point x="610" y="722" type="curve"/>
      <point x="555" y="722"/>
      <point x="502" y="722"/>
      <point x="447" y="722" type="curve"/>
      <point x="447" y="699"/>
      <point x="447" y="722"/>
      <point x="447" y="699" type="curve"/>
      <point x="612" y="699"/>
      <point x="445" y="699"/>
      <point x="610" y="699" type="curve"/>
      <point x="610" y="722"/>
      <point x="610" y="699"/>
    </contour>
    <contour>
      <point x="614" y="363" type="curve"/>
      <point x="754" y="363"/>
      <point x="895" y="363"/>
      <point x="1036" y="363" type="curve"/>
      <point x="1036" y="385"/>
      <point x="1036" y="363"/>
      <point x="1036" y="385" type="curve"/>
      <point x="895" y="385"/>
      <point x="754" y="385"/>
      <point x="614" y="385" type="curve"/>
      <point x="614" y="363"/>
      <point x="614" y="385"/>
    </contour>
    <contour>
      <point x="594" y="699" type="curve"/>
      <point x="768" y="699"/>
      <point x="942" y="699"/>
      <point x="1117" y="699" type="curve"/>
      <point x="1117" y="722"/>
      <point x="1117" y="699"/>
      <point x="1117" y="722" type="curve"/>
      <point x="942" y="722"/>
      <point x="768" y="722"/>
      <point x="594" y="722" type="curve"/>
      <point x="594" y="699"/>
      <point x="594" y="722"/>
    </contour>
    <contour>
      <point x="621" y="0" type="curve"/>
      <point x="621" y="722" type="line"/>
      <point x="595" y="722"/>
      <point x="621" y="722"/>
      <point x="595" y="722" type="curve"/>
      <point x="595" y="481"/>
      <point x="595" y="241"/>
      <point x="595" y="0" type="curve"/>
      <point x="621" y="0"/>
      <point x="595" y="0"/>
    </contour>
    <contour>
      <point x="594" y="0" type="curve"/>
      <point x="783" y="0"/>
      <point x="971" y="0"/>
      <point x="1160" y="0" type="curve"/>
      <point x="1160" y="23"/>
      <point x="1160" y="0"/>
      <point x="1160" y="23" type="curve"/>
      <point x="971" y="23"/>
      <point x="783" y="23"/>
      <point x="594" y="23" type="curve"/>
      <point x="594" y="0"/>
      <point x="594" y="23"/>
    </contour>
  </outline>
</glyph>
<glyph name="Ccedilla" format="1">
  <advance width="842"/>
  <unicode hex="00C7"/>
  <outline>
    <contour>
      <point x="746" y="655" type="curve"/>
      <point x="746" y="535"/>
      <point x="746" y="655"/>
      <point x="746" y="535" type="curve"/>
      <point x="769" y="535"/>
      <point x="746" y="535"/>
      <point x="769" y="535" type="curve"/>
      <point x="769" y="655"/>
      <point x="769" y="535"/>
      <point x="769" y="655" type="curve"/>
      <point x="746" y="655"/>
      <point x="769" y="655"/>
    </contour>
    <contour>
      <point x="769" y="655" type="curve"/>
      <point x="681" y="697"/>
      <point x="587" y="727"/>
      <point x="481" y="727" type="curve"/>
      <point x="230" y="727"/>
      <point x="70" y="590"/>
      <point x="70" y="344" type="curve"/>
      <point x="70" y="117"/>
      <point x="220" y="-5"/>
      <point x="454" y="-5" type="curve"/>
      <point x="591" y="-5"/>
      <point x="681" y="26"/>
      <point x="792" y="96" type="curve"/>
      <point x="777" y="114"/>
      <point x="792" y="96"/>
      <point x="777" y="114" type="curve"/>
      <point x="672" y="45"/>
      <point x="583" y="20"/>
      <point x="455" y="20" type="curve"/>
      <point x="237" y="20"/>
      <point x="95" y="135"/>
      <point x="95" y="345" type="curve"/>
      <point x="95" y="573"/>
      <point x="246" y="703"/>
      <point x="480" y="703" type="curve"/>
      <point x="580" y="703"/>
      <point x="672" y="678"/>
      <point x="755" y="637" type="curve"/>
      <point x="769" y="655"/>
      <point x="755" y="637"/>
    </contour>
    <contour>
      <point x="432" y="24" type="curve"/>
      <point x="413" y="-3"/>
      <point x="393" y="-31"/>
      <point x="375" y="-57" type="curve"/>
      <point x="391" y="-76"/>
      <point x="375" y="-57"/>
      <point x="391" y="-76" type="curve"/>
      <point x="410" y="-48"/>
      <point x="431" y="-19"/>
      <point x="450" y="9" type="curve"/>
      <point x="432" y="24"/>
      <point x="450" y="9"/>
    </contour>
    <contour>
      <point x="391" y="-76" type="curve"/>
      <point x="412" y="-66"/>
      <point x="429" y="-63"/>
      <point x="453" y="-63" type="curve"/>
      <point x="494" y="-63"/>
      <point x="522" y="-81"/>
      <point x="522" y="-119" type="curve"/>
      <point x="522" y="-162"/>
      <point x="484" y="-174"/>
      <point x="436" y="-174" type="curve"/>
      <point x="401" y="-174"/>
      <point x="376" y="-172"/>
      <point x="344" y="-157" type="curve"/>
      <point x="335" y="-175"/>
      <point x="344" y="-157"/>
      <point x="335" y="-175" type="curve"/>
      <point x="369" y="-190"/>
      <point x="397" y="-197"/>
      <point x="435" y="-197" type="curve"/>
      <point x="497" y="-197"/>
      <point x="548" y="-177"/>
      <point x="548" y="-119" type="curve"/>
      <point x="548" y="-68"/>
      <point x="508" y="-41"/>
      <point x="455" y="-41" type="curve"/>
      <point x="425" y="-41"/>
      <point x="404" y="-47"/>
      <point x="376" y="-58" type="curve"/>
      <point x="391" y="-76"/>
      <point x="376" y="-58"/>
    </contour>
  </outline>
</glyph>
<glyph name="Ecircumflex" format="1">
  <advance width="805"/>
  <unicode hex="00CA"/>
  <outline>
    <contour>
      <point x="754" y="11" type="curve"/>
      <point x="754" y="131"/>
      <point x="754" y="10"/>
      <point x="754" y="130" type="curve"/>
      <point x="732" y="130"/>
      <point x="754" y="130"/>
      <point x="732" y="130" type="curve"/>
      <point x="732" y="10"/>
      <point x="732" y="131"/>
      <point x="732" y="11" type="curve"/>
      <point x="754" y="11"/>
      <point x="732" y="11"/>
    </contour>
    <contour>
      <point x="689" y="711" type="curve"/>
      <point x="689" y="591"/>
      <point x="689" y="712"/>
      <point x="689" y="592" type="curve"/>
      <point x="712" y="592"/>
      <point x="689" y="592"/>
      <point x="712" y="592" type="curve"/>
      <point x="712" y="712"/>
      <point x="712" y="591"/>
      <point x="712" y="711" type="curve"/>
      <point x="689" y="711"/>
      <point x="712" y="711"/>
    </contour>
    <contour>
      <point x="205" y="23" type="curve"/>
      <point x="40" y="23"/>
      <point x="207" y="23"/>
      <point x="42" y="23" type="curve"/>
      <point x="42" y="0"/>
      <point x="42" y="23"/>
      <point x="42" y="0" type="curve"/>
      <point x="97" y="0"/>
      <point x="149" y="0"/>
      <point x="205" y="0" type="curve"/>
      <point x="205" y="23"/>
      <point x="205" y="0"/>
    </contour>
    <contour>
      <point x="205" y="722" type="curve"/>
      <point x="149" y="722"/>
      <point x="97" y="722"/>
      <point x="42" y="722" type="curve"/>
      <point x="42" y="699"/>
      <point x="42" y="722"/>
      <point x="42" y="699" type="curve"/>
      <point x="207" y="699"/>
      <point x="40" y="699"/>
      <point x="205" y="699" type="curve"/>
      <point x="205" y="722"/>
      <point x="205" y="699"/>
    </contour>
    <contour>
      <point x="209" y="363" type="curve"/>
      <point x="349" y="363"/>
      <point x="490" y="363"/>
      <point x="631" y="363" type="curve"/>
      <point x="631" y="385"/>
      <point x="631" y="363"/>
      <point x="631" y="385" type="curve"/>
      <point x="490" y="385"/>
      <point x="349" y="385"/>
      <point x="209" y="385" type="curve"/>
      <point x="209" y="363"/>
      <point x="209" y="385"/>
    </contour>
    <contour>
      <point x="189" y="699" type="curve"/>
      <point x="363" y="699"/>
      <point x="537" y="699"/>
      <point x="712" y="699" type="curve"/>
      <point x="712" y="722"/>
      <point x="712" y="699"/>
      <point x="712" y="722" type="curve"/>
      <point x="537" y="722"/>
      <point x="363" y="722"/>
      <point x="189" y="722" type="curve"/>
      <point x="189" y="699"/>
      <point x="189" y="722"/>
    </contour>
    <contour>
      <point x="216" y="0" type="curve"/>
      <point x="216" y="722" type="line"/>
      <point x="191" y="722"/>
      <point x="216" y="722"/>
      <point x="191" y="722" type="curve"/>
      <point x="191" y="481"/>
      <point x="191" y="241"/>
      <point x="191" y="0" type="curve"/>
      <point x="216" y="0"/>
      <point x="191" y="0"/>
    </contour>
    <contour>
      <point x="189" y="0" type="curve"/>
      <point x="378" y="0"/>
      <point x="566" y="0"/>
      <point x="754" y="0" type="curve"/>
      <point x="754" y="23"/>
      <point x="754" y="0"/>
      <point x="754" y="23" type="curve"/>
      <point x="566" y="23"/>
      <point x="378" y="23"/>
      <point x="189" y="23" type="curve"/>
      <point x="189" y="0"/>
      <point x="189" y="23"/>
    </contour>
    <contour>
      <point x="252" y="825" type="line"/>
      <point x="439" y="991" type="line"/>
      <point x="397" y="991" type="line"/>
      <point x="222" y="825" type="line"/>
    </contour>
    <contour>
      <point x="624" y="825" type="line"/>
      <point x="449" y="991" type="line"/>
      <point x="407" y="991" type="line"/>
      <point x="593" y="825" type="line"/>
    </contour>
  </outline>
</glyph>
<glyph name="Edieresis" format="1">
  <advance width="805"/>
  <unicode hex="00CB"/>
  <outline>
    <contour>
      <point x="754" y="11" type="curve"/>
      <point x="754" y="131"/>
      <point x="754" y="10"/>
      <point x="754" y="130" type="curve"/>
      <point x="732" y="130"/>
      <point x="754" y="130"/>
      <point x="732" y="130" type="curve"/>
      <point x="732" y="10"/>
      <point x="732" y="131"/>
      <point x="732" y="11" type="curve"/>
      <point x="754" y="11"/>
      <point x="732" y="11"/>
    </contour>
    <contour>
      <point x="689" y="711" type="curve"/>
      <point x="689" y="591"/>
      <point x="689" y="712"/>
      <point x="689" y="592" type="curve"/>
      <point x="712" y="592"/>
      <point x="689" y="592"/>
      <point x="712" y="592" type="curve"/>
      <point x="712" y="712"/>
      <point x="712" y="591"/>
      <point x="712" y="711" type="curve"/>
      <point x="689" y="711"/>
      <point x="712" y="711"/>
    </contour>
    <contour>
      <point x="205" y="23" type="curve"/>
      <point x="40" y="23"/>
      <point x="207" y="23"/>
      <point x="42" y="23" type="curve"/>
      <point x="42" y="0"/>
      <point x="42" y="23"/>
      <point x="42" y="0" type="curve"/>
      <point x="97" y="0"/>
      <point x="149" y="0"/>
      <point x="205" y="0" type="curve"/>
      <point x="205" y="23"/>
      <point x="205" y="0"/>
    </contour>
    <contour>
      <point x="205" y="722" type="curve"/>
      <point x="149" y="722"/>
      <point x="97" y="722"/>
      <point x="42" y="722" type="curve"/>
      <point x="42" y="699"/>
      <point x="42" y="722"/>
      <point x="42" y="699" type="curve"/>
      <point x="207" y="699"/>
      <point x="40" y="699"/>
      <point x="205" y="699" type="curve"/>
      <point x="205" y="722"/>
      <point x="205" y="699"/>
    </contour>
    <contour>
      <point x="209" y="363" type="curve"/>
      <point x="349" y="363"/>
      <point x="490" y="363"/>
      <point x="631" y="363" type="curve"/>
      <point x="631" y="385"/>
      <point x="631" y="363"/>
      <point x="631" y="385" type="curve"/>
      <point x="490" y="385"/>
      <point x="349" y="385"/>
      <point x="209" y="385" type="curve"/>
      <point x="209" y="363"/>
      <point x="209" y="385"/>
    </contour>
    <contour>
      <point x="189" y="699" type="curve"/>
      <point x="363" y="699"/>
      <point x="537" y="699"/>
      <point x="712" y="699" type="curve"/>
      <point x="712" y="722"/>
      <point x="712" y="699"/>
      <point x="712" y="722" type="curve"/>
      <point x="537" y="722"/>
      <point x="363" y="722"/>
      <point x="189" y="722" type="curve"/>
      <point x="189" y="699"/>
      <point x="189" y="722"/>
    </contour>
    <contour>
      <point x="216" y="0" type="curve"/>
      <point x="216" y="722" type="line"/>
      <point x="191" y="722"/>
      <point x="216" y="722"/>
      <point x="191" y="722" type="curve"/>
      <point x="191" y="481"/>
      <point x="191" y="241"/>
      <point x="191" y="0" type="curve"/>
      <point x="216" y="0"/>
      <point x="191" y="0"/>
    </contour>
    <contour>
      <point x="189" y="0" type="curve"/>
      <point x="378" y="0"/>
      <point x="566" y="0"/>
      <point x="754" y="0" type="curve"/>
      <point x="754" y="23"/>
      <point x="754" y="0"/>
      <point x="754" y="23" type="curve"/>
      <point x="566" y="23"/>
      <point x="378" y="23"/>
      <point x="189" y="23" type="curve"/>
      <point x="189" y="0"/>
      <point x="189" y="23"/>
    </contour>
    <contour>
      <point x="364" y="843" type="curve"/>
      <point x="364" y="854"/>
      <point x="356" y="862"/>
      <point x="343" y="862" type="curve"/>
      <point x="332" y="862"/>
      <point x="325" y="854"/>
      <point x="325" y="843" type="curve"/>
      <point x="342" y="843"/>
      <point x="347" y="843"/>
      <point x="364" y="843" type="curve"/>
      <point x="364" y="832"/>
      <point x="356" y="825"/>
      <point x="343" y="825" type="curve"/>
      <point x="332" y="825"/>
      <point x="325" y="832"/>
      <point x="325" y="843" type="curve"/>
      <point x="342" y="843"/>
      <point x="347" y="843"/>
    </contour>
    <contour>
      <point x="519" y="843" type="curve"/>
      <point x="519" y="854"/>
      <point x="511" y="862"/>
      <point x="498" y="862" type="curve"/>
      <point x="487" y="862"/>
      <point x="480" y="854"/>
      <point x="480" y="843" type="curve"/>
      <point x="497" y="843"/>
      <point x="501" y="843"/>
      <point x="519" y="843" type="curve"/>
      <point x="519" y="832"/>
      <point x="511" y="825"/>
      <point x="498" y="825" type="curve"/>
      <point x="487" y="825"/>
      <point x="480" y="832"/>
      <point x="480" y="843" type="curve"/>
      <point x="497" y="843"/>
      <point x="501" y="843"/>
    </contour>
  </outline>
</glyph>
<glyph name="Igrave" format="1">
  <advance width="429"/>
  <unicode hex="00CC"/>
  <outline>
    <contour>
      <point x="225" y="722" type="curve"/>
      <point x="169" y="722"/>
      <point x="116" y="722"/>
      <point x="62" y="722" type="curve"/>
      <point x="62" y="699"/>
      <point x="62" y="722"/>
      <point x="62" y="699" type="curve"/>
      <point x="227" y="699"/>
      <point x="60" y="699"/>
      <point x="225" y="699" type="curve"/>
      <point x="225" y="722"/>
      <point x="225" y="699"/>
    </contour>
    <contour>
      <point x="225" y="699" type="curve"/>
      <point x="390" y="699"/>
      <point x="223" y="699"/>
      <point x="388" y="699" type="curve"/>
      <point x="388" y="722"/>
      <point x="388" y="699"/>
      <point x="388" y="722" type="curve"/>
      <point x="333" y="722"/>
      <point x="280" y="722"/>
      <point x="225" y="722" type="curve"/>
      <point x="225" y="699"/>
      <point x="225" y="722"/>
    </contour>
    <contour>
      <point x="225" y="0" type="curve"/>
      <point x="280" y="0"/>
      <point x="333" y="0"/>
      <point x="388" y="0" type="curve"/>
      <point x="388" y="23"/>
      <point x="388" y="0"/>
      <point x="388" y="23" type="curve"/>
      <point x="223" y="23"/>
      <point x="390" y="23"/>
      <point x="225" y="23" type="curve"/>
      <point x="225" y="0"/>
      <point x="225" y="23"/>
    </contour>
    <contour>
      <point x="225" y="23" type="curve"/>
      <point x="60" y="23"/>
      <point x="227" y="23"/>
      <point x="62" y="23" type="curve"/>
      <point x="62" y="0"/>
      <point x="62" y="23"/>
      <point x="62" y="0" type="curve"/>
      <point x="116" y="0"/>
      <point x="169" y="0"/>
      <point x="225" y="0" type="curve"/>
      <point x="225" y="23"/>
      <point x="225" y="0"/>
    </contour>
    <contour>
      <point x="236" y="0" type="curve"/>
      <point x="236" y="241"/>
      <point x="236" y="481"/>
      <point x="236" y="722" type="curve"/>
      <point x="210" y="722"/>
      <point x="236" y="722"/>
      <point x="210" y="722" type="curve"/>
      <point x="210" y="481"/>
      <point x="210" y="241"/>
      <point x="210" y="0" type="curve"/>
      <point x="236" y="0"/>
      <point x="210" y="0"/>
    </contour>
    <contour>
      <point x="243" y="825" type="line"/>
      <point x="67" y="991" type="line"/>
      <point x="26" y="991" type="line"/>
      <point x="211" y="825" type="line"/>
    </contour>
  </outline>
</glyph>
<glyph name="Icircumflex" format="1">
  <advance width="429"/>
  <unicode hex="00CE"/>
  <outline>
    <contour>
      <point x="213" y="722" type="curve"/>
      <point x="157" y="722"/>
      <point x="105" y="722"/>
      <point x="50" y="722" type="curve"/>
      <point x="50" y="699"/>
      <point x="50" y="722"/>
      <point x="50" y="699" type="curve"/>
      <point x="215" y="699"/>
      <point x="48" y="699"/>
      <point x="213" y="699" type="curve"/>
      <point x="213" y="722"/>
      <point x="213" y="699"/>
    </contour>
    <contour>
      <point x="213" y="699" type="curve"/>
      <point x="379" y="699"/>
      <point x="211" y="699"/>
      <point x="377" y="699" type="curve"/>
      <point x="377" y="722"/>
      <point x="377" y="699"/>
      <point x="377" y="722" type="curve"/>
      <point x="321" y="722"/>
      <point x="268" y="722"/>
      <point x="213" y="722" type="curve"/>
      <point x="213" y="699"/>
      <point x="213" y="722"/>
    </contour>
    <contour>
      <point x="213" y="0" type="curve"/>
      <point x="268" y="0"/>
      <point x="321" y="0"/>
      <point x="377" y="0" type="curve"/>
      <point x="377" y="23"/>
      <point x="377" y="0"/>
      <point x="377" y="23" type="curve"/>
      <point x="211" y="23"/>
      <point x="379" y="23"/>
      <point x="213" y="23" type="curve"/>
      <point x="213" y="0"/>
      <point x="213" y="23"/>
    </contour>
    <contour>
      <point x="213" y="23" type="curve"/>
      <point x="48" y="23"/>
      <point x="215" y="23"/>
      <point x="50" y="23" type="curve"/>
      <point x="50" y="0"/>
      <point x="50" y="23"/>
      <point x="50" y="0" type="curve"/>
      <point x="105" y="0"/>
      <point x="157" y="0"/>
      <point x="213" y="0" type="curve"/>
      <point x="213" y="23"/>
      <point x="213" y="0"/>
    </contour>
    <contour>
      <point x="224" y="0" type="curve"/>
      <point x="224" y="241"/>
      <point x="224" y="481"/>
      <point x="224" y="722" type="curve"/>
      <point x="198" y="722"/>
      <point x="224" y="722"/>
      <point x="198" y="722" type="curve"/>
      <point x="198" y="481"/>
      <point x="198" y="241"/>
      <point x="198" y="0" type="curve"/>
      <point x="224" y="0"/>
      <point x="198" y="0"/>
    </contour>
    <contour>
      <point x="42" y="825" type="line"/>
      <point x="228" y="991" type="line"/>
      <point x="187" y="991" type="line"/>
      <point x="11" y="825" type="line"/>
    </contour>
    <contour>
      <point x="414" y="825" type="line"/>
      <point x="238" y="991" type="line"/>
      <point x="197" y="991" type="line"/>
      <point x="382" y="825" type="line"/>
    </contour>
  </outline>
</glyph>
<glyph name="Idieresis" format="1">
  <advance width="409"/>
  <unicode hex="00CF"/>
  <outline>
    <contour>
      <point x="205" y="722" type="curve"/>
      <point x="149" y="722"/>
      <point x="97" y="722"/>
      <point x="42" y="722" type="curve"/>
      <point x="42" y="699"/>
      <point x="42" y="722"/>
      <point x="42" y="699" type="curve"/>
      <point x="207" y="699"/>
      <point x="40" y="699"/>
      <point x="205" y="699" type="curve"/>
      <point x="205" y="722"/>
      <point x="205" y="699"/>
    </contour>
    <contour>
      <point x="205" y="699" type="curve"/>
      <point x="371" y="699"/>
      <point x="203" y="699"/>
      <point x="369" y="699" type="curve"/>
      <point x="369" y="722"/>
      <point x="369" y="699"/>
      <point x="369" y="722" type="curve"/>
      <point x="313" y="722"/>
      <point x="260" y="722"/>
      <point x="205" y="722" type="curve"/>
      <point x="205" y="699"/>
      <point x="205" y="722"/>
    </contour>
    <contour>
      <point x="205" y="0" type="curve"/>
      <point x="260" y="0"/>
      <point x="313" y="0"/>
      <point x="369" y="0" type="curve"/>
      <point x="369" y="23"/>
      <point x="369" y="0"/>
      <point x="369" y="23" type="curve"/>
      <point x="203" y="23"/>
      <point x="371" y="23"/>
      <point x="205" y="23" type="curve"/>
      <point x="205" y="0"/>
      <point x="205" y="23"/>
    </contour>
    <contour>
      <point x="205" y="23" type="curve"/>
      <point x="40" y="23"/>
      <point x="207" y="23"/>
      <point x="42" y="23" type="curve"/>
      <point x="42" y="0"/>
      <point x="42" y="23"/>
      <point x="42" y="0" type="curve"/>
      <point x="97" y="0"/>
      <point x="149" y="0"/>
      <point x="205" y="0" type="curve"/>
      <point x="205" y="23"/>
      <point x="205" y="0"/>
    </contour>
    <contour>
      <point x="216" y="0" type="curve"/>
      <point x="216" y="241"/>
      <point x="216" y="481"/>
      <point x="216" y="722" type="curve"/>
      <point x="190" y="722"/>
      <point x="216" y="722"/>
      <point x="190" y="722" type="curve"/>
      <point x="190" y="481"/>
      <point x="190" y="241"/>
      <point x="190" y="0" type="curve"/>
      <point x="216" y="0"/>
      <point x="190" y="0"/>
    </contour>
    <contour>
      <point x="145" y="843" type="curve"/>
      <point x="145" y="854"/>
      <point x="137" y="862"/>
      <point x="125" y="862" type="curve"/>
      <point x="113" y="862"/>
      <point x="106" y="854"/>
      <point x="106" y="843" type="curve"/>
      <point x="125" y="843"/>
      <point x="128" y="843"/>
      <point x="145" y="843" type="curve"/>
      <point x="145" y="832"/>
      <point x="137" y="825"/>
      <point x="125" y="825" type="curve"/>
      <point x="113" y="825"/>
      <point x="106" y="832"/>
      <point x="106" y="843" type="curve"/>
      <point x="125" y="843"/>
      <point x="128" y="843"/>
    </contour>
    <contour>
      <point x="300" y="843" type="curve"/>
      <point x="300" y="854"/>
      <point x="292" y="862"/>
      <point x="281" y="862" type="curve"/>
      <point x="269" y="862"/>
      <point x="262" y="854"/>
      <point x="262" y="843" type="curve"/>
      <point x="279" y="843"/>
      <point x="283" y="843"/>
      <point x="300" y="843" type="curve"/>
      <point x="300" y="832"/>
      <point x="292" y="825"/>
      <point x="281" y="825" type="curve"/>
      <point x="269" y="825"/>
      <point x="262" y="832"/>
      <point x="262" y="843" type="curve"/>
      <point x="279" y="843"/>
      <point x="283" y="843"/>
    </contour>
  </outline>
</glyph>
